<svg width="800" height="800" viewBox="0 0 800 800" fill="none" xmlns="http://www.w3.org/2000/svg">
<path d="M390 349C396.627 349 402 343.627 402 337C402 330.373 396.627 325 390 325C383.373 325 378 330.373 378 337C378 343.627 383.373 349 390 349Z" fill="#CFD8DC"/>
<path fill-rule="evenodd" clip-rule="evenodd" d="M336 280C327.163 280 320 287.163 320 296V424C320 432.837 327.163 440 336 440H464C472.837 440 480 432.837 480 424V296C480 287.163 472.837 280 464 280H336ZM464 288H336C331.582 288 328 291.582 328 296V395.8L360 367L392.5 388L440 341L472 369.4V296C472 291.582 468.418 288 464 288Z" fill="#CFD8DC"/>
<path d="M304.456 480.487H302.116V496H304.456V480.487Z" fill="#90A4AE"/>
<path d="M307.683 496H309.948V488.827C309.948 487.259 311.046 486.168 312.334 486.168C313.591 486.168 314.462 487.001 314.462 488.266V496H316.719V488.584C316.719 487.183 317.575 486.168 319.052 486.168C320.249 486.168 321.234 486.835 321.234 488.41V496H323.499V488.198C323.499 485.54 322.014 484.214 319.908 484.214C318.234 484.214 316.977 485.017 316.416 486.259H316.295C315.788 484.987 314.72 484.214 313.167 484.214C311.629 484.214 310.486 484.979 310.001 486.259H309.857V484.365H307.683V496Z" fill="#90A4AE"/>
<path d="M329.92 496.258C331.844 496.258 332.927 495.28 333.359 494.409H333.45V496H335.662V488.274C335.662 484.888 332.995 484.214 331.147 484.214C329.041 484.214 327.102 485.062 326.345 487.183L328.473 487.668C328.807 486.842 329.655 486.047 331.177 486.047C332.639 486.047 333.389 486.812 333.389 488.13V488.183C333.389 489.009 332.541 488.994 330.45 489.236C328.246 489.493 325.989 490.069 325.989 492.713C325.989 495 327.708 496.258 329.92 496.258ZM330.412 494.44C329.132 494.44 328.208 493.864 328.208 492.743C328.208 491.531 329.284 491.099 330.594 490.925C331.329 490.827 333.071 490.63 333.397 490.304V491.804C333.397 493.182 332.298 494.44 330.412 494.44Z" fill="#90A4AE"/>
<path d="M343.556 500.605C346.518 500.605 348.805 499.249 348.805 496.258V484.365H346.586V486.252H346.419C346.018 485.532 345.215 484.214 343.049 484.214C340.238 484.214 338.171 486.433 338.171 490.137C338.171 493.849 340.284 495.826 343.034 495.826C345.17 495.826 345.995 494.621 346.404 493.879H346.548V496.167C346.548 497.992 345.298 498.78 343.579 498.78C341.693 498.78 340.958 497.833 340.557 497.166L338.61 497.969C339.224 499.393 340.776 500.605 343.556 500.605ZM343.533 493.947C341.511 493.947 340.458 492.394 340.458 490.107C340.458 487.872 341.488 486.138 343.533 486.138C345.51 486.138 346.571 487.751 346.571 490.107C346.571 492.508 345.488 493.947 343.533 493.947Z" fill="#90A4AE"/>
<path d="M356.857 496.235C359.395 496.235 361.19 494.985 361.705 493.091L359.561 492.705C359.152 493.803 358.168 494.364 356.88 494.364C354.941 494.364 353.638 493.107 353.577 490.864H361.849V490.062C361.849 485.858 359.334 484.214 356.698 484.214C353.456 484.214 351.32 486.683 351.32 490.258C351.32 493.872 353.426 496.235 356.857 496.235ZM353.585 489.168C353.676 487.516 354.873 486.085 356.713 486.085C358.47 486.085 359.622 487.388 359.629 489.168H353.585Z" fill="#90A4AE"/>
<path d="M370.007 496H372.271V484.365H370.007V496ZM371.15 482.57C371.931 482.57 372.582 481.964 372.582 481.222C372.582 480.48 371.931 479.866 371.15 479.866C370.363 479.866 369.719 480.48 369.719 481.222C369.719 481.964 370.363 482.57 371.15 482.57Z" fill="#90A4AE"/>
<path d="M384.037 487.206C383.567 485.396 382.151 484.214 379.636 484.214C377.007 484.214 375.144 485.6 375.144 487.66C375.144 489.312 376.144 490.41 378.325 490.895L380.295 491.326C381.416 491.576 381.938 492.076 381.938 492.804C381.938 493.705 380.976 494.409 379.492 494.409C378.136 494.409 377.265 493.826 376.992 492.682L374.803 493.016C375.182 495.076 376.894 496.235 379.507 496.235C382.317 496.235 384.264 494.743 384.264 492.637C384.264 490.993 383.219 489.978 381.082 489.486L379.234 489.062C377.954 488.759 377.401 488.327 377.409 487.539C377.401 486.645 378.371 486.009 379.658 486.009C381.067 486.009 381.719 486.789 381.984 487.569L384.037 487.206Z" fill="#90A4AE"/>
<path d="M394.664 489.092C394.664 487.236 395.8 486.176 397.375 486.176C398.913 486.176 399.845 487.183 399.845 488.872V496H402.11V488.6C402.11 485.721 400.526 484.214 398.148 484.214C396.398 484.214 395.255 485.024 394.717 486.259H394.573V484.365H392.399V496H394.664V489.092Z" fill="#90A4AE"/>
<path d="M410.048 496.235C413.327 496.235 415.471 493.834 415.471 490.236C415.471 486.615 413.327 484.214 410.048 484.214C406.768 484.214 404.624 486.615 404.624 490.236C404.624 493.834 406.768 496.235 410.048 496.235ZM410.055 494.334C407.912 494.334 406.912 492.463 406.912 490.228C406.912 488.001 407.912 486.108 410.055 486.108C412.184 486.108 413.184 488.001 413.184 490.228C413.184 492.463 412.184 494.334 410.055 494.334Z" fill="#90A4AE"/>
<path d="M423.43 484.365H421.044V481.578H418.779V484.365H417.075V486.183H418.779V493.053C418.772 495.167 420.385 496.189 422.173 496.151C422.892 496.144 423.377 496.008 423.642 495.909L423.233 494.038C423.082 494.068 422.801 494.137 422.438 494.137C421.703 494.137 421.044 493.894 421.044 492.584V486.183H423.43V484.365Z" fill="#90A4AE"/>
<path d="M433.845 480.487H431.58V496H433.845V480.487Z" fill="#90A4AE"/>
<path d="M441.793 496.235C445.072 496.235 447.216 493.834 447.216 490.236C447.216 486.615 445.072 484.214 441.793 484.214C438.513 484.214 436.369 486.615 436.369 490.236C436.369 493.834 438.513 496.235 441.793 496.235ZM441.8 494.334C439.657 494.334 438.657 492.463 438.657 490.228C438.657 488.001 439.657 486.108 441.8 486.108C443.929 486.108 444.929 488.001 444.929 490.228C444.929 492.463 443.929 494.334 441.8 494.334Z" fill="#90A4AE"/>
<path d="M453.13 496.258C455.054 496.258 456.137 495.28 456.569 494.409H456.66V496H458.871V488.274C458.871 484.888 456.205 484.214 454.357 484.214C452.251 484.214 450.312 485.062 449.555 487.183L451.683 487.668C452.016 486.842 452.865 486.047 454.387 486.047C455.849 486.047 456.599 486.812 456.599 488.13V488.183C456.599 489.009 455.751 488.994 453.66 489.236C451.456 489.493 449.199 490.069 449.199 492.713C449.199 495 450.918 496.258 453.13 496.258ZM453.622 494.44C452.342 494.44 451.418 493.864 451.418 492.743C451.418 491.531 452.494 491.099 453.804 490.925C454.539 490.827 456.281 490.63 456.607 490.304V491.804C456.607 493.182 455.508 494.44 453.622 494.44Z" fill="#90A4AE"/>
<path d="M466.243 496.227C468.364 496.227 469.197 494.932 469.607 494.19H469.796V496H472.008V480.487H469.743V486.252H469.607C469.197 485.532 468.425 484.214 466.259 484.214C463.448 484.214 461.381 486.433 461.381 490.205C461.381 493.97 463.418 496.227 466.243 496.227ZM466.743 494.296C464.721 494.296 463.668 492.516 463.668 490.183C463.668 487.872 464.698 486.138 466.743 486.138C468.72 486.138 469.781 487.751 469.781 490.183C469.781 492.629 468.698 494.296 466.743 494.296Z" fill="#90A4AE"/>
<path d="M480.254 496.235C482.792 496.235 484.587 494.985 485.102 493.091L482.959 492.705C482.55 493.803 481.565 494.364 480.277 494.364C478.338 494.364 477.035 493.107 476.975 490.864H485.246V490.062C485.246 485.858 482.731 484.214 480.095 484.214C476.854 484.214 474.717 486.683 474.717 490.258C474.717 493.872 476.823 496.235 480.254 496.235ZM476.982 489.168C477.073 487.516 478.27 486.085 480.111 486.085C481.868 486.085 483.019 487.388 483.027 489.168H476.982Z" fill="#90A4AE"/>
<path d="M492.114 496.227C494.235 496.227 495.068 494.932 495.477 494.19H495.667V496H497.879V480.487H495.614V486.252H495.477C495.068 485.532 494.296 484.214 492.13 484.214C489.319 484.214 487.252 486.433 487.252 490.205C487.252 493.97 489.289 496.227 492.114 496.227ZM492.614 494.296C490.592 494.296 489.539 492.516 489.539 490.183C489.539 487.872 490.569 486.138 492.614 486.138C494.591 486.138 495.652 487.751 495.652 490.183C495.652 492.629 494.569 494.296 492.614 494.296Z" fill="#90A4AE"/>
</svg>
