<svg xmlns="http://www.w3.org/2000/svg" xmlns:svg="http://www.w3.org/2000/svg" width="320" height="50" viewBox="0 0 84.666667 13.229162" version="1.1" id="svg483">
  <defs id="defs480"/>
  <g id="layer1" transform="matrix(0.9999981,0,0,0.9999981,348.22578,-45.401878)" style="stroke:none">
    <g id="g778" style="stroke:none">
      <path id="path564" style="font-size:2.39631px;letter-spacing:0.571121px;fill:#ffffff;stroke:none;stroke-width:0.00603794;stroke-dasharray:none;stroke-opacity:1" d="m -342.57652,46.311572 c -0.0499,5.03e-4 -0.0997,0.0018 -0.14986,0.0036 -3.14866,0.113358 -5.60964,2.757823 -5.4963,5.906616 0.11336,3.148702 2.75793,5.609671 5.90661,5.496305 1.01283,-0.03648 1.93233,-0.323209 2.73989,-0.815971 0,0 1.22653,0.815971 2.89026,0.815971 2.49034,0 4.35012,-1.56147 4.35012,-3.416845 0,0 0.0721,-2.118484 -2.59105,-3.03134 -0.58412,-0.200266 -1.0868,-0.339462 -1.51361,-0.473356 -1.55736,-0.488506 -2.13475,-0.652293 -2.13475,-1.438155 0,-0.664376 0.8118,-1.233517 1.89187,-1.233517 1.61437,0 2.54145,0.899687 2.54145,0.899687 l 1.24747,-1.317232 c -0.57689,-0.486946 -1.23488,-0.899145 -2.0035,-1.131197 l -5.1e-4,5.16e-4 c -0.44916,-0.150565 -1.03678,-0.2651 -1.78749,-0.2651 -2.13589,0 -3.73879,1.420325 -3.73879,3.046843 0,1.169472 0.50218,2.03679 1.8495,2.520776 0.64984,0.233369 1.22617,0.429616 1.73891,0.593246 0.80238,0.27107 1.41963,0.461272 1.85984,0.675411 0.18663,0.09479 0.34904,0.197165 0.48679,0.313159 0.23288,0.212103 0.34726,0.472183 0.34726,0.840259 0,0.914163 -1.17131,1.604553 -2.54351,1.604553 -1.81594,0 -2.89026,-1.340487 -2.89026,-1.340487 0,0 -0.0554,0.05772 -0.0925,0.09715 -0.0525,0.05586 -0.10485,0.109324 -0.13385,0.138493 -0.66804,0.652782 -1.57157,1.068609 -2.57865,1.104842 -2.14799,0.07736 -3.95243,-1.601093 -4.02973,-3.749125 -0.0774,-2.148043 1.60159,-3.951833 3.74964,-4.029212 0.62543,-0.02259 1.22147,0.103711 1.75442,0.347266 l 0.45579,-1.775086 c -0.65944,-0.257132 -1.37716,-0.395626 -2.12546,-0.38809 z m 52.52445,0.798401 c -2.04059,6.13e-4 -2.09342,1.714107 -2.09342,1.714107 0,0 -0.0818,0.389587 0.23048,0.812871 0.18416,0.252588 0.5082,0.517947 1.07384,0.719852 0.24191,0.08633 0.46365,0.159466 0.66507,0.224276 0.92091,0.296373 1.4215,0.418436 1.53273,0.830957 0.0153,0.05816 0.0233,0.122299 0.0233,0.19327 0,0.434949 -0.35246,0.904338 -1.43092,0.904338 -0.90128,0 -1.42876,-0.533608 -1.57768,-0.709001 l -0.69557,0.733289 c 0.19813,0.20282 0.44713,0.389615 0.61134,0.499194 0.0444,0.02971 0.0697,0.04336 0.18758,0.10387 0.001,6.76e-4 0.003,0.002 0.004,0.0026 0.0476,0.02449 0.1032,0.05135 0.16588,0.0801 0.14285,0.06694 0.28143,0.120551 0.41237,0.162264 0.26524,0.08756 0.57621,0.157613 0.89452,0.157613 0.77781,0 2.15988,-0.161181 2.40606,-1.491899 8.2e-4,-0.0046 0.001,-0.0099 0.002,-0.01447 0.007,-0.03992 0.0136,-0.08041 0.0186,-0.122473 0.004,-0.03048 0.006,-0.06231 0.008,-0.09405 0.001,-0.01691 0.003,-0.03331 0.004,-0.05064 0.003,-0.05201 0.005,-0.105062 0.005,-0.160197 0,0 0.0626,-1.16271 -1.45779,-1.705839 -0.32718,-0.116889 -0.61144,-0.190726 -0.85163,-0.266134 -0.65518,-0.20552 -1.0021,-0.30878 -1.13533,-0.532784 -0.0421,-0.07401 -0.062,-0.161217 -0.062,-0.269234 0,-0.216611 0.17641,-0.697499 1.06298,-0.692981 0.27095,0.0014 0.50915,0.04695 0.70849,0.109037 0.053,0.01593 0.10422,0.03516 0.15503,0.05478 0.0104,0.0043 0.0207,0.0085 0.031,0.01292 0.0231,0.0098 0.0461,0.01998 0.0687,0.03049 0.0215,0.0099 0.043,0.02033 0.0641,0.03101 0.0199,0.0099 0.0393,0.0199 0.0589,0.03049 0.0182,0.0099 0.0364,0.02006 0.0543,0.03049 0.0166,0.0095 0.0332,0.01945 0.0496,0.02945 0.0149,0.0091 0.0298,0.0183 0.0444,0.02791 0.0133,0.0085 0.0262,0.0174 0.0393,0.02635 0.0115,0.0078 0.0233,0.01616 0.0346,0.02429 0.01,0.007 0.0188,0.01396 0.0284,0.02119 0.008,0.006 0.0159,0.01193 0.0238,0.01809 0.0204,0.01602 0.0656,0.05736 0.0656,0.05736 l 0.71727,-0.752409 c -0.26622,-0.224743 -0.57496,-0.408613 -0.91519,-0.540535 -0.26934,-0.124692 -0.66793,-0.239112 -1.23093,-0.239262 h -5.2e-4 z m -37.12229,0.0067 c -1.56003,-0.0104 -2.93702,1.11874 -3.1905,2.706812 -0.27978,1.752275 0.91424,3.399658 2.66651,3.679362 1.48726,0.237409 2.89581,-0.5893 3.45973,-1.915646 l -0.92139,-0.463021 c -0.36669,0.937974 -1.34657,1.527891 -2.38125,1.362708 -1.19329,-0.190407 -2.00649,-1.312358 -1.81591,-2.506307 0.19065,-1.193948 1.31301,-2.007432 2.50631,-1.816943 0.31765,0.05068 0.60693,0.168878 0.85886,0.33538 l 0.40824,-0.947746 c -0.33125,-0.191968 -0.70088,-0.330383 -1.10174,-0.394291 -0.16427,-0.02622 -0.32747,-0.03923 -0.48886,-0.04031 z m 3.91914,0.529167 v 5.59294 h 0.94413 v -1.879989 h 1.24024 l 1.33635,1.880506 h 1.19993 l -1.464,-2.032434 c 0.80542,-0.240023 1.2082,-0.821721 1.2082,-1.744597 0,-0.634719 -0.18399,-1.095819 -0.55191,-1.383894 -0.36825,-0.287911 -0.97913,-0.432015 -1.83244,-0.432015 z m 8.02225,0 -2.46444,5.59294 h 1.0082 l 0.56018,-1.272274 h 2.80034 l 0.56017,1.272274 h 1.00821 l -2.46445,-5.59294 z m 3.34812,0 2.24844,5.59294 h 1.05627 l 2.24844,-5.59294 h -1.05627 l -1.7203,4.176489 -1.72031,-4.176489 z m 7.01094,0 v 5.59294 h 4.02508 v -0.888318 h -3.08095 v -1.496015 h 2.68097 v -0.840258 h -2.68097 v -1.48053 h 2.98483 v -0.887801 z m 5.82135,0 v 5.59294 h 0.94413 v -4.080888 l 3.16828,4.080888 h 1.02423 v -5.59294 h -0.94413 v 4.176507 l -3.24838,-4.176489 z m 12.92428,0 v 5.59294 h 0.94464 v -1.64021 h 0.99167 c 0.82143,0 1.43091,-0.157387 1.82832,-0.472322 0.39733,-0.314525 0.59634,-0.810766 0.59634,-1.488282 0,-0.67735 -0.19458,-1.178768 -0.58394,-1.504301 -0.38944,-0.325121 -1.00844,-0.487825 -1.85674,-0.487825 z m 5.87716,0 v 5.59294 h 4.02456 v -0.888318 h -3.08043 v -1.496015 h 2.68045 v -0.840258 h -2.68045 v -1.480013 h 2.98483 v -0.888318 z m 5.8291,0 v 5.59294 h 4.02456 v -0.888318 h -3.08043 v -1.496015 h 2.68045 v -0.840258 h -2.68045 v -1.480013 h 2.98431 v -0.888318 z m 5.82083,0 v 5.59294 h 1.85674 c 1.0769,0 1.87659,-0.253247 2.39985,-0.76016 0.52243,-0.506756 0.78497,-1.194992 0.78497,-2.064474 0,-0.869319 -0.26988,-1.547877 -0.80874,-2.036051 -0.53886,-0.488014 -1.30985,-0.732255 -2.312,-0.732255 z m -53.7099,0.856278 h 1.19993 c 0.50674,0 0.85939,0.06749 1.05678,0.203605 0.19723,0.135946 0.29559,0.387201 0.29559,0.752409 0,0.365536 -0.0958,0.631145 -0.28784,0.796334 -0.19221,0.165355 -0.55494,0.24753 -1.0883,0.24753 h -1.17616 z m 37.12745,0 h 0.95963 c 0.51208,0 0.88807,0.0796 1.1281,0.239779 0.2401,0.159931 0.3607,0.433539 0.3607,0.820105 0,0.386811 -0.0949,0.68003 -0.28422,0.88005 -0.18935,0.200017 -0.54539,0.30024 -1.06815,0.30024 h -1.09606 z m 17.52658,0.01602 h 0.94465 c 1.46624,0 2.19986,0.640179 2.19986,1.920296 0,0.629461 -0.18023,1.105096 -0.54002,1.42782 -0.35979,0.322764 -0.87881,0.484208 -1.55649,0.484208 h -1.048 z m -47.07206,0.271818 1.01647,2.304252 h -2.03243 z m -27.80399,2.450496 c -0.43117,0 -0.78083,0.349746 -0.78083,0.780831 0,0.431089 0.34966,0.780314 0.78083,0.780314 0.43109,0 0.78032,-0.349225 0.78032,-0.780314 0,-0.431085 -0.34923,-0.780831 -0.78032,-0.780831 z m 0.84233,1.015959 c -0.0251,0.09019 -0.0645,0.175237 -0.11679,0.252698 0.95335,0.420817 2.40275,1.033861 2.49804,1.065568 0.084,0.02801 0.11188,-0.02166 0.11524,-0.02946 0.004,-0.01027 0.0288,-0.07053 -0.0527,-0.109037 -0.0361,-0.0171 -0.95189,-0.455281 -1.76372,-0.849561 z m 54.72741,2.217953 v 2.448429 h 0.30075 v -2.448429 z m -36.83186,0.08371 c -0.14126,0 -0.27189,0.02372 -0.39223,0.0708 -0.12027,0.04708 -0.22474,0.113504 -0.31367,0.198954 -0.089,0.08371 -0.15839,0.18307 -0.20723,0.298173 -0.0489,0.11336 -0.0734,0.238109 -0.0734,0.374138 0,0.13603 0.0243,0.261619 0.0734,0.376721 0.0489,0.11336 0.11821,0.212201 0.20723,0.297656 0.089,0.08371 0.19335,0.149286 0.31367,0.196371 0.12027,0.04708 0.2518,0.0708 0.39481,0.0708 0.14124,0 0.27104,-0.02372 0.38964,-0.0708 0.12027,-0.04708 0.22527,-0.112659 0.31419,-0.196371 0.089,-0.08371 0.15787,-0.182554 0.20671,-0.297656 0.0489,-0.115098 0.0729,-0.240691 0.0729,-0.376721 0,-0.136029 -0.024,-0.260781 -0.0729,-0.374138 -0.0489,-0.115098 -0.11776,-0.214461 -0.20671,-0.298173 -0.089,-0.08546 -0.19386,-0.151866 -0.31419,-0.198954 -0.11866,-0.04708 -0.24919,-0.0708 -0.39222,-0.0708 z m 20.39203,0 c -0.14126,0 -0.27188,0.02372 -0.39222,0.0708 -0.12028,0.04708 -0.22524,0.113504 -0.31419,0.198954 -0.089,0.08371 -0.15788,0.18307 -0.20671,0.298173 -0.0489,0.11336 -0.0729,0.238109 -0.0729,0.374138 0,0.13603 0.024,0.261619 0.0729,0.376721 0.0489,0.11336 0.11778,0.212201 0.20671,0.297656 0.089,0.08371 0.19385,0.149286 0.31419,0.196371 0.12039,0.04708 0.2518,0.0708 0.39481,0.0708 0.14126,0 0.27105,-0.02372 0.38964,-0.0708 0.12027,-0.04708 0.22474,-0.112659 0.31367,-0.196371 0.089,-0.08371 0.15839,-0.182554 0.20723,-0.297656 0.0489,-0.115098 0.0734,-0.240691 0.0734,-0.376721 0,-0.136029 -0.0243,-0.260781 -0.0734,-0.374138 -0.0489,-0.115098 -0.11822,-0.214461 -0.20723,-0.298173 -0.089,-0.08546 -0.19335,-0.151866 -0.31367,-0.198954 -0.11854,-0.04708 -0.24922,-0.0708 -0.39223,-0.0708 z m 7.7432,0 c -0.14298,0 -0.27498,0.02372 -0.39532,0.0708 -0.12027,0.04534 -0.22558,0.110394 -0.31626,0.195854 -0.089,0.08371 -0.15736,0.183589 -0.20619,0.29869 -0.0489,0.115097 -0.0734,0.240692 -0.0734,0.376721 0,0.13603 0.0245,0.261619 0.0734,0.376721 0.0489,0.115098 0.11727,0.215303 0.20619,0.300757 0.089,0.08371 0.19301,0.149283 0.3116,0.19637 0.1204,0.04534 0.25181,0.0677 0.39481,0.0677 0.12906,0 0.25634,-0.019 0.38189,-0.05736 0.12732,-0.0401 0.23893,-0.09897 0.33486,-0.1757 v -0.729155 h -0.32194 v 0.567924 c -0.0374,0.02176 -0.076,0.04065 -0.11524,0.05426 -0.0838,0.02791 -0.17027,0.04186 -0.26096,0.04186 -0.0977,0 -0.18643,-0.01563 -0.26665,-0.04702 -0.0803,-0.03139 -0.15001,-0.07577 -0.20929,-0.133325 -0.0592,-0.05931 -0.10586,-0.128742 -0.13901,-0.207223 -0.0314,-0.07848 -0.0476,-0.163367 -0.0476,-0.255798 0,-0.09417 0.0161,-0.180421 0.0476,-0.258899 0.0331,-0.0785 0.0796,-0.146571 0.13901,-0.204122 0.0592,-0.05756 0.12939,-0.101919 0.21135,-0.133325 0.082,-0.03138 0.17074,-0.04754 0.26665,-0.04754 0.0994,0 0.18985,0.01785 0.27182,0.05271 0.0838,0.03313 0.16156,0.08508 0.23306,0.15658 l 0.21446,-0.20929 c -0.0855,-0.09766 -0.1907,-0.171633 -0.31626,-0.222208 -0.12375,-0.05058 -0.26335,-0.07596 -0.41858,-0.07596 z m 2.63756,0 c -0.14124,0 -0.27135,0.02372 -0.3917,0.0708 -0.12027,0.04708 -0.22526,0.113504 -0.3142,0.198954 -0.089,0.08371 -0.15788,0.18307 -0.2067,0.298173 -0.0489,0.11336 -0.0734,0.238109 -0.0734,0.374138 0,0.13603 0.0245,0.261619 0.0734,0.376721 0.0489,0.11336 0.11778,0.212201 0.2067,0.297656 0.089,0.08371 0.19386,0.149286 0.3142,0.196371 0.1204,0.04708 0.25181,0.0708 0.39481,0.0708 0.14129,0 0.27104,-0.02372 0.38964,-0.0708 0.12028,-0.04708 0.22472,-0.112659 0.31367,-0.196371 0.089,-0.08371 0.1584,-0.182554 0.20722,-0.297656 0.0489,-0.115098 0.0729,-0.240691 0.0729,-0.376721 0,-0.136029 -0.024,-0.260781 -0.0729,-0.374138 -0.0489,-0.115098 -0.11824,-0.214461 -0.20722,-0.298173 -0.089,-0.08546 -0.19336,-0.151866 -0.31367,-0.198954 -0.11866,-0.04708 -0.24973,-0.0708 -0.39275,-0.0708 z m 11.81944,0 c -0.16744,0 -0.30614,0.02538 -0.416,0.07596 -0.10811,0.04883 -0.18984,0.114725 -0.24391,0.198437 -0.0524,0.08197 -0.078,0.173448 -0.078,0.272852 0,0.09766 0.0205,0.177512 0.0605,0.240295 0.0401,0.06278 0.0912,0.113045 0.154,0.151412 0.0645,0.03662 0.13513,0.06706 0.21187,0.09147 0.0786,0.02268 0.15633,0.04303 0.23306,0.06046 0.0784,0.01744 0.14858,0.03644 0.21136,0.05736 0.0644,0.01919 0.11752,0.04676 0.15761,0.08165 0.0401,0.03313 0.0594,0.077 0.0594,0.132809 0,0.04534 -0.0135,0.08636 -0.0413,0.12299 -0.0279,0.03488 -0.0719,0.06331 -0.13126,0.08423 -0.0592,0.02093 -0.13664,0.03101 -0.23255,0.03101 -0.11333,0 -0.22362,-0.01901 -0.33176,-0.05736 -0.10823,-0.03838 -0.19961,-0.08664 -0.27285,-0.144177 l -0.11731,0.264584 c 0.0767,0.06453 0.1803,0.117825 0.3111,0.15968 0.1308,0.0401 0.26781,0.05994 0.41082,0.05994 0.16743,0 0.30614,-0.02456 0.416,-0.07338 0.10985,-0.05058 0.19107,-0.116477 0.2434,-0.198438 0.0541,-0.08371 0.0811,-0.174674 0.0811,-0.272334 0,-0.09591 -0.0204,-0.174929 -0.0605,-0.237712 -0.0384,-0.06278 -0.09,-0.112725 -0.15452,-0.149345 -0.0627,-0.03663 -0.1334,-0.06619 -0.21187,-0.08888 -0.0767,-0.02268 -0.15407,-0.04303 -0.23254,-0.06046 -0.0786,-0.01919 -0.14991,-0.03818 -0.21446,-0.05736 -0.0627,-0.01919 -0.1144,-0.04542 -0.15451,-0.07855 -0.0384,-0.03488 -0.0574,-0.08011 -0.0574,-0.135909 0,-0.04708 0.0133,-0.08895 0.0393,-0.125574 0.0279,-0.03663 0.0706,-0.06619 0.12816,-0.08888 0.0592,-0.02268 0.13577,-0.03411 0.22996,-0.03411 0.0803,0 0.16394,0.0123 0.25115,0.03669 0.0874,0.02268 0.17176,0.05814 0.25373,0.10697 l 0.10748,-0.264067 c -0.0803,-0.05232 -0.17456,-0.09199 -0.28267,-0.119889 -0.10823,-0.0279 -0.2167,-0.04237 -0.32659,-0.04237 z m 6.81147,0 c -0.14998,0 -0.28616,0.02705 -0.40824,0.08113 -0.12028,0.05232 -0.21635,0.126293 -0.28784,0.222209 l 0.23823,0.183451 c 0.0524,-0.06453 0.11399,-0.112272 0.18551,-0.14366 0.0732,-0.03139 0.155,-0.04754 0.24392,-0.04754 0.11159,0 0.19567,0.02371 0.25321,0.0708 0.0575,0.04534 0.0863,0.110075 0.0863,0.193787 0,0.03313 -0.004,0.06861 -0.0155,0.10697 -0.009,0.03662 -0.0278,0.0768 -0.0574,0.120406 -0.0297,0.0436 -0.075,0.09386 -0.13591,0.151412 l -0.72761,0.690914 v 0.227893 h 1.34979 v -0.287819 h -0.86403 l 0.4899,-0.466121 c 0.0838,-0.08023 0.14762,-0.152514 0.1912,-0.217041 0.0434,-0.06453 0.0733,-0.125383 0.0889,-0.182935 0.0158,-0.0593 0.0233,-0.118478 0.0233,-0.177767 0,-0.108121 -0.027,-0.201607 -0.0811,-0.280086 -0.0524,-0.07848 -0.12798,-0.139012 -0.22737,-0.180867 -0.0977,-0.0436 -0.21267,-0.06511 -0.3452,-0.06511 z m 2.30787,0 c -0.14475,0 -0.27487,0.03683 -0.39171,0.110071 -0.11506,0.07326 -0.20658,0.180684 -0.27285,0.321944 -0.0663,0.139518 -0.0992,0.30949 -0.0992,0.510047 0,0.200554 0.0329,0.37137 0.0992,0.51263 0.0663,0.139518 0.15774,0.245597 0.27285,0.318844 0.1168,0.07326 0.24696,0.11007 0.39171,0.11007 0.1465,0 0.27763,-0.03682 0.39274,-0.11007 0.11506,-0.07326 0.20556,-0.179326 0.27182,-0.318844 0.068,-0.14126 0.10232,-0.312076 0.10232,-0.51263 0,-0.200557 -0.0343,-0.370529 -0.10232,-0.510047 -0.0663,-0.14126 -0.15672,-0.248696 -0.27182,-0.321944 -0.11506,-0.07326 -0.24624,-0.110071 -0.39274,-0.110071 z m 2.38435,0 c -0.14475,0 -0.27541,0.03683 -0.39222,0.110071 -0.11506,0.07326 -0.20606,0.180684 -0.27234,0.321944 -0.0663,0.139518 -0.0992,0.30949 -0.0992,0.510047 0,0.200554 0.0329,0.37137 0.0992,0.51263 0.0663,0.139518 0.15723,0.245597 0.27234,0.318844 0.11679,0.07326 0.24747,0.11007 0.39222,0.11007 0.1465,0 0.27712,-0.03682 0.39222,-0.11007 0.11506,-0.07326 0.20608,-0.179326 0.27234,-0.318844 0.068,-0.14126 0.1018,-0.312076 0.1018,-0.51263 0,-0.200557 -0.0338,-0.370529 -0.1018,-0.510047 -0.0663,-0.14126 -0.15724,-0.248696 -0.27234,-0.321944 -0.11506,-0.07326 -0.24572,-0.110071 -0.39222,-0.110071 z m -57.47453,0.02635 v 1.831413 h 0.34055 v -0.52865 h 0.41341 c 0.16217,0 0.30037,-0.02623 0.41548,-0.07855 0.1168,-0.05232 0.20697,-0.127646 0.26975,-0.225309 0.0627,-0.09766 0.0946,-0.213499 0.0946,-0.347783 0,-0.134285 -0.0319,-0.250119 -0.0946,-0.347782 -0.0627,-0.09766 -0.15292,-0.172473 -0.26975,-0.224792 -0.11506,-0.05232 -0.25331,-0.07855 -0.41548,-0.07855 z m 5.34955,0 v 1.831413 h 0.34003 V 55.88202 h 0.41289 c 0.0248,0 0.045,-0.0046 0.0687,-0.0057 l 0.37621,0.539502 h 0.36638 l -0.4222,-0.60203 c 0.009,-0.0034 0.0192,-0.0044 0.0274,-0.0078 0.1168,-0.05232 0.20594,-0.126293 0.26872,-0.222208 0.0627,-0.09766 0.0946,-0.214015 0.0946,-0.3483 0,-0.134284 -0.0319,-0.250121 -0.0946,-0.347782 -0.0627,-0.09766 -0.15187,-0.172475 -0.26872,-0.224792 -0.11506,-0.05232 -0.25432,-0.07855 -0.41651,-0.07855 z m 2.27376,0 v 0.287838 h 0.6072 v 1.543575 h 0.34003 v -1.543575 h 0.6072 v -0.287838 z m 2.43344,0 v 1.831413 h 1.2976 v -0.28781 h -0.95705 v -1.543575 z m 2.75952,0 -0.82424,1.831413 h 0.35037 l 0.18087,-0.423747 h 0.91622 l 0.18242,0.423747 h 0.35553 l -0.82682,-1.831413 z m 2.01693,0 v 1.831413 h 0.33797 v -1.240234 l 1.00976,1.240234 h 0.28008 v -1.831413 h -0.33745 v 1.240235 l -1.00975,-1.240235 z m 2.74299,0 v 1.831413 h 0.80047 c 0.19881,0 0.37299,-0.0385 0.52296,-0.115238 0.14998,-0.07672 0.26665,-0.183331 0.35037,-0.319361 0.0838,-0.137772 0.12609,-0.29799 0.12609,-0.481107 0,-0.18486 -0.0424,-0.345078 -0.12609,-0.481108 -0.0838,-0.136028 -0.20039,-0.242627 -0.35037,-0.31936 -0.14997,-0.07672 -0.32415,-0.115239 -0.52296,-0.115239 z m 8.16539,0 v 1.831413 h 0.34003 V 55.88202 h 0.4129 c 0.0248,0 0.0451,-0.0046 0.0687,-0.0057 l 0.3762,0.539502 h 0.36639 l -0.4222,-0.60203 c 0.009,-0.0034 0.0193,-0.0044 0.0274,-0.0078 0.1168,-0.05232 0.20595,-0.126293 0.26872,-0.222208 0.0627,-0.09766 0.0946,-0.214015 0.0946,-0.3483 0,-0.134284 -0.0319,-0.250121 -0.0946,-0.347782 -0.0627,-0.09766 -0.15187,-0.172475 -0.26872,-0.224792 -0.11506,-0.05232 -0.25432,-0.07855 -0.41651,-0.07855 z m 2.53576,0 v 1.831413 h 1.37305 v -0.285254 h -1.03301 v -0.504879 h 0.88418 v -0.279569 h -0.88418 v -0.476457 h 0.99632 v -0.284737 z m 7.84552,0 v 1.831413 h 0.33693 v -1.240234 l 1.00976,1.240234 h 0.28008 v -1.831413 h -0.33744 v 1.240235 l -1.00976,-1.240235 z m 6.84868,0 v 1.831413 h 1.37407 v -0.285254 h -1.03352 v -0.504879 h 0.88366 v -0.279569 h -0.88366 v -0.476457 h 0.99683 v -0.284737 z m 4.38371,0 v 0.287838 h 0.60668 v 1.543575 h 0.34003 v -1.543575 h 0.6072 v -0.287838 z m 11.88816,0 -0.094,0.996839 h 0.44235 c 0.12555,0 0.2241,0.01143 0.29559,0.03411 0.0734,0.02268 0.12353,0.05562 0.15141,0.09922 0.0297,0.0436 0.045,0.09385 0.045,0.151412 0,0.08546 -0.035,0.153546 -0.1049,0.204122 -0.068,0.05058 -0.16182,0.07596 -0.28215,0.07596 -0.1029,0 -0.20224,-0.01647 -0.29818,-0.04961 -0.0942,-0.03313 -0.17456,-0.0772 -0.24081,-0.131258 l -0.14418,0.264583 c 0.0838,0.06628 0.18694,0.11873 0.30903,0.157096 0.12387,0.03662 0.25026,0.05478 0.3793,0.05478 0.16394,0 0.29928,-0.02705 0.40566,-0.08113 0.10811,-0.05406 0.18797,-0.125515 0.2403,-0.214457 0.0524,-0.08893 0.0786,-0.186623 0.0786,-0.293005 0,-0.108134 -0.0263,-0.204128 -0.0786,-0.287838 -0.0505,-0.08546 -0.13177,-0.151867 -0.2434,-0.198954 -0.10984,-0.04883 -0.25528,-0.07338 -0.43666,-0.07338 h -0.1757 l 0.0398,-0.423746 h 0.78703 V 54.58443 Z m -4.15323,0.269235 c 0.0855,0 0.15943,0.02373 0.22221,0.0708 0.0627,0.04534 0.1119,0.115956 0.14676,0.211874 0.0366,0.09417 0.0548,0.215565 0.0548,0.363802 0,0.146493 -0.0183,0.267366 -0.0548,0.363285 -0.0349,0.09591 -0.0839,0.167886 -0.14676,0.214974 -0.0627,0.04534 -0.13676,0.0677 -0.22221,0.0677 -0.082,0 -0.15459,-0.02237 -0.21911,-0.0677 -0.0627,-0.04708 -0.11319,-0.119061 -0.14986,-0.214974 -0.0349,-0.09592 -0.0517,-0.216792 -0.0517,-0.363285 0,-0.148237 0.0169,-0.269628 0.0517,-0.363802 0.0366,-0.09591 0.0872,-0.16653 0.14986,-0.211874 0.0644,-0.04708 0.13714,-0.0708 0.21911,-0.0708 z m 2.38435,0 c 0.0855,0 0.15944,0.02373 0.22221,0.0708 0.0627,0.04534 0.11192,0.115956 0.14676,0.211874 0.0366,0.09417 0.0543,0.215565 0.0543,0.363802 0,0.146493 -0.0178,0.267366 -0.0543,0.363285 -0.0349,0.09591 -0.0839,0.167886 -0.14676,0.214974 -0.0627,0.04534 -0.13674,0.0677 -0.22221,0.0677 -0.0821,0 -0.1551,-0.02237 -0.21963,-0.0677 -0.0627,-0.04708 -0.11269,-0.119061 -0.14934,-0.214974 -0.0349,-0.09592 -0.0522,-0.216792 -0.0522,-0.363285 0,-0.148237 0.0173,-0.269628 0.0522,-0.363802 0.0366,-0.09591 0.0867,-0.16653 0.14934,-0.211874 0.0645,-0.04708 0.13766,-0.0708 0.21963,-0.0708 z m -54.09592,0.0026 c 0.0926,0 0.17784,0.01614 0.25631,0.04754 0.0784,0.03139 0.14659,0.07661 0.20412,0.135909 0.0575,0.05754 0.10196,0.125126 0.13333,0.203605 0.0331,0.07673 0.0496,0.162656 0.0496,0.256832 0,0.09417 -0.0164,0.180422 -0.0496,0.258899 -0.0315,0.07673 -0.0757,0.144826 -0.13333,0.204122 -0.0573,0.05755 -0.12565,0.101932 -0.20412,0.133325 -0.0786,0.03139 -0.16388,0.04754 -0.25631,0.04754 -0.0925,0 -0.17784,-0.01614 -0.25632,-0.04754 -0.0786,-0.03139 -0.14708,-0.07577 -0.20464,-0.133325 -0.0573,-0.05931 -0.10273,-0.128227 -0.13591,-0.206706 -0.0315,-0.07848 -0.0465,-0.163885 -0.0465,-0.256315 0,-0.09417 0.0151,-0.180097 0.0465,-0.256832 0.0331,-0.07848 0.0783,-0.146055 0.13591,-0.203605 0.0592,-0.0593 0.12791,-0.104525 0.20464,-0.135909 0.0786,-0.03138 0.16391,-0.04754 0.25632,-0.04754 z m 20.39203,0 c 0.0926,0 0.17784,0.01614 0.25632,0.04754 0.0786,0.03139 0.14658,0.07661 0.20412,0.135909 0.0573,0.05754 0.10196,0.125126 0.13333,0.203605 0.0331,0.07673 0.0496,0.162656 0.0496,0.256832 0,0.09417 -0.0164,0.180422 -0.0496,0.258899 -0.0315,0.07673 -0.0757,0.144826 -0.13333,0.204122 -0.0575,0.05755 -0.12563,0.101932 -0.20412,0.133325 -0.0784,0.03139 -0.16389,0.04754 -0.25632,0.04754 -0.0925,0 -0.17783,-0.01614 -0.25631,-0.04754 -0.0784,-0.03139 -0.14656,-0.07577 -0.20412,-0.133325 -0.0573,-0.05931 -0.10286,-0.128227 -0.13591,-0.206706 -0.0315,-0.07848 -0.047,-0.163885 -0.047,-0.256315 0,-0.09417 0.0156,-0.180097 0.047,-0.256832 0.0331,-0.07848 0.0783,-0.146055 0.13591,-0.203605 0.0592,-0.0593 0.12737,-0.104525 0.20412,-0.135909 0.0786,-0.03138 0.16389,-0.04754 0.25631,-0.04754 z m 10.38076,0 c 0.0926,0 0.17836,0.01614 0.25684,0.04754 0.0786,0.03139 0.14605,0.07661 0.2036,0.135909 0.0575,0.05754 0.10241,0.125126 0.13384,0.203605 0.0333,0.07673 0.0496,0.162656 0.0496,0.256832 0,0.09417 -0.0164,0.180422 -0.0496,0.258899 -0.0314,0.07673 -0.0762,0.144826 -0.13384,0.204122 -0.0573,0.05755 -0.12513,0.101932 -0.2036,0.133325 -0.0784,0.03139 -0.16439,0.04754 -0.25684,0.04754 -0.0925,0 -0.17732,-0.01614 -0.25579,-0.04754 -0.0784,-0.03139 -0.14708,-0.07577 -0.20464,-0.133325 -0.0573,-0.05931 -0.10275,-0.128227 -0.13591,-0.206706 -0.0315,-0.07848 -0.047,-0.163885 -0.047,-0.256315 0,-0.09417 0.0156,-0.180097 0.047,-0.256832 0.0331,-0.07848 0.0783,-0.146055 0.13591,-0.203605 0.0592,-0.0593 0.12789,-0.104525 0.20464,-0.135909 0.0784,-0.03138 0.16338,-0.04754 0.25579,-0.04754 z m -33.81085,0.01602 h 0.39739 c 0.14997,0 0.26245,0.03127 0.33745,0.09405 0.0767,0.06278 0.11524,0.152389 0.11524,0.269234 0,0.115098 -0.0386,0.205224 -0.11524,0.269751 -0.0751,0.06278 -0.18748,0.09405 -0.33745,0.09405 h -0.39739 z m 5.34903,0 h 0.39739 c 0.14998,0 0.26244,0.03127 0.33745,0.09405 0.0767,0.06278 0.11523,0.152389 0.11523,0.269234 0,0.115098 -0.0385,0.205224 -0.11523,0.269751 -0.0751,0.06453 -0.18747,0.09715 -0.33745,0.09715 h -0.39739 z m 12.22664,0 h 0.44493 c 0.13778,0 0.25614,0.02623 0.35554,0.07855 0.10128,0.05232 0.17848,0.125451 0.23254,0.219625 0.0557,0.09242 0.0842,0.202389 0.0842,0.329696 0,0.125567 -0.0285,0.235521 -0.0842,0.329695 -0.0541,0.09417 -0.13138,0.167305 -0.23254,0.219625 -0.0994,0.05232 -0.21776,0.07855 -0.35554,0.07855 h -0.44493 z m 8.16539,0 h 0.3974 c 0.14997,0 0.26247,0.03127 0.33744,0.09405 0.0767,0.06278 0.11524,0.152389 0.11524,0.269234 0,0.115098 -0.0386,0.205224 -0.11524,0.269751 -0.0751,0.06453 -0.18747,0.09715 -0.33744,0.09715 h -0.3974 z m -13.10049,0.05116 0.34365,0.802018 h -0.68678 z m 7.40265,1.07642 c -0.0592,0 -0.10951,0.01981 -0.15141,0.05994 -0.0401,0.03837 -0.0605,0.0903 -0.0605,0.156579 0,0.06453 0.0204,0.116661 0.0605,0.155029 0.0191,0.01672 0.0405,0.02864 0.0636,0.03772 l -0.10542,0.401526 h 0.21136 l 0.13384,-0.36897 c 0.0174,-0.0401 0.0298,-0.07307 0.0367,-0.09922 0.009,-0.02615 0.0145,-0.04905 0.0181,-0.06821 0.002,-0.02093 0.006,-0.04045 0.006,-0.05788 0,-0.06453 -0.0204,-0.116464 -0.0605,-0.156579 -0.0401,-0.0401 -0.0909,-0.05994 -0.15193,-0.05994 z m 29.39355,0 c -0.0592,0 -0.11001,0.01981 -0.15192,0.05994 -0.0418,0.03837 -0.0625,0.0903 -0.0625,0.156579 0,0.06278 0.0205,0.115753 0.0625,0.157613 0.0418,0.0401 0.0927,0.05994 0.15192,0.05994 0.0592,0 0.11003,-0.01982 0.15193,-0.05994 0.0418,-0.04185 0.0625,-0.09484 0.0625,-0.157613 0,-0.06628 -0.0205,-0.118212 -0.0625,-0.156579 -0.0418,-0.0401 -0.0927,-0.05994 -0.15193,-0.05994 z"/>
      <path d="m -339.57604,54.565365 c 0,0 0.49648,0.670011 1.46454,1.066772 0.0974,-0.11827 0.19049,-0.23953 0.27797,-0.36438 l -0.41441,-0.28093 c -0.0216,-0.0147 -0.0273,-0.04412 -0.0126,-0.06571 0.0147,-0.02153 0.0443,-0.02711 0.0657,-0.01264 l 0.41466,0.281087 c 0.11369,-0.167819 0.2185,-0.341216 0.31346,-0.520617 l -0.71547,-0.360692 c -0.0397,-0.01989 -0.0556,-0.06834 -0.0356,-0.108035 0.02,-0.0395 0.0683,-0.05583 0.10802,-0.03555 l 0.71637,0.361111 c 0.0821,-0.166603 0.15558,-0.338201 0.22089,-0.514489 l -0.47586,-0.171926 c -0.0246,-0.009 -0.0374,-0.03607 -0.0285,-0.06061 0.009,-0.02448 0.0361,-0.03696 0.0606,-0.02849 l 0.47626,0.17209 c 0.0587,-0.1674 0.10983,-0.339006 0.15279,-0.514974 8e-5,-3.26e-4 1.7e-4,-5.82e-4 2.4e-4,-7.91e-4 l -1.73069,-0.561549 v 0 c -0.21472,1.044873 -0.85839,1.720346 -0.85839,1.720346" style="fill:#c12a23;fill-opacity:1;fill-rule:nonzero;stroke:none;stroke-width:0.00821435" id="path437-4"/>
    </g>
  </g>
</svg>