<svg id="logo-footer" xmlns="http://www.w3.org/2000/svg" width="546.56" height="65.679" viewBox="0 0 546.56 65.679">
  <path id="Path_888" data-name="Path 888" d="M59.648,132.422A32.84,32.84,0,1,1,92.481,99.581a32.825,32.825,0,0,1-32.833,32.841m0-64.136A31.292,31.292,0,1,0,90.936,99.581,31.293,31.293,0,0,0,59.648,68.286m27.823,40.658c-.012.028-.067.07-.17.032-.075-.028-.1-.067-.092-.113a25.076,25.076,0,0,0,1.089-7c-.009-4.01-1.638-6.467-3.727-6.467a2.125,2.125,0,0,0-2.183,2.276c0,2.456,3,2.641,3,8.01a21.234,21.234,0,0,1-1.179,6.546c-3.368,11.369-14.1,16.648-24.56,16.648a26.013,26.013,0,0,1-9.272-1.451.154.154,0,0,1-.044-.185c.023-.057.094-.1.134-.088a22.721,22.721,0,0,0,6.994,1.086c4,0,6.368-1.64,6.368-3.636a2.248,2.248,0,0,0-2.272-2.274c-2.462,0-2.642,3.088-7.919,3.088A21.793,21.793,0,0,1,47,124.235c-11.285-3.46-16.658-14.1-16.648-24.654a30.308,30.308,0,0,1,1.468-9.272c.013-.032.08-.059.16-.032s.1.1.1.122a23.942,23.942,0,0,0-1.088,7c0,4.007,1.636,6.369,3.733,6.369a2.153,2.153,0,0,0,2.179-2.181c0-2.458-3.006-2.733-3.006-8.012a21.7,21.7,0,0,1,1.19-6.64c3.452-11.278,14.1-16.565,24.562-16.643a27.553,27.553,0,0,1,9.274,1.542.143.143,0,0,1,.029.163c-.034.088-.09.1-.122.1a20.168,20.168,0,0,0-7-1.164c-3.913,0-6.371,1.638-6.371,3.733a2.178,2.178,0,0,0,2.277,2.178c2.456,0,2.638-3,7.913-3a21.69,21.69,0,0,1,6.635,1.183c11.376,3.461,16.551,14.194,16.652,24.563a28.519,28.519,0,0,1-1.464,9.363M71.83,101.133a5.214,5.214,0,0,0-5.456,5c0,2.277,1.365,4.093,3.183,4.093a1.165,1.165,0,0,0,1.275-1.179c0-1.185-1.564-1.47-1.449-3.242a2.223,2.223,0,0,1,2.267-1.948c2.185,0,3.2,2.118,3.2,4.3a5.593,5.593,0,0,1-5.477,5.708c-3.824,0-6.277-3.64-6.277-7.553,0-5.822,3.823-8.1,5.822-8.643.021,0,5.232.934,5.071-1.367-.078-1.013-1.575-1.4-2.666-1.441a7.293,7.293,0,0,0-2.424.388,2.974,2.974,0,0,1-1.342-1.676c3.724-2.823,6.362-5.549,6.362-8.64a2.979,2.979,0,0,0-3.181-3.094c-3.733,0-6.547,4.732-6.547,9.006a7.864,7.864,0,0,0,.18,2.09,85.726,85.726,0,0,1-7.309,4.715,16,16,0,0,1,.353-2.756c1.088-1.185,2.59-2.961,2.59-4.324a1.073,1.073,0,0,0-1.095-1.183c-1.814,0-3.184,2.731-3.544,4.639-.82,1.007-2.46,2.278-3.819,2.278A1.654,1.654,0,0,1,50,94.941c3.458-1.182,7.736-5.914,7.736-10.192a2.76,2.76,0,0,0-3.093-2.909c-4.094,0-7.552,6.093-7.552,10.824-1.456,0-2-1.546-2-2.731a18.075,18.075,0,0,1,.453-2.726.737.737,0,0,0-.734-.818c-1.361,0-2.179,1.814-2.179,3.909a4.771,4.771,0,0,0,4.549,4.916A4.162,4.162,0,0,0,51,98.581a5.578,5.578,0,0,0,3.639-1.273c-.092.633-.183,1.182-.275,1.728-4,2.1-6.912,3.552-9.555,5.914a9.479,9.479,0,0,0-3.271,6.458,5,5,0,0,0,5.276,5.277c4.186,0,7.372-3.368,8.913-8.007a35.844,35.844,0,0,0,1.2-8.271,82.306,82.306,0,0,0,8.349-5.285,3.6,3.6,0,0,0,.91,1.092,11.358,11.358,0,0,0-6.459,10.463c0,4.731,3.185,10.008,9.46,10.008a8.663,8.663,0,0,0,8.737-8.368c0-3.728-2.1-7.184-6.1-7.184M46.817,113.866a2.069,2.069,0,0,1-2.271-2.265c0-3.913,5.421-7.641,9.513-9.646-.724,5.458-2.569,11.7-7.242,11.911m3-21.475c0-3,2.962-8.705,4.78-8.1,2.133.713-1.779,6.463-4.78,8.1m17.191-1.363c0-3.733,2.531-7.357,3.9-6.669,1.575.787-1.17,4.3-3.9,6.669" transform="translate(-26.806 -66.743)" fill="#fff" opacity="0.98"/>
  <path id="Path_889" data-name="Path 889" d="M109.263,99.617v-.036a6.245,6.245,0,0,1,6.476-6.254,7.017,7.017,0,0,1,4.884,1.753l-1.958,2.353a4.254,4.254,0,0,0-2.9-1.137,3.161,3.161,0,0,0-3.076,3.3v.035a3.177,3.177,0,0,0,3.265,3.333,3.4,3.4,0,0,0,1.925-.5v-1.464H115.5V98.566h5.53v5.415a8.132,8.132,0,0,1-5.224,1.858c-3.747,0-6.547-2.575-6.547-6.222" transform="translate(-26.806 -66.743)" fill="#fff" opacity="0.98"/>
  <path id="Path_890" data-name="Path 890" d="M124.6,93.566h9.676V96.4H127.9v1.823h5.771v2.628H127.9v1.908h6.461V105.6H124.6Z" transform="translate(-26.806 -66.743)" fill="#fff" opacity="0.98"/>
  <path id="Path_891" data-name="Path 891" d="M148.416,93.478h3.218l5.119,12.12H153.18l-.877-2.148h-4.639L146.8,105.6H143.3Zm2.924,7.376L150,97.433l-1.357,3.421Z" transform="translate(-26.806 -66.743)" fill="#fff" opacity="0.98"/>
  <path id="Path_892" data-name="Path 892" d="M159.635,93.566h5.159c3.043,0,5,1.564,5,4.226v.036c0,2.839-2.184,4.333-5.174,4.333h-1.651V105.6h-3.334Zm4.916,5.981c1.187,0,1.908-.618,1.908-1.564v-.034c0-1.032-.721-1.584-1.925-1.584h-1.565v3.182Z" transform="translate(-26.806 -66.743)" fill="#fff" opacity="0.98"/>
  <path id="Path_893" data-name="Path 893" d="M172.916,93.566h5.155c3.043,0,5,1.564,5,4.226v.036c0,2.839-2.185,4.333-5.174,4.333h-1.65V105.6h-3.335Zm4.916,5.981c1.185,0,1.9-.618,1.9-1.564v-.034c0-1.032-.719-1.584-1.921-1.584h-1.564v3.182Z" transform="translate(-26.806 -66.743)" fill="#fff" opacity="0.98"/>
  <path id="Path_894" data-name="Path 894" d="M186.2,93.566h3.335v9.111h5.826V105.6H186.2Z" transform="translate(-26.806 -66.743)" fill="#fff" opacity="0.98"/>
  <rect id="Rectangle_752" data-name="Rectangle 752" width="3.349" height="12.03" transform="translate(171.761 26.822)" fill="#fff" opacity="0.98"/>
  <path id="Path_895" data-name="Path 895" d="M209.99,93.478H213.2l5.124,12.12h-3.572l-.879-2.148h-4.641l-.859,2.148h-3.507Zm2.924,7.376-1.34-3.421-1.359,3.421Z" transform="translate(-26.806 -66.743)" fill="#fff" opacity="0.98"/>
  <path id="Path_896" data-name="Path 896" d="M221.208,93.566h3.112l4.949,6.361V93.566h3.3V105.6h-2.923L224.509,99v6.6h-3.3Z" transform="translate(-26.806 -66.743)" fill="#fff" opacity="0.98"/>
  <path id="Path_897" data-name="Path 897" d="M236,99.617v-.036a6.179,6.179,0,0,1,6.342-6.254,5.886,5.886,0,0,1,5.1,2.508l-2.51,1.94a3.226,3.226,0,0,0-2.632-1.408,2.976,2.976,0,0,0-2.869,3.18v.034a2.98,2.98,0,0,0,2.869,3.217,3.288,3.288,0,0,0,2.718-1.462l2.51,1.787A6.333,6.333,0,0,1,236,99.617" transform="translate(-26.806 -66.743)" fill="#fff" opacity="0.98"/>
  <path id="Path_898" data-name="Path 898" d="M250.672,93.566h9.676V96.4h-6.375v1.823h5.771v2.628h-5.771v1.908h6.461V105.6h-9.762Z" transform="translate(-26.806 -66.743)" fill="#fff" opacity="0.98"/>
  <path id="Path_899" data-name="Path 899" d="M262.94,103.809l1.858-2.215a6.187,6.187,0,0,0,3.9,1.441c.891,0,1.378-.308,1.378-.822v-.036c0-.5-.4-.774-2.03-1.153-2.563-.583-4.539-1.307-4.539-3.779v-.034c0-2.238,1.77-3.851,4.656-3.851a7.571,7.571,0,0,1,4.954,1.6l-1.67,2.354a6.029,6.029,0,0,0-3.368-1.184c-.807,0-1.2.34-1.2.773v.035c0,.55.416.791,2.081,1.169,2.766.6,4.484,1.493,4.484,3.747v.032c0,2.458-1.938,3.917-4.862,3.917a8.383,8.383,0,0,1-5.637-1.992" transform="translate(-26.806 -66.743)" fill="#fff" opacity="0.98"/>
  <path id="Path_900" data-name="Path 900" d="M109.207,119.527c0-2.112,1.954-4.742,4.009-4.742a2.072,2.072,0,0,1,1.716.952l.292-.782h1.2L115.172,121c-.087.415-.07.795.374.795.475,0,1.087-.638,1.612-1.749l.358.191c-.611,1.4-1.444,2.147-2.208,2.147-.935,0-1.511-.537-1.412-1.837h-.065c-.256.472-.918,1.837-2.364,1.837C110.161,122.383,109.207,121.209,109.207,119.527Zm5.354-2.649c0-1.193-.459-1.577-1.123-1.577-1.408,0-2.769,2.873-2.769,5.245,0,.711.256,1.248.984,1.248C113.591,121.794,114.561,118.386,114.561,116.878Z" transform="translate(-26.806 -66.743)" fill="#fff" opacity="0.98"/>
  <path id="Path_901" data-name="Path 901" d="M165.461,119.483c0-2.477,2.261-4.709,4.3-4.709a1.564,1.564,0,0,1,1.768,1.521,1.32,1.32,0,0,1-1.175,1.439.668.668,0,0,1-.711-.661c0-.482.8-1.229.85-1.537.031-.225-.05-.348-.376-.348-1.853,0-3.191,2.944-3.191,5.314,0,.887.423,1.264,1.239,1.264a3.783,3.783,0,0,0,2.615-1.591l.325.228a4.156,4.156,0,0,1-3.194,1.986A2.677,2.677,0,0,1,165.461,119.483Z" transform="translate(-26.806 -66.743)" fill="#fff" opacity="0.98"/>
  <path id="Path_902" data-name="Path 902" d="M172.035,119.187c0-2.542,2.209-4.446,3.826-4.446a2.988,2.988,0,0,1,2.923,3.234,4.535,4.535,0,0,1-3.909,4.381A2.884,2.884,0,0,1,172.035,119.187Zm5.285-2.2c0-1.195-.406-1.818-1.344-1.818-1.254,0-2.479,2.441-2.479,4.918,0,1.174.376,1.835,1.326,1.835C175.928,121.924,177.32,119.776,177.32,116.989Z" transform="translate(-26.806 -66.743)" fill="#fff" opacity="0.98"/>
  <path id="Path_903" data-name="Path 903" d="M188.142,120.261l.9-4c.119-.553.084-.937-.493-.937-1.036,0-2.108,1.455-2.479,3.171l-.833,3.739H183.83l1.273-5.973c.12-.553.086-.937-.495-.937-1.032,0-2.137,1.455-2.51,3.171l-.8,3.739h-1.426l1.321-6.371c.052-.277-.134-.432-1.237-.52l.1-.432,2.8-.086-.442,1.8h.069c.168-.4.954-1.885,2.361-1.885,1.256,0,1.579,1.122,1.579,1.885.17-.4.953-1.885,2.362-1.885,1.256,0,1.785,1.262,1.531,2.4l-.852,3.775c-.084.418-.05.833.374.833.495,0,1.086-.64,1.614-1.749l.357.193c-.61,1.4-1.409,2.145-2.206,2.145A1.583,1.583,0,0,1,188.142,120.261Z" transform="translate(-26.806 -66.743)" fill="#fff" opacity="0.98"/>
  <path id="Path_904" data-name="Path 904" d="M190.83,125.246h.137c.851,0,.969-.155,1.086-.688l1.785-8.609c.067-.363-.118-.518-1.225-.606l.107-.432,2.8-.086-.443,1.8h.069a3.062,3.062,0,0,1,2.463-1.885,2.607,2.607,0,0,1,2.361,2.856c0,2.108-2.053,4.742-4.111,4.742a2.037,2.037,0,0,1-1.732-.814l-.648,3.119c-.082.415,0,.6.732.6h.495l-.1.451H190.73Zm7.678-8.672c-.017-.711-.356-1.25-1.086-1.25-1.936,0-3,3.448-3,4.956,0,1.193.562,1.575,1.22,1.575C197.049,121.855,198.561,118.893,198.508,116.574Z" transform="translate(-26.806 -66.743)" fill="#fff" opacity="0.98"/>
  <path id="Path_905" data-name="Path 905" d="M200.6,119.483c0-2.11,1.953-4.742,4.008-4.742a2.1,2.1,0,0,1,1.718.95l.291-.78h1.2l-1.258,6.044c-.086.415-.068.795.375.795.472,0,1.084-.64,1.615-1.749l.352.193c-.61,1.4-1.443,2.145-2.206,2.145-.933,0-1.51-.539-1.409-1.837h-.07c-.256.47-.914,1.837-2.361,1.837C201.551,122.339,200.6,121.163,200.6,119.483Zm5.35-2.649c0-1.195-.455-1.575-1.12-1.575-1.413,0-2.77,2.873-2.77,5.243,0,.713.258,1.248.986,1.248C204.982,121.75,205.951,118.34,205.951,116.834Z" transform="translate(-26.806 -66.743)" fill="#fff" opacity="0.98"/>
  <path id="Path_906" data-name="Path 906" d="M214.483,115.324c-1.039,0-2.312,1.455-2.685,3.171l-.8,3.739h-1.426l1.325-6.371c.049-.277-.134-.432-1.241-.52l.1-.432,2.806-.086-.443,1.8h.069a3.233,3.233,0,0,1,2.532-1.885c1.256,0,1.784,1.262,1.528,2.4l-.851,3.775c-.084.418-.053.833.373.833.495,0,1.089-.64,1.617-1.749l.357.193c-.613,1.4-1.412,2.145-2.209,2.145a1.58,1.58,0,0,1-1.461-2.078l.9-4C215.1,115.708,215.057,115.324,214.483,115.324Z" transform="translate(-26.806 -66.743)" fill="#fff" opacity="0.98"/>
  <path id="Path_907" data-name="Path 907" d="M217.729,124.174a1.144,1.144,0,0,1,1.034-1.2.684.684,0,0,1,.732.66c0,.464-.476.967-.644,1.28-.088.155.153.4.459.4,1.871,0,2.783-1.607,3.465-4.813h-.069a3.166,3.166,0,0,1-2.5,1.887c-1.273,0-1.787-1.245-1.43-2.839l.832-3.706c.072-.275.036-.43-1.067-.52l.1-.432,2.685-.1-1.275,5.642c-.2.9-.185,1.369.411,1.369,1.036,0,2.256-1.451,2.632-3.165l.795-3.724h1.432l-1.449,6.874a4.794,4.794,0,0,1-4.429,3.912A1.579,1.579,0,0,1,217.729,124.174Z" transform="translate(-26.806 -66.743)" fill="#fff" opacity="0.98"/>
  <path id="Path_908" data-name="Path 908" d="M156.218,118.795a3.259,3.259,0,0,0,.03-.457,4.347,4.347,0,1,0-4.346,4.246,4.344,4.344,0,0,0,4.033-2.657l-1.877-.327a2.4,2.4,0,0,1-2.1,1.269,2.433,2.433,0,0,1-2.37-2.074Zm-4.257-2.945a2.413,2.413,0,0,1,2.242,1.584h-4.484A2.417,2.417,0,0,1,151.961,115.85Z" transform="translate(-26.806 -66.743)" fill="#fff" opacity="0.98"/>
  <rect id="Rectangle_753" data-name="Rectangle 753" width="2.215" height="8.166" transform="translate(117.368 47.521)" fill="#fff" opacity="0.98"/>
  <path id="Path_909" data-name="Path 909" d="M145.279,110.935a1.237,1.237,0,1,0,1.235,1.237,1.237,1.237,0,0,0-1.235-1.237" transform="translate(-26.806 -66.743)" fill="#fff" opacity="0.98"/>
  <path id="Path_910" data-name="Path 910" d="M130.585,111.646v4.4H125.8v-4.4h-2.424v10.782H125.8v-4.4h4.786v4.4h2.427V111.646Z" transform="translate(-26.806 -66.743)" fill="#fff" opacity="0.98"/>
  <path id="Path_911" data-name="Path 911" d="M140.6,114.267v.438a4.253,4.253,0,1,0-2.214,7.879,4.242,4.242,0,0,0,2.161-.583v.426h2.167v-8.16Zm-2.107,6.528a2.458,2.458,0,1,1,2.489-2.455A2.466,2.466,0,0,1,138.5,120.795Z" transform="translate(-26.806 -66.743)" fill="#fff" opacity="0.98"/>
  <path id="Path_912" data-name="Path 912" d="M160.839,113.506a4.4,4.4,0,0,0-3.624,4.28v4.645h2.124l0-4.731a2.132,2.132,0,0,1,1.865-2.112Z" transform="translate(-26.806 -66.743)" fill="#fff" opacity="0.98"/>
  <rect id="Rectangle_754" data-name="Rectangle 754" width="65.679" height="0.431" transform="translate(276.351) rotate(90)" fill="#fff" opacity="0.98"/>
  <path id="Path_913" data-name="Path 913" d="M345.609,84.475l2.9,7.393,7.719.154L349.28,75.587h-7.226L335.284,91.6l7.436.149Z" transform="translate(-26.806 -66.743)" fill="#fff" opacity="0.98"/>
  <path id="Path_914" data-name="Path 914" d="M330.539,102.83h7.883L340.354,98h10.433l1.971,4.831h8.037l-3.28-7.76-23.876.425Z" transform="translate(-26.806 -66.743)" fill="#fff" opacity="0.98"/>
  <path id="Path_915" data-name="Path 915" d="M364.857,102.83h7.535V94.8l-7.535.134Z" transform="translate(-26.806 -66.743)" fill="#fff" opacity="0.98"/>
  <path id="Path_916" data-name="Path 916" d="M372.392,75.781h-7.535V92.194l7.535.151Z" transform="translate(-26.806 -66.743)" fill="#fff" opacity="0.98"/>
  <path id="Path_917" data-name="Path 917" d="M403.418,85.092v-.077a8.383,8.383,0,0,0-2.4-6.3c-1.815-1.855-4.675-2.936-8.81-2.936H379.423v16.7l19.492.389A8.428,8.428,0,0,0,403.418,85.092Zm-11.553,3.671h-4.946V82.272h4.906c2.513,0,4.058,1.082,4.058,3.207v.077C395.883,87.527,394.415,88.763,391.865,88.763Z" transform="translate(-26.806 -66.743)" fill="#fff" opacity="0.98"/>
  <path id="Path_918" data-name="Path 918" d="M395.652,102.83h8.655L398.5,94.34l-8.387.149Z" transform="translate(-26.806 -66.743)" fill="#fff" opacity="0.98"/>
  <path id="Path_919" data-name="Path 919" d="M379.423,102.83h7.5V94.546l-7.5.133Z" transform="translate(-26.806 -66.743)" fill="#fff" opacity="0.98"/>
  <path id="Path_920" data-name="Path 920" d="M416.487,95.781,419.6,99l1.057-.876L417.337,94.7a25.249,25.249,0,0,0,2.679-4.792l-1.21-.491A23.343,23.343,0,0,1,416.46,93.8l-2.021-2.076-2.721-2.795a9.472,9.472,0,0,0,2.721-1.4,4,4,0,0,0,1.713-3.269V84.21a3.827,3.827,0,0,0-1.713-3.175A4.3,4.3,0,0,0,412,80.294a4.2,4.2,0,0,0-4.511,4.1v.051c0,1.494.645,2.6,2.011,4.123-2.591.955-4.235,2.452-4.589,4.452a4.789,4.789,0,0,0-.075.83V93.9c0,.107.025.2.031.307.164,2.769,2.454,4.692,5.509,4.692a7.1,7.1,0,0,0,4.06-1.255A10.341,10.341,0,0,0,416.487,95.781Zm-7.654-11.39v-.052a2.945,2.945,0,0,1,3.118-2.912,2.805,2.805,0,0,1,2.488,1.432,2.849,2.849,0,0,1,.372,1.4v.052a2.9,2.9,0,0,1-.372,1.414A5.8,5.8,0,0,1,410.92,88.1C409.322,86.4,408.833,85.524,408.833,84.391Zm5.606,11.72a6.139,6.139,0,0,1-4.033,1.627,3.965,3.965,0,0,1-4.194-3.556c-.01-.112-.034-.22-.034-.335V93.8a3.538,3.538,0,0,1,.089-.753c.319-1.469,1.589-2.816,4.035-3.654l4.137,4.276,1.2,1.238A10.846,10.846,0,0,1,414.439,96.111Z" transform="translate(-26.806 -66.743)" fill="#fff" opacity="0.98"/>
  <path id="Path_921" data-name="Path 921" d="M475.6,83.983l2.311,5.9c2.314-.378,4.685-.778,7.17-1.225L479.312,75h-7.3l-7.094,16.78q3.818-.486,8.034-1.121Z" transform="translate(-26.806 -66.743)" fill="#fff" opacity="0.98"/>
  <path id="Path_922" data-name="Path 922" d="M437.368,93.773l2.357-6.784,2.35,6.717c3.771-.112,8.094-.371,13.024-.83L460.966,75.2h-7.848l-4.765,15.814-5.271-15.893h-6.52L431.29,91.011,426.526,75.2h-8L424.4,92.92A86.65,86.65,0,0,0,437.368,93.773Z" transform="translate(-26.806 -66.743)" fill="#fff" opacity="0.98"/>
  <path id="Path_923" data-name="Path 923" d="M506.444,81.835h8.2V75.2H490.668v6.638h8.2v4.417q3.873-.571,7.575-.965Z" transform="translate(-26.806 -66.743)" fill="#fff" opacity="0.98"/>
  <path id="Path_924" data-name="Path 924" d="M572.469,84.529a8.47,8.47,0,0,0-2.422-6.364c-1.835-1.875-4.725-2.968-8.9-2.968H548.22V85.645c2.715.371,5.246.788,7.575,1.235V81.757h4.958c2.539,0,4.1,1.093,4.1,3.241v.078a3.1,3.1,0,0,1-2.911,3.134c3.437.835,6.23,1.672,8.359,2.381a8.642,8.642,0,0,0,2.167-5.984Z" transform="translate(-26.806 -66.743)" fill="#fff" opacity="0.98"/>
  <path id="Path_925" data-name="Path 925" d="M520.069,84.308q3.87-.135,7.5-.1V81.639h14.486V75.2H520.069Z" transform="translate(-26.806 -66.743)" fill="#fff" opacity="0.98"/>
  <path id="Path_926" data-name="Path 926" d="M548.22,102.531h7.575V94.252h3.319l5.506,8.279h8.746l-6.005-8.777a128.173,128.173,0,0,0-19.141-4.442Z" transform="translate(-26.806 -66.743)" fill="#fff" opacity="0.98"/>
  <path id="Path_927" data-name="Path 927" d="M506.444,88.119c-2.471.217-4.989.48-7.575.809v13.6h7.575Z" transform="translate(-26.806 -66.743)" fill="#fff" opacity="0.98"/>
  <path id="Path_928" data-name="Path 928" d="M470.291,97.649h10.543l1.992,4.882h8.121l-4.909-11.615c-8.26,1.367-15.579,2.364-22.054,3.07l-3.612,8.545h7.966Z" transform="translate(-26.806 -66.743)" fill="#fff" opacity="0.98"/>
  <path id="Path_929" data-name="Path 929" d="M520.069,87.407v15.124h22.179V96.087H527.566V91.753h13.12V88.32A170.344,170.344,0,0,0,520.069,87.407Z" transform="translate(-26.806 -66.743)" fill="#fff" opacity="0.98"/>
  <path id="Path_930" data-name="Path 930" d="M445.23,102.727h6.6l2.6-7.847c-4.393.332-8.283.509-11.747.577Z" transform="translate(-26.806 -66.743)" fill="#fff" opacity="0.98"/>
  <path id="Path_931" data-name="Path 931" d="M427.659,102.727h6.6l2.521-7.26a91.69,91.69,0,0,1-11.826-.892Z" transform="translate(-26.806 -66.743)" fill="#fff" opacity="0.98"/>
  <path id="Path_932" data-name="Path 932" d="M353.472,123.4l.612-.7a6.12,6.12,0,0,0,4.519,1.873c1.891,0,3.187-1.063,3.187-2.5v-.036c0-1.333-.7-2.107-3.565-2.683-3.025-.613-4.249-1.639-4.249-3.547v-.037c0-1.872,1.71-3.313,4.051-3.313a6.289,6.289,0,0,1,4.322,1.531l-.594.738a5.43,5.43,0,0,0-3.764-1.422c-1.855,0-3.079,1.062-3.079,2.376v.036c0,1.333.684,2.143,3.673,2.755,2.917.6,4.142,1.639,4.142,3.476v.036c0,2.034-1.747,3.439-4.178,3.439A7.171,7.171,0,0,1,353.472,123.4Z" transform="translate(-26.806 -66.743)" fill="#fff" opacity="0.98"/>
  <path id="Path_933" data-name="Path 933" d="M377.314,118.967v-.036a6.34,6.34,0,1,1,12.676-.036c.018.018.018.018,0,.036a6.34,6.34,0,1,1-12.676.036Zm11.7,0v-.036a5.454,5.454,0,0,0-5.384-5.672,5.4,5.4,0,0,0-5.348,5.636v.036a5.455,5.455,0,0,0,5.384,5.672A5.394,5.394,0,0,0,389.018,118.967Z" transform="translate(-26.806 -66.743)" fill="#fff" opacity="0.98"/>
  <path id="Path_934" data-name="Path 934" d="M405.244,112.629h.937v11.739h7.4v.865h-8.337Z" transform="translate(-26.806 -66.743)" fill="#fff" opacity="0.98"/>
  <path id="Path_935" data-name="Path 935" d="M427.9,119.993v-7.364h.936V119.9c0,2.971,1.6,4.681,4.267,4.681,2.558,0,4.2-1.548,4.2-4.591v-7.364h.936v7.256c0,3.619-2.106,5.546-5.167,5.546C430.04,125.431,427.9,123.522,427.9,119.993Z" transform="translate(-26.806 -66.743)" fill="#fff" opacity="0.98"/>
  <path id="Path_936" data-name="Path 936" d="M457.341,113.493h-4.394v-.864h9.724v.864h-4.394v11.74h-.936Z" transform="translate(-26.806 -66.743)" fill="#fff" opacity="0.98"/>
  <path id="Path_937" data-name="Path 937" d="M477.708,112.629h.936v12.6h-.936Z" transform="translate(-26.806 -66.743)" fill="#fff" opacity="0.98"/>
  <path id="Path_938" data-name="Path 938" d="M494.023,118.967v-.036a6.34,6.34,0,1,1,12.676-.036c.018.018.018.018,0,.036a6.34,6.34,0,1,1-12.676.036Zm11.7,0v-.036a5.454,5.454,0,0,0-5.384-5.672,5.4,5.4,0,0,0-5.348,5.636v.036a5.455,5.455,0,0,0,5.384,5.672A5.394,5.394,0,0,0,505.727,118.967Z" transform="translate(-26.806 -66.743)" fill="#fff" opacity="0.98"/>
  <path id="Path_939" data-name="Path 939" d="M521.953,112.629h.882l8.7,10.965V112.629h.9v12.6h-.7l-8.877-11.2v11.2h-.9Z" transform="translate(-26.806 -66.743)" fill="#fff" opacity="0.98"/>
  <path id="Path_940" data-name="Path 940" d="M547.435,123.4l.612-.7a6.12,6.12,0,0,0,4.519,1.873c1.891,0,3.187-1.063,3.187-2.5v-.036c0-1.333-.7-2.107-3.565-2.683-3.025-.613-4.249-1.639-4.249-3.547v-.037c0-1.872,1.71-3.313,4.051-3.313a6.287,6.287,0,0,1,4.322,1.531l-.594.738a5.43,5.43,0,0,0-3.764-1.422c-1.855,0-3.079,1.062-3.079,2.376v.036c0,1.333.684,2.143,3.674,2.755,2.916.6,4.141,1.639,4.141,3.476v.036c0,2.034-1.747,3.439-4.178,3.439A7.171,7.171,0,0,1,547.435,123.4Z" transform="translate(-26.806 -66.743)" fill="#fff" opacity="0.98"/>
</svg>
