<svg xmlns="http://www.w3.org/2000/svg" width="384.737" height="48.572" viewBox="0 0 384.737 48.572">
  <g id="logo-header" transform="translate(-26.806 -66.743)">
    <g id="Group_1156" data-name="Group 1156" transform="translate(26.806 66.743)" style="mix-blend-mode: multiply;isolation: isolate">
      <path id="Path_888" data-name="Path 888" d="M51.094,115.315A24.286,24.286,0,1,1,75.375,91.028a24.275,24.275,0,0,1-24.281,24.287m0-47.431A23.142,23.142,0,1,0,74.233,91.028,23.143,23.143,0,0,0,51.094,67.884M71.67,97.952c-.009.021-.05.052-.126.024-.055-.021-.071-.05-.068-.084a18.545,18.545,0,0,0,.805-5.178c-.007-2.966-1.211-4.783-2.756-4.783a1.572,1.572,0,0,0-1.614,1.683c0,1.816,2.218,1.953,2.218,5.924a15.7,15.7,0,0,1-.872,4.841c-2.491,8.408-10.428,12.312-18.163,12.312a19.238,19.238,0,0,1-6.857-1.073.114.114,0,0,1-.033-.137c.017-.042.07-.078.1-.065a16.8,16.8,0,0,0,5.172.8c2.958,0,4.709-1.213,4.709-2.689a1.663,1.663,0,0,0-1.68-1.682c-1.821,0-1.954,2.284-5.856,2.284a16.117,16.117,0,0,1-4.907-.872C33.4,106.7,29.422,98.832,29.43,91.028a22.414,22.414,0,0,1,1.086-6.857c.01-.024.059-.044.118-.024s.076.075.071.09a17.706,17.706,0,0,0-.8,5.176c0,2.963,1.21,4.71,2.761,4.71a1.592,1.592,0,0,0,1.611-1.613c0-1.818-2.223-2.021-2.223-5.925a16.049,16.049,0,0,1,.88-4.911c2.553-8.341,10.425-12.25,18.165-12.308a20.376,20.376,0,0,1,6.858,1.14.105.105,0,0,1,.021.121c-.025.065-.067.072-.09.07a14.914,14.914,0,0,0-5.177-.861C49.813,69.835,48,71.049,48,72.6a1.611,1.611,0,0,0,1.684,1.611c1.816,0,1.951-2.221,5.852-2.221a16.04,16.04,0,0,1,4.907.875c8.413,2.56,12.24,10.5,12.315,18.165a21.091,21.091,0,0,1-1.083,6.924M60.1,92.176a3.856,3.856,0,0,0-4.035,3.7c0,1.684,1.009,3.027,2.354,3.027a.862.862,0,0,0,.943-.872c0-.876-1.157-1.087-1.072-2.4A1.644,1.644,0,0,1,59.97,94.19c1.616,0,2.369,1.566,2.369,3.181a4.136,4.136,0,0,1-4.05,4.221c-2.828,0-4.642-2.692-4.642-5.586,0-4.306,2.827-5.988,4.306-6.392.016,0,3.869.691,3.75-1.011-.058-.749-1.165-1.033-1.972-1.066a5.394,5.394,0,0,0-1.793.287,2.2,2.2,0,0,1-.992-1.239c2.754-2.088,4.7-4.1,4.7-6.39A2.2,2.2,0,0,0,59.3,77.908c-2.761,0-4.842,3.5-4.842,6.66a5.816,5.816,0,0,0,.133,1.546A63.4,63.4,0,0,1,49.184,89.6a11.829,11.829,0,0,1,.261-2.038c.8-.876,1.915-2.19,1.915-3.2a.794.794,0,0,0-.81-.875c-1.342,0-2.355,2.02-2.621,3.431a4.43,4.43,0,0,1-2.824,1.685A1.223,1.223,0,0,1,43.958,87.6c2.557-.874,5.721-4.374,5.721-7.537a2.041,2.041,0,0,0-2.287-2.151c-3.028,0-5.585,4.506-5.585,8-1.077,0-1.477-1.143-1.477-2.02a13.367,13.367,0,0,1,.335-2.016.545.545,0,0,0-.543-.6c-1.007,0-1.611,1.342-1.611,2.891A3.528,3.528,0,0,0,41.875,87.8a3.078,3.078,0,0,0,2.826,2.49,4.125,4.125,0,0,0,2.691-.941c-.068.468-.135.874-.2,1.278A33.056,33.056,0,0,0,40.122,95,7.01,7.01,0,0,0,37.7,99.775a3.7,3.7,0,0,0,3.9,3.9c3.1,0,5.452-2.491,6.592-5.922a26.508,26.508,0,0,0,.89-6.117,60.868,60.868,0,0,0,6.174-3.908,2.662,2.662,0,0,0,.673.808,8.4,8.4,0,0,0-4.777,7.738c0,3.5,2.355,7.4,7,7.4a6.407,6.407,0,0,0,6.461-6.188c0-2.757-1.549-5.313-4.512-5.313m-18.5,9.417a1.53,1.53,0,0,1-1.679-1.675c0-2.894,4.009-5.651,7.035-7.134-.535,4.036-1.9,8.651-5.356,8.809m2.219-15.882c0-2.221,2.191-6.438,3.535-5.992,1.577.527-1.316,4.78-3.535,5.992M56.538,84.7c0-2.761,1.872-5.441,2.888-4.932,1.165.582-.865,3.183-2.888,4.932" transform="translate(-26.806 -66.743)" fill="#0e3d71"/>
      <path id="Path_889" data-name="Path 889" d="M109.263,97.979v-.027a4.619,4.619,0,0,1,4.789-4.625,5.189,5.189,0,0,1,3.612,1.3l-1.448,1.74a3.146,3.146,0,0,0-2.148-.841,2.338,2.338,0,0,0-2.275,2.442v.026a2.349,2.349,0,0,0,2.415,2.465,2.511,2.511,0,0,0,1.424-.366V99.007h-1.753V97.2h4.09v4a6.014,6.014,0,0,1-3.863,1.374,4.573,4.573,0,0,1-4.842-4.6" transform="translate(-48.283 -73.667)" fill="#0e3d71"/>
      <path id="Path_890" data-name="Path 890" d="M124.6,93.566h7.156v2.1h-4.715v1.348h4.268v1.943h-4.268v1.411h4.778v2.1H124.6Z" transform="translate(-52.278 -73.729)" fill="#0e3d71"/>
      <path id="Path_891" data-name="Path 891" d="M147.083,93.478h2.38l3.786,8.963h-2.642l-.649-1.589h-3.431l-.637,1.589H143.3Zm2.162,5.455-.991-2.53-1,2.53Z" transform="translate(-57.147 -73.706)" fill="#0e3d71"/>
      <path id="Path_892" data-name="Path 892" d="M159.635,93.566h3.815c2.25,0,3.7,1.157,3.7,3.125v.027c0,2.1-1.615,3.2-3.826,3.2H162.1v2.543h-2.466Zm3.636,4.423c.878,0,1.411-.457,1.411-1.157v-.025c0-.763-.533-1.171-1.424-1.171H162.1v2.353Z" transform="translate(-61.403 -73.729)" fill="#0e3d71"/>
      <path id="Path_893" data-name="Path 893" d="M172.916,93.566h3.812c2.25,0,3.7,1.157,3.7,3.125v.027c0,2.1-1.616,3.2-3.826,3.2h-1.22v2.543h-2.466Zm3.636,4.423c.876,0,1.408-.457,1.408-1.157v-.025c0-.763-.532-1.171-1.421-1.171h-1.157v2.353Z" transform="translate(-64.862 -73.729)" fill="#0e3d71"/>
      <path id="Path_894" data-name="Path 894" d="M186.2,93.566h2.466V100.3h4.309v2.159H186.2Z" transform="translate(-68.321 -73.729)" fill="#0e3d71"/>
      <rect id="Rectangle_752" data-name="Rectangle 752" width="2.477" height="8.897" transform="translate(127.024 19.836)" fill="#0e3d71"/>
      <path id="Path_895" data-name="Path 895" d="M208.656,93.478h2.376l3.789,8.963H212.18l-.65-1.589H208.1l-.635,1.589h-2.594Zm2.162,5.455-.991-2.53-1.005,2.53Z" transform="translate(-73.184 -73.706)" fill="#0e3d71"/>
      <path id="Path_896" data-name="Path 896" d="M221.208,93.566h2.3l3.66,4.7v-4.7h2.44v8.9h-2.162l-3.8-4.879v4.879h-2.441Z" transform="translate(-77.44 -73.729)" fill="#0e3d71"/>
      <path id="Path_897" data-name="Path 897" d="M236,97.979v-.027a4.569,4.569,0,0,1,4.69-4.625,4.353,4.353,0,0,1,3.775,1.855l-1.856,1.435a2.386,2.386,0,0,0-1.947-1.041,2.2,2.2,0,0,0-2.122,2.352v.025a2.2,2.2,0,0,0,2.122,2.379,2.432,2.432,0,0,0,2.01-1.081l1.856,1.322A4.684,4.684,0,0,1,236,97.979" transform="translate(-81.293 -73.667)" fill="#0e3d71"/>
      <path id="Path_898" data-name="Path 898" d="M250.671,93.566h7.156v2.1h-4.715v1.348h4.268v1.943h-4.268v1.411h4.778v2.1h-7.22Z" transform="translate(-85.114 -73.729)" fill="#0e3d71"/>
      <path id="Path_899" data-name="Path 899" d="M262.94,101.087l1.374-1.638a4.575,4.575,0,0,0,2.883,1.066c.659,0,1.019-.228,1.019-.608v-.027c0-.368-.3-.572-1.5-.853-1.9-.431-3.357-.967-3.357-2.795v-.025c0-1.655,1.309-2.848,3.443-2.848a5.6,5.6,0,0,1,3.664,1.182l-1.235,1.741a4.458,4.458,0,0,0-2.491-.876c-.6,0-.89.251-.89.572V96c0,.407.308.585,1.539.865,2.046.443,3.316,1.1,3.316,2.771v.024c0,1.818-1.433,2.9-3.6,2.9a6.2,6.2,0,0,1-4.169-1.473" transform="translate(-88.309 -73.676)" fill="#0e3d71"/>
      <g id="Group_1155" data-name="Group 1155" transform="translate(60.939 32.682)">
        <path id="Path_900" data-name="Path 900" d="M109.207,118.292c0-1.562,1.445-3.507,2.965-3.507a1.533,1.533,0,0,1,1.269.7l.216-.578h.89l-.928,4.47c-.064.307-.052.588.277.588.351,0,.8-.472,1.192-1.293l.265.141c-.452,1.035-1.068,1.588-1.633,1.588-.691,0-1.117-.4-1.044-1.359h-.048c-.189.349-.679,1.359-1.748,1.359C109.913,120.4,109.207,119.536,109.207,118.292Zm3.959-1.959c0-.882-.339-1.166-.83-1.166-1.041,0-2.048,2.125-2.048,3.879,0,.526.189.923.728.923C112.449,119.968,113.166,117.448,113.166,116.333Z" transform="translate(-109.207 -111.938)" fill="#0e3d71"/>
        <path id="Path_901" data-name="Path 901" d="M165.461,118.256a3.59,3.59,0,0,1,3.178-3.482,1.157,1.157,0,0,1,1.307,1.125.976.976,0,0,1-.869,1.064.494.494,0,0,1-.526-.489c0-.356.592-.909.629-1.137.023-.166-.037-.257-.278-.257-1.37,0-2.36,2.177-2.36,3.93,0,.656.313.935.916.935a2.8,2.8,0,0,0,1.934-1.177l.24.169a3.074,3.074,0,0,1-2.362,1.469A1.98,1.98,0,0,1,165.461,118.256Z" transform="translate(-123.859 -111.935)" fill="#0e3d71"/>
        <path id="Path_902" data-name="Path 902" d="M172.035,118.029a3.313,3.313,0,0,1,2.829-3.288,2.21,2.21,0,0,1,2.162,2.392,3.354,3.354,0,0,1-2.891,3.24A2.133,2.133,0,0,1,172.035,118.029Zm3.908-1.626c0-.884-.3-1.344-.994-1.344-.927,0-1.833,1.805-1.833,3.637,0,.868.278,1.357.981,1.357C174.914,120.053,175.943,118.465,175.943,116.4Z" transform="translate(-125.571 -111.926)" fill="#0e3d71"/>
        <path id="Path_903" data-name="Path 903" d="M185.988,118.823l.669-2.958c.088-.409.062-.693-.365-.693-.766,0-1.559,1.076-1.833,2.345l-.616,2.765H182.8l.941-4.417c.089-.409.064-.693-.366-.693-.763,0-1.58,1.076-1.856,2.345l-.591,2.765h-1.055l.977-4.712c.038-.2-.1-.319-.915-.385l.075-.319,2.072-.064-.327,1.332h.051c.124-.294.706-1.394,1.746-1.394.929,0,1.168.83,1.168,1.394.126-.294.7-1.394,1.747-1.394.929,0,1.32.933,1.132,1.776l-.63,2.792c-.062.309-.037.616.277.616.366,0,.8-.473,1.194-1.293l.264.143c-.451,1.036-1.042,1.586-1.631,1.586A1.171,1.171,0,0,1,185.988,118.823Z" transform="translate(-127.613 -111.926)" fill="#0e3d71"/>
        <path id="Path_904" data-name="Path 904" d="M190.8,122.51h.1c.629,0,.717-.115.8-.509l1.32-6.367c.05-.268-.087-.383-.906-.448l.079-.319,2.071-.064-.328,1.332H194a2.265,2.265,0,0,1,1.822-1.394,1.928,1.928,0,0,1,1.746,2.112c0,1.559-1.518,3.507-3.04,3.507a1.506,1.506,0,0,1-1.281-.6l-.479,2.307c-.061.307,0,.445.541.445h.366l-.076.334H190.73Zm5.678-6.413c-.013-.526-.263-.924-.8-.924-1.432,0-2.222,2.55-2.222,3.665,0,.882.416,1.165.9,1.165C195.4,120,196.521,117.812,196.482,116.1Z" transform="translate(-130.44 -111.926)" fill="#0e3d71"/>
        <path id="Path_905" data-name="Path 905" d="M200.6,118.248c0-1.56,1.444-3.507,2.964-3.507a1.549,1.549,0,0,1,1.271.7l.215-.577h.89l-.93,4.47c-.064.307-.05.588.277.588.349,0,.8-.473,1.194-1.293l.26.143c-.451,1.036-1.067,1.586-1.631,1.586-.69,0-1.117-.4-1.042-1.359h-.052c-.189.348-.676,1.359-1.746,1.359C201.3,120.36,200.6,119.49,200.6,118.248Zm3.957-1.959c0-.884-.336-1.165-.828-1.165-1.045,0-2.049,2.125-2.049,3.877,0,.527.191.923.729.923C203.841,119.924,204.558,117.4,204.558,116.289Z" transform="translate(-133.011 -111.926)" fill="#0e3d71"/>
        <path id="Path_906" data-name="Path 906" d="M213.2,115.172c-.768,0-1.71,1.076-1.986,2.345l-.591,2.765h-1.055l.98-4.712c.036-.2-.1-.319-.918-.385l.075-.319,2.075-.064-.328,1.332h.051a2.391,2.391,0,0,1,1.873-1.394c.929,0,1.319.933,1.13,1.776l-.629,2.792c-.062.309-.039.616.276.616.366,0,.805-.473,1.2-1.293l.264.143c-.453,1.036-1.044,1.586-1.634,1.586a1.169,1.169,0,0,1-1.08-1.537l.663-2.958C213.657,115.456,213.629,115.172,213.2,115.172Z" transform="translate(-135.348 -111.926)" fill="#0e3d71"/>
        <path id="Path_907" data-name="Path 907" d="M217.729,121.73a.846.846,0,0,1,.765-.884.506.506,0,0,1,.541.488c0,.343-.352.715-.476.947-.065.115.113.293.339.293,1.384,0,2.058-1.188,2.563-3.559h-.051a2.341,2.341,0,0,1-1.846,1.4c-.941,0-1.322-.921-1.058-2.1l.615-2.741c.053-.2.027-.318-.789-.385l.074-.319,1.986-.076-.943,4.172c-.151.669-.137,1.012.3,1.012.766,0,1.668-1.073,1.947-2.341l.588-2.754h1.059l-1.072,5.084A3.545,3.545,0,0,1,219,122.856,1.168,1.168,0,0,1,217.729,121.73Z" transform="translate(-137.473 -111.939)" fill="#0e3d71"/>
        <g id="Group_1154" data-name="Group 1154" transform="translate(10.477)">
          <path id="Path_908" data-name="Path 908" d="M153.962,117.569a2.412,2.412,0,0,0,.022-.338,3.215,3.215,0,1,0-3.214,3.14,3.213,3.213,0,0,0,2.983-1.965l-1.388-.242a1.771,1.771,0,0,1-1.551.938,1.8,1.8,0,0,1-1.753-1.534Zm-3.148-2.178a1.784,1.784,0,0,1,1.658,1.171h-3.316A1.787,1.787,0,0,1,150.814,115.391Z" transform="translate(-129.673 -111.756)" fill="#0e3d71"/>
          <rect id="Rectangle_753" data-name="Rectangle 753" width="1.638" height="6.039" transform="translate(15.382 2.463)" fill="#0e3d71"/>
          <path id="Path_909" data-name="Path 909" d="M144.957,110.935a.915.915,0,1,0,.913.915.915.915,0,0,0-.913-.915" transform="translate(-128.758 -110.935)" fill="#0e3d71"/>
          <path id="Path_910" data-name="Path 910" d="M128.707,111.646V114.9h-3.54v-3.254h-1.793v7.973h1.793v-3.252h3.54v3.252H130.5v-7.973Z" transform="translate(-123.374 -111.12)" fill="#0e3d71"/>
          <path id="Path_911" data-name="Path 911" d="M138.918,114.221v.324a3.145,3.145,0,1,0-1.637,5.827,3.137,3.137,0,0,0,1.6-.431v.315h1.6v-6.035Zm-1.558,4.828a1.818,1.818,0,1,1,1.841-1.816A1.824,1.824,0,0,1,137.359,119.049Z" transform="translate(-126.176 -111.757)" fill="#0e3d71"/>
          <path id="Path_912" data-name="Path 912" d="M159.9,113.506a3.25,3.25,0,0,0-2.68,3.165v3.435h1.571v-3.5a1.577,1.577,0,0,1,1.379-1.562Z" transform="translate(-132.189 -111.605)" fill="#0e3d71"/>
        </g>
      </g>
    </g>
    <rect id="Rectangle_754" data-name="Rectangle 754" width="48.572" height="0.318" rx="0.159" transform="translate(221.344 66.743) rotate(90)" fill="#0e3d71"/>
    <g id="Group_1159" data-name="Group 1159" transform="translate(231.963 72.851)">
      <g id="Group_1157" data-name="Group 1157">
        <path id="Path_913" data-name="Path 913" d="M342.92,82.16l2.143,5.467,5.709.114-5.137-12.154h-5.344l-5.007,11.845,5.5.11Z" transform="translate(-331.775 -75.154)" fill="#53bceb" style="mix-blend-mode: multiply;isolation: isolate"/>
        <path id="Path_914" data-name="Path 914" d="M330.539,100.808h5.83l1.429-3.573h7.715l1.458,3.573h5.944l-2.425-5.739-17.657.314Z" transform="translate(-330.539 -80.229)" fill="#53bceb" style="mix-blend-mode: multiply;isolation: isolate"/>
        <path id="Path_915" data-name="Path 915" d="M364.857,100.739h5.573V94.8l-5.573.1Z" transform="translate(-339.477 -80.16)" fill="#53bceb" style="mix-blend-mode: multiply;isolation: isolate"/>
        <path id="Path_916" data-name="Path 916" d="M370.429,75.781h-5.573V87.919l5.573.111Z" transform="translate(-339.477 -75.205)" fill="#53bceb" style="mix-blend-mode: multiply;isolation: isolate"/>
        <path id="Path_917" data-name="Path 917" d="M397.168,82.667V82.61a6.2,6.2,0,0,0-1.772-4.658c-1.342-1.372-3.457-2.171-6.515-2.171h-9.458V88.134l14.415.288A6.233,6.233,0,0,0,397.168,82.667Zm-8.544,2.715h-3.658v-4.8h3.628c1.858,0,3,.8,3,2.372v.057C391.6,84.468,390.51,85.382,388.624,85.382Z" transform="translate(-343.271 -75.205)" fill="#53bceb" style="mix-blend-mode: multiply;isolation: isolate"/>
        <path id="Path_918" data-name="Path 918" d="M394.208,100.618h6.4l-4.3-6.279-6.2.11Z" transform="translate(-346.055 -80.039)" fill="#53bceb" style="mix-blend-mode: multiply;isolation: isolate"/>
        <path id="Path_919" data-name="Path 919" d="M379.423,100.672h5.544V94.546l-5.544.1Z" transform="translate(-343.271 -80.092)" fill="#53bceb" style="mix-blend-mode: multiply;isolation: isolate"/>
        <path id="Path_920" data-name="Path 920" d="M413.453,91.747l2.305,2.381.782-.648-2.458-2.534a18.672,18.672,0,0,0,1.981-3.544l-.895-.363a17.262,17.262,0,0,1-1.735,3.241l-1.495-1.535-2.012-2.067a7,7,0,0,0,2.012-1.032,2.956,2.956,0,0,0,1.267-2.418V83.19a2.83,2.83,0,0,0-1.267-2.348,3.18,3.18,0,0,0-1.8-.548,3.106,3.106,0,0,0-3.336,3.03v.038a4.394,4.394,0,0,0,1.487,3.049c-1.916.706-3.132,1.813-3.394,3.292a3.55,3.55,0,0,0-.055.614v.038c0,.079.018.15.023.227a3.789,3.789,0,0,0,4.074,3.47,5.252,5.252,0,0,0,3-.928A7.648,7.648,0,0,0,413.453,91.747Zm-5.66-8.423v-.038a2.178,2.178,0,0,1,2.306-2.154,2.075,2.075,0,0,1,1.84,1.059,2.107,2.107,0,0,1,.275,1.038v.038a2.147,2.147,0,0,1-.275,1.046,4.285,4.285,0,0,1-2.6,1.755C408.154,84.81,407.793,84.162,407.793,83.324Zm4.146,8.667a4.54,4.54,0,0,1-2.982,1.2,2.933,2.933,0,0,1-3.1-2.63c-.007-.083-.025-.163-.025-.248V90.28a2.615,2.615,0,0,1,.066-.557c.236-1.086,1.175-2.083,2.984-2.7l3.059,3.162.885.916A8.021,8.021,0,0,1,411.938,91.991Z" transform="translate(-349.891 -76.38)" fill="#0e3d71"/>
        <path id="Path_921" data-name="Path 921" d="M472.819,81.644l1.709,4.362c1.711-.28,3.465-.575,5.3-.906L475.562,75h-5.4l-5.246,12.409q2.823-.359,5.941-.829Z" transform="translate(-365.539 -75.002)" fill="#0e3d71"/>
        <path id="Path_922" data-name="Path 922" d="M432.459,88.914,434.2,83.9l1.738,4.967c2.789-.083,5.986-.274,9.632-.614l4.339-13.074h-5.8l-3.524,11.7-3.9-11.754h-4.822l-3.9,11.754-3.523-11.7h-5.919l4.35,13.107A64.083,64.083,0,0,0,432.459,88.914Z" transform="translate(-353.455 -75.032)" fill="#0e3d71"/>
        <path id="Path_923" data-name="Path 923" d="M502.335,80.106H508.4V75.2h-17.73v4.909h6.065v3.267q2.864-.423,5.6-.714Z" transform="translate(-372.246 -75.053)" fill="#0e3d71"/>
        <path id="Path_924" data-name="Path 924" d="M566.153,82.1a6.264,6.264,0,0,0-1.791-4.706C563,76.005,560.868,75.2,557.778,75.2H548.22v7.727c2.008.274,3.88.583,5.6.913V80.048h3.667c1.878,0,3.033.808,3.033,2.4V82.5a2.3,2.3,0,0,1-2.153,2.318c2.542.618,4.607,1.237,6.182,1.761a6.391,6.391,0,0,0,1.6-4.425Z" transform="translate(-387.236 -75.053)" fill="#0e3d71"/>
        <path id="Path_925" data-name="Path 925" d="M520.069,81.935q2.862-.1,5.544-.078v-1.9h10.713V75.2H520.069Z" transform="translate(-379.904 -75.053)" fill="#0e3d71"/>
        <path id="Path_926" data-name="Path 926" d="M548.22,99.088h5.6V92.965h2.454l4.072,6.123h6.468L562.376,92.6a94.79,94.79,0,0,0-14.156-3.285Z" transform="translate(-387.236 -78.729)" fill="#0e3d71"/>
        <path id="Path_927" data-name="Path 927" d="M504.471,88.119c-1.827.16-3.69.355-5.6.6v10.06h5.6Z" transform="translate(-374.382 -78.418)" fill="#0e3d71"/>
        <path id="Path_928" data-name="Path 928" d="M467.707,95.9h7.8l1.473,3.61h6.006l-3.63-8.59c-6.109,1.011-11.521,1.748-16.31,2.27l-2.671,6.319h5.891Z" transform="translate(-364.355 -79.147)" fill="#0e3d71"/>
        <path id="Path_929" data-name="Path 929" d="M520.069,87.4V98.587h16.4V93.821H525.613V90.616h9.7V88.077A125.982,125.982,0,0,0,520.069,87.4Z" transform="translate(-379.904 -78.228)" fill="#0e3d71"/>
        <path id="Path_930" data-name="Path 930" d="M444.568,100.683h4.881l1.926-5.8c-3.249.246-6.126.376-8.687.427Z" transform="translate(-359.749 -80.179)" fill="#0e3d71"/>
        <path id="Path_931" data-name="Path 931" d="M426.954,100.6h4.88l1.864-5.369a67.809,67.809,0,0,1-8.746-.66Z" transform="translate(-355.13 -80.1)" fill="#0e3d71"/>
      </g>
      <g id="Group_1158" data-name="Group 1158" transform="translate(16.96 27.666)">
        <path id="Path_932" data-name="Path 932" d="M353.472,120.544l.453-.519a4.526,4.526,0,0,0,3.342,1.385c1.4,0,2.357-.786,2.357-1.851v-.027c0-.986-.519-1.558-2.636-1.984-2.237-.453-3.142-1.212-3.142-2.623V114.9c0-1.384,1.265-2.45,3-2.45a4.651,4.651,0,0,1,3.2,1.132l-.439.546a4.016,4.016,0,0,0-2.784-1.052c-1.372,0-2.277.785-2.277,1.757v.027c0,.986.506,1.585,2.716,2.037,2.157.44,3.063,1.212,3.063,2.571v.027c0,1.5-1.292,2.543-3.09,2.543A5.3,5.3,0,0,1,353.472,120.544Z" transform="translate(-353.472 -112.421)" fill="#47545d"/>
        <path id="Path_933" data-name="Path 933" d="M377.314,117.26v-.027a4.689,4.689,0,1,1,9.374-.027c.013.013.013.013,0,.027a4.689,4.689,0,1,1-9.374.027Zm8.656,0v-.027a4.033,4.033,0,0,0-3.982-4.195,3.989,3.989,0,0,0-3.955,4.168v.027a4.034,4.034,0,0,0,3.982,4.195A3.989,3.989,0,0,0,385.97,117.26Z" transform="translate(-359.682 -112.412)" fill="#47545d"/>
        <path id="Path_934" data-name="Path 934" d="M405.244,112.629h.693v8.681h5.473v.64h-6.166Z" transform="translate(-366.956 -112.469)" fill="#47545d"/>
        <path id="Path_935" data-name="Path 935" d="M427.9,118.075v-5.446h.692v5.379c0,2.2,1.185,3.462,3.156,3.462,1.892,0,3.1-1.145,3.1-3.4v-5.446h.692V118c0,2.676-1.557,4.1-3.821,4.1C429.482,122.1,427.9,120.685,427.9,118.075Z" transform="translate(-372.857 -112.469)" fill="#47545d"/>
        <path id="Path_936" data-name="Path 936" d="M456.2,113.268h-3.25v-.639h7.191v.639h-3.25v8.682H456.2Z" transform="translate(-379.381 -112.469)" fill="#47545d"/>
        <path id="Path_937" data-name="Path 937" d="M477.708,112.629h.692v9.321h-.692Z" transform="translate(-385.83 -112.469)" fill="#47545d"/>
        <path id="Path_938" data-name="Path 938" d="M494.023,117.26v-.027a4.689,4.689,0,1,1,9.374-.027c.013.013.013.013,0,.027a4.689,4.689,0,1,1-9.374.027Zm8.656,0v-.027a4.033,4.033,0,0,0-3.982-4.195,3.989,3.989,0,0,0-3.955,4.168v.027a4.034,4.034,0,0,0,3.982,4.195A3.989,3.989,0,0,0,502.678,117.26Z" transform="translate(-390.08 -112.412)" fill="#47545d"/>
        <path id="Path_939" data-name="Path 939" d="M521.953,112.629h.652l6.433,8.109v-8.109h.666v9.321h-.519l-6.565-8.283v8.283h-.666Z" transform="translate(-397.354 -112.469)" fill="#47545d"/>
        <path id="Path_940" data-name="Path 940" d="M547.435,120.544l.453-.519a4.526,4.526,0,0,0,3.342,1.385c1.4,0,2.357-.786,2.357-1.851v-.027c0-.986-.519-1.558-2.636-1.984-2.237-.453-3.142-1.212-3.142-2.623V114.9c0-1.384,1.265-2.45,3-2.45a4.649,4.649,0,0,1,3.2,1.132l-.439.546a4.016,4.016,0,0,0-2.784-1.052c-1.372,0-2.277.785-2.277,1.757v.027c0,.986.506,1.585,2.717,2.037,2.156.44,3.062,1.212,3.062,2.571v.027c0,1.5-1.292,2.543-3.09,2.543A5.3,5.3,0,0,1,547.435,120.544Z" transform="translate(-403.992 -112.421)" fill="#47545d"/>
      </g>
    </g>
  </g>
</svg>
