<?xml version="1.0" encoding="UTF-8" standalone="no"?>
<svg
   xmlns:dc="http://purl.org/dc/elements/1.1/"
   xmlns:cc="http://creativecommons.org/ns#"
   xmlns:rdf="http://www.w3.org/1999/02/22-rdf-syntax-ns#"
   xmlns:svg="http://www.w3.org/2000/svg"
   xmlns="http://www.w3.org/2000/svg"
   viewBox="0 0 626.66669 192"
   height="192"
   width="626.66669"
   xml:space="preserve"
   version="1.1"
   id="svg2"><metadata
     id="metadata8"><rdf:RDF><cc:Work
         rdf:about=""><dc:format>image/svg+xml</dc:format><dc:type
           rdf:resource="http://purl.org/dc/dcmitype/StillImage" /></cc:Work></rdf:RDF></metadata><defs
     id="defs6"><clipPath
       id="clipPath16"
       clipPathUnits="userSpaceOnUse"><path
         id="path18"
         d="M 0,144 470,144 470,0 0,0 0,144 Z" /></clipPath></defs><g
     transform="matrix(1.3333333,0,0,-1.3333333,0,192)"
     id="g10"><g
       id="g12"><g
         clip-path="url(#clipPath16)"
         id="g14"><g
           transform="translate(59.2729,96.6289)"
           id="g20"><path
             id="path22"
             style="fill:#ffffff;fill-opacity:1;fill-rule:nonzero;stroke:none"
             d="m 0,0 -1.777,-8.33 0.26,0 c 4.725,6.531 11.865,9.992 17.459,10.376 6.616,0.388 12.079,-3.453 13.105,-9.478 l 0.258,0 c 5.074,6.405 11.108,9.478 16.884,9.478 9.608,0 17.081,-5.253 15.006,-14.99 l -12.497,-58.827 -20.392,0 10.908,51.27 c 0.455,3.328 -0.229,6.142 -4.129,5.9 -3.619,-0.146 -5.981,-2.185 -6.768,-5.9 l -10.905,-51.27 -20.372,0 10.901,51.27 c 0.009,3.076 -0.157,5.9 -3.614,5.9 -4.103,0 -6.207,-2.055 -7.283,-5.9 l -10.896,-51.27 -20.38,0 L -18.969,0 0,0 Z" /></g><g
           transform="translate(158.6816,59.7227)"
           id="g24"><path
             id="path26"
             style="fill:#ffffff;fill-opacity:1;fill-rule:nonzero;stroke:none"
             d="m 0,0 c -4.568,-2.184 -8.397,-3.332 -11.371,-5.266 -2.948,-1.783 -5.671,-4.341 -6.706,-9.224 -0.953,-4.489 1.055,-7.678 5.927,-7.678 6.025,0 8.642,6.275 9.748,10.877 L 0,0 Z m -5.283,-28.461 c -6.322,-5.635 -11.342,-8.717 -19.409,-8.717 -11.54,0 -17.051,7.824 -14.621,19.231 3.457,16.281 13.384,21.396 22.991,24.347 9.469,2.95 18.503,3.846 20.131,11.537 0.849,3.975 -0.72,7.432 -4.824,7.432 -7.437,0 -8.521,-5.119 -10.191,-11.144 l -20.376,0 c 2.924,17.939 16.41,24.728 32.815,24.728 20.118,0 26.116,-6.143 22.766,-21.913 l -9.345,-43.956 c -0.572,-2.693 -0.376,-5.385 -0.025,-7.949 l -19.868,0 -0.044,6.404 z" /></g><g
           transform="translate(214.9414,96.6289)"
           id="g28"><path
             id="path30"
             style="fill:#ffffff;fill-opacity:1;fill-rule:nonzero;stroke:none"
             d="m 0,0 -2.319,-10.885 0.249,0 C 1.881,-3.207 7.997,2.046 16.451,2.046 l -4.9,-23.069 c -1.969,0.38 -3.995,0.522 -6.048,0.522 -5.764,0 -8.319,-1.152 -9.955,-7.056 l -9.396,-44.214 -20.388,0 L -18.973,0 0,0 Z" /></g><g
           transform="translate(256.9971,24.8574)"
           id="g32"><path
             id="path34"
             style="fill:#ffffff;fill-opacity:1;fill-rule:nonzero;stroke:none"
             d="m 0,0 1.875,8.836 -0.25,0 C -1.472,3.34 -8.564,-2.313 -14.97,-2.313 c -11.801,0 -17.057,5.393 -14.986,15.139 l 12.527,58.945 20.38,0 -10.93,-51.396 c -0.457,-3.326 -0.181,-6.279 3.72,-6.023 3.615,0.136 6.386,2.308 7.178,6.023 l 10.926,51.396 20.38,0 L 18.972,0 0,0 Z" /></g><g
           transform="translate(326.748,69.9688)"
           id="g36"><path
             id="path38"
             style="fill:#ffffff;fill-opacity:1;fill-rule:nonzero;stroke:none"
             d="m 0,0 0.148,1.286 c 0.174,2.689 0.908,5.508 0.972,8.205 -0.279,2.944 -1.497,4.488 -4.554,4.488 -5.257,0 -7.036,-4.108 -7.998,-8.723 l -6.308,-29.604 c -0.954,-4.492 -0.478,-8.341 4.766,-8.341 7.567,0 8.674,11.293 9.831,16.671 l 19.73,0 c -0.901,-4.232 -3.319,-13.203 -5.294,-17.045 -4.609,-8.968 -13.162,-13.076 -22.195,-13.974 -1.953,-0.129 -3.797,-0.383 -6.87,-0.383 -14.606,0 -23.997,5.899 -20.51,22.301 l 6.214,29.223 C -28.141,22.564 -17.353,28.71 -1.586,28.71 18.479,28.456 24.572,19.733 19.219,0 L 0,0 Z" /></g><g
           transform="translate(386.8213,69.9688)"
           id="g40"><path
             id="path42"
             style="fill:#ffffff;fill-opacity:1;fill-rule:nonzero;stroke:none"
             d="m 0,0 0.152,1.286 c 0.175,2.689 0.908,5.508 0.968,8.205 -0.279,2.944 -1.492,4.488 -4.566,4.488 -5.243,0 -7.024,-4.108 -8.002,-8.723 l -6.287,-29.604 c -0.959,-4.492 -0.491,-8.341 4.758,-8.341 7.561,0 8.677,11.293 9.834,16.671 l 19.725,0 c -0.882,-4.232 -3.304,-13.203 -5.28,-17.045 -4.607,-8.968 -13.162,-13.076 -22.2,-13.974 -1.949,-0.129 -3.801,-0.383 -6.871,-0.383 -14.609,0 -24,5.899 -20.509,22.301 l 6.212,29.223 C -28.141,22.564 -17.344,28.71 -1.577,28.71 18.479,28.456 24.581,19.733 19.228,0 L 0,0 Z" /></g><g
           transform="translate(421.9023,103.6689)"
           id="g44"><path
             id="path46"
             style="fill:#ffffff;fill-opacity:1;fill-rule:nonzero;stroke:none"
             d="m 0,0 3.681,17.307 20.376,0 L 20.372,0 0,0 Z m -16.765,-78.812 15.266,71.772 20.381,0 -15.258,-71.772 -20.389,0 z" /></g></g></g></g></svg>
