<svg width="35px" height="24px" viewBox="0 0 35 24" version="1.1" xmlns="http://www.w3.org/2000/svg" xmlns:xlink="http://www.w3.org/1999/xlink"><g stroke="none" stroke-width="1" fill="none" fill-rule="evenodd"><g><rect fill="#FFFFFF" x="0" y="0" width="35" height="24" rx="2"></rect><path d="M33,6 L33,2 L2,2 L2,6 L33,6 Z M33,12 L2,12 L2,22 L33,22 L33,12 Z M2,0 L33,0 C34.1045695,0 35,0.8954305 35,2 L35,22 C35,23.1045695 34.1045695,24 33,24 L2,24 C0.8954305,24 0,23.1045695 0,22 L0,2 C0,0.8954305 0.8954305,0 2,0 Z" fill="#D1D7E0" fill-rule="nonzero"></path></g></g></svg>
