<svg width="152" height="104" viewBox="0 0 152 104" xmlns="http://www.w3.org/2000/svg" xmlns:xlink="http://www.w3.org/1999/xlink"><defs><rect id="a" width="152" height="104" rx="12"></rect></defs><g fill="none" fill-rule="evenodd"><mask id="b" fill="#fff"><use xlink:href="#a"></use></mask><use fill="#F4F4F4" xlink:href="#a"></use><rect fill="#F4F4F4" mask="url(#b)" x="1" width="152" height="104" rx="12"></rect><path d="M70.553 104H149A3.996 3.996 0 0 0 153 99.993V46.597C142.305 71.907 111.28 93.04 70.553 104z" fill="#F76E20" mask="url(#b)"></path><g transform="translate(19 42)" mask="url(#b)"><path d="M14.763 9.22c0 2.939-.824 5.189-2.47 6.752-1.652 1.56-4.035 2.344-7.15 2.344H.155V.466H5.68c2.876 0 5.106.772 6.691 2.31 1.597 1.536 2.392 3.686 2.392 6.444zm-3.876.1c0-3.834-1.672-5.75-5.004-5.75h-1.99v11.62h1.602c3.596.002 5.392-1.957 5.392-5.87zM17.511 18.316V.466h3.732v17.85H17.51zM34.774 13.608c0 1.616-.57 2.88-1.718 3.81-1.146.927-2.734 1.397-4.773 1.397-1.874 0-3.54-.361-4.987-1.074v-3.517c1.19.543 2.196.915 3.017 1.141.822.217 1.577.326 2.26.326.815 0 1.446-.162 1.882-.476.429-.313.657-.792.657-1.413 0-.35-.095-.66-.292-.933-.188-.276-.474-.54-.85-.79-.374-.249-1.134-.656-2.28-1.208-1.073-.513-1.877-1.009-2.421-1.478a5.401 5.401 0 0 1-1.287-1.649c-.321-.63-.48-1.364-.48-2.2 0-1.578.526-2.819 1.582-3.722C26.143.915 27.598.467 29.464.467c.913 0 1.787.108 2.617.328.83.217 1.7.531 2.606.927l-1.203 2.942c-.94-.39-1.721-.669-2.334-.818a7.531 7.531 0 0 0-1.811-.232c-.709 0-1.253.164-1.626.502-.379.334-.567.768-.567 1.305 0 .334.076.622.229.874.153.25.396.487.729.719.332.232 1.125.648 2.366 1.252 1.643.798 2.771 1.6 3.384 2.4.613.795.92 1.777.92 2.942zM46.018 3.62c-1.406 0-2.49.54-3.263 1.605C41.98 6.295 41.6 7.79 41.6 9.7c0 3.977 1.472 5.97 4.417 5.97 1.238 0 2.727-.306 4.492-.94v3.174c-1.446.613-3.06.916-4.842.916-2.56 0-4.519-.792-5.875-2.368-1.357-1.572-2.034-3.834-2.034-6.782 0-1.856.336-3.481 1.004-4.875.662-1.402 1.623-2.467 2.87-3.212C42.884.84 44.345.467 46.022.467c1.71 0 3.431.42 5.152 1.258l-1.203 3.077a20.29 20.29 0 0 0-1.99-.83 5.828 5.828 0 0 0-1.964-.352zM81.828.467h3.769l-5.979 17.849h-4.07L69.578.466h3.772l3.312 10.622c.182.63.379 1.355.572 2.194.191.836.316 1.408.368 1.737.087-.748.387-2.05.902-3.93L81.828.466zM97.072 18.316H86.933V.466h10.139V3.57h-6.407v3.92h5.964v3.1h-5.964v4.6h6.407v3.126zM105.128 11.467v6.849h-3.732V.466h5.129c2.392 0 4.16.44 5.31 1.327 1.146.882 1.722 2.22 1.722 4.021 0 1.047-.287 1.986-.854 2.801-.57.819-1.376 1.461-2.418 1.925 2.647 4.007 4.37 6.603 5.175 7.773h-4.142l-4.203-6.85-1.987.004zm0-3.077h1.206c1.177 0 2.05-.2 2.612-.596.558-.402.842-1.03.842-1.883 0-.848-.29-1.446-.862-1.807-.573-.36-1.461-.537-2.664-.537h-1.14l.006 4.823z" fill="#414042"></path><ellipse fill="#F76E20" cx="61.024" cy="9.393" rx="8.802" ry="8.926"></ellipse></g></g></svg>
