<svg width="148" height="100" viewBox="0 0 148 100" fill="none" xmlns="http://www.w3.org/2000/svg"><path fill-rule="evenodd" clip-rule="evenodd" d="M55.379 96.61l1.755-11.008-3.91-.09H34.56L47.53 4.282a1.07 1.07 0 011.054-.889h31.471c10.449 0 17.659 2.148 21.424 6.386 1.764 1.988 2.888 4.066 3.432 6.352.57 2.4.58 5.266.023 8.762l-.04.255v2.24l1.765.988c1.486.779 2.667 1.67 3.573 2.69 1.51 1.7 2.486 3.861 2.899 6.423.426 2.634.285 5.77-.413 9.318-.805 4.083-2.107 7.639-3.865 10.548-1.617 2.68-3.677 4.904-6.123 6.628-2.335 1.637-5.11 2.88-8.247 3.675-3.04.782-6.506 1.176-10.307 1.176h-2.45a7.482 7.482 0 00-4.788 1.74 7.3 7.3 0 00-2.496 4.4l-.184.991-3.1 19.402-.141.713c-.037.225-.101.338-.195.414a.523.523 0 01-.322.116H55.379z" fill="#253B80"/><path fill-rule="evenodd" clip-rule="evenodd" d="M108.331 25.407c-.094.593-.201 1.2-.322 1.822-4.151 21.046-18.35 28.317-36.485 28.317h-9.233a4.467 4.467 0 00-4.432 3.75L53.13 88.91l-1.339 8.394c-.224 1.418.883 2.697 2.332 2.697h16.377c1.94 0 3.587-1.392 3.892-3.28l.161-.823 3.083-19.326.198-1.06c.302-1.895 1.953-3.287 3.892-3.287h2.45c15.866 0 28.287-6.363 31.918-24.774 1.516-7.691.731-14.113-3.282-18.63-1.214-1.362-2.721-2.492-4.482-3.413z" fill="#179BD7"/><path fill-rule="evenodd" clip-rule="evenodd" d="M103.989 23.697a33.066 33.066 0 00-1.959-.497 37.99 37.99 0 00-2.077-.388c-2.49-.398-5.218-.586-8.14-.586H67.146c-.608 0-1.185.136-1.701.38a3.89 3.89 0 00-2.188 2.907l-5.248 32.826-.15.958a4.467 4.467 0 014.432-3.751h9.233c18.135 0 32.334-7.274 36.485-28.317.124-.623.228-1.229.322-1.822a22.293 22.293 0 00-3.412-1.422c-.302-.1-.614-.195-.93-.288z" fill="#222D65"/><path fill-rule="evenodd" clip-rule="evenodd" d="M63.257 25.513a3.879 3.879 0 012.188-2.903 3.969 3.969 0 011.7-.381h24.668c2.922 0 5.65.189 8.14.586a37.99 37.99 0 012.077.388c.671.15 1.325.315 1.959.497.315.093.628.19.933.285 1.224.401 2.362.875 3.412 1.422 1.235-7.778-.01-13.073-4.268-17.868C99.372 2.26 90.9 0 80.06 0H48.588c-2.215 0-4.104 1.59-4.446 3.755L31.033 85.82c-.258 1.624 1.01 3.089 2.668 3.089h19.43l4.878-30.57 5.248-32.826z" fill="#253B80"/></svg>
