<svg width="35" height="24" viewBox="0 0 35 24" fill="none" xmlns="http://www.w3.org/2000/svg">
<rect x="0.5" y="0.5" width="34" height="23" rx="3.5" fill="#9A1B27" stroke="#D9D9D9"/>
<path d="M10.7585 11.6521C10.342 11.5032 9.908 11.4092 9.46728 11.3724C9.21284 11.3568 8.96179 11.3061 8.72126 11.2217C8.67104 11.2002 8.62846 11.164 8.59904 11.118C8.56962 11.0719 8.55472 11.0181 8.55627 10.9635C8.55683 10.9145 8.56878 10.8663 8.59119 10.8227C8.61361 10.7791 8.64586 10.7414 8.68539 10.7124C8.81348 10.631 8.96447 10.5933 9.11579 10.6048C9.29386 10.6004 9.46904 10.6505 9.61792 10.7483C9.72359 10.8258 9.79953 10.9372 9.83311 11.0639L11.483 10.8989C11.39 10.6351 11.2434 10.3933 11.0526 10.1888C10.8721 10.009 10.6505 9.87603 10.407 9.80141C10.0132 9.70319 9.60734 9.66212 9.20187 9.67947C8.78712 9.6649 8.37278 9.7182 7.97523 9.83728C7.69474 9.92862 7.44597 10.0978 7.25791 10.3251C7.08012 10.5463 6.98613 10.8232 6.9925 11.1069C6.99243 11.372 7.08078 11.6295 7.24356 11.8386C7.39391 12.0456 7.60058 12.2049 7.83894 12.2977C8.25086 12.4307 8.67316 12.5291 9.10144 12.5918C9.35607 12.6271 9.60617 12.6897 9.84746 12.7783C9.905 12.8017 9.95456 12.8413 9.99019 12.8922C10.0258 12.9431 10.046 13.0032 10.0483 13.0653C10.0493 13.1219 10.0361 13.1779 10.0097 13.228C9.9834 13.2782 9.94486 13.3209 9.89767 13.3522C9.73721 13.4598 9.54518 13.5104 9.3525 13.4957C9.1712 13.5063 8.99097 13.4613 8.83603 13.3665C8.69339 13.2531 8.59042 13.0974 8.54192 12.9218L6.80599 13.0868C6.8914 13.5004 7.13621 13.8637 7.48745 14.0982C8.03527 14.3817 8.65157 14.5059 9.26643 14.4569C9.73996 14.4778 10.2129 14.4047 10.658 14.2417C10.9649 14.1227 11.2278 13.9124 11.4112 13.6391C11.5627 13.4116 11.645 13.1449 11.648 12.8716C11.6476 12.6145 11.5674 12.3638 11.4184 12.1542C11.2565 11.9278 11.0322 11.7533 10.7728 11.6521H10.7585ZM21.3964 12.8931C21.3378 12.9731 21.2611 13.0382 21.1727 13.0831C21.0842 13.128 20.9864 13.1513 20.8871 13.1513C20.7776 13.1533 20.6691 13.1305 20.5697 13.0845C20.4703 13.0386 20.3827 12.9707 20.3133 12.8859C20.1434 12.6541 20.062 12.3691 20.0837 12.0825C20.0534 11.7793 20.1295 11.475 20.2989 11.2217C20.3672 11.138 20.4538 11.0712 20.5521 11.0264C20.6504 10.9816 20.7577 10.9601 20.8656 10.9635C20.9664 10.9649 21.0654 10.9896 21.155 11.0356C21.2446 11.0816 21.3223 11.1478 21.3821 11.2289C21.543 11.4672 21.6189 11.7528 21.5973 12.0395C21.6278 12.3408 21.5572 12.6436 21.3964 12.9003M21.4323 9.67229C21.1366 9.67227 20.8456 9.74625 20.5859 9.88749C20.3448 10.0367 20.1352 10.2317 19.969 10.4614V9.77272H18.3335V16.3219H20.0981V13.9045C20.2639 14.0799 20.4641 14.2191 20.6863 14.3134C20.9211 14.4075 21.1722 14.4539 21.4251 14.4497C21.6848 14.4559 21.9426 14.4051 22.1805 14.301C22.4185 14.197 22.6307 14.042 22.8024 13.8471C23.1922 13.356 23.3841 12.7367 23.3404 12.1112C23.3613 11.494 23.1855 10.886 22.8383 10.3753C22.6823 10.149 22.4716 9.96581 22.2257 9.84289C21.9799 9.71998 21.7069 9.66129 21.4323 9.67229ZM27.2857 12.4627C27.2921 12.6456 27.2553 12.8275 27.1781 12.9935C27.0961 13.1437 26.9713 13.2661 26.8194 13.345C26.6558 13.4392 26.4703 13.4887 26.2814 13.4885C26.1257 13.5005 25.9714 13.4517 25.851 13.3522C25.8063 13.3094 25.7709 13.2579 25.7469 13.2009C25.7229 13.1439 25.7108 13.0825 25.7115 13.0207C25.7122 12.9588 25.7255 12.8977 25.7508 12.8412C25.776 12.7847 25.8126 12.734 25.8582 12.6922C26.0605 12.5521 26.2904 12.4567 26.5325 12.4125C26.7907 12.3455 27.0418 12.269 27.2857 12.1829V12.4627ZM29.0288 13.883C28.9973 13.7176 28.9828 13.5493 28.9858 13.3809V11.3652C28.9829 11.1322 28.9392 10.9016 28.8567 10.6837C28.7878 10.4751 28.6668 10.2874 28.5052 10.1386C28.2814 9.94411 28.0084 9.81506 27.7161 9.76555C27.2986 9.69979 26.8762 9.67099 26.4536 9.67947C26.1508 9.67756 25.8485 9.70156 25.5498 9.7512C25.3199 9.78412 25.097 9.85438 24.8898 9.95922C24.6874 10.062 24.5109 10.2091 24.3734 10.3896C24.2368 10.601 24.1441 10.8376 24.1008 11.0854L25.7721 11.2648C25.8128 11.1028 25.9062 10.959 26.0376 10.8559C26.2359 10.7513 26.4595 10.7041 26.6831 10.7196C26.8493 10.7028 27.0156 10.7488 27.1494 10.8487C27.253 10.9753 27.302 11.1379 27.2857 11.3006C27.0842 11.3837 26.8782 11.4555 26.6688 11.5158C26.4727 11.5636 26.0471 11.6545 25.392 11.7884C24.9765 11.8378 24.586 12.013 24.2729 12.2905C24.0647 12.5252 23.9544 12.8306 23.9645 13.1442C23.9622 13.3211 23.999 13.4964 24.0721 13.6576C24.1453 13.8188 24.253 13.9619 24.3877 14.0767C24.7375 14.3522 25.1773 14.4877 25.6215 14.4569C25.9889 14.4652 26.3544 14.4019 26.6975 14.2704C26.9519 14.156 27.183 13.9955 27.379 13.7969C27.3934 13.894 27.415 13.9899 27.4435 14.0839C27.4783 14.1784 27.5215 14.2696 27.5726 14.3564H29.2081C29.1309 14.2058 29.0708 14.047 29.0288 13.883ZM11.8918 7.9794V16.1569L17.8815 17.2186V6.92493L11.8918 7.9794ZM20.9158 15.9274C20.9102 16.0046 20.9332 16.0812 20.9804 16.1426C20.9964 16.1639 21.0169 16.1814 21.0404 16.1938C21.064 16.2062 21.0901 16.2132 21.1167 16.2143C21.1446 16.2149 21.1723 16.2087 21.1973 16.1962C21.2223 16.1837 21.2439 16.1653 21.2602 16.1426C21.2995 16.0834 21.3173 16.0125 21.3104 15.9417C21.3156 15.8656 21.2954 15.7899 21.253 15.7265C21.2363 15.7043 21.2146 15.6862 21.1897 15.6737C21.1648 15.6613 21.1374 15.6548 21.1095 15.6548C21.0834 15.6545 21.0575 15.6602 21.0339 15.6714C21.0103 15.6826 20.9895 15.699 20.9732 15.7194C20.9303 15.7825 20.91 15.8584 20.9158 15.9346V15.9274ZM21.3104 16.2932V16.2C21.2895 16.2363 21.259 16.2661 21.2224 16.2864C21.1857 16.3066 21.1442 16.3164 21.1023 16.3147C21.0459 16.3139 20.9911 16.2964 20.9445 16.2645C20.894 16.2311 20.8541 16.1838 20.8298 16.1282C20.8031 16.0648 20.7909 15.9962 20.7939 15.9274C20.7935 15.8611 20.8057 15.7954 20.8298 15.7337C20.8504 15.6783 20.8877 15.6307 20.9365 15.5973C20.9853 15.5639 21.0432 15.5464 21.1023 15.5472C21.1414 15.5466 21.1801 15.5555 21.215 15.5729C21.25 15.5904 21.2802 15.616 21.3032 15.6476V15.289H21.4251V16.2932H21.3104Z" fill="#FEFEFE"/>
<mask id="mask0_1854_5393" style="mask-type:luminance" maskUnits="userSpaceOnUse" x="2" y="-4" width="32" height="33">
<path d="M2 28.1363H34V-4H2.00717V28.1363H2Z" fill="white"/>
</mask>
<g mask="url(#mask0_1854_5393)">
<path d="M21.7552 16.3003H21.9059V15.5615H21.7624L21.7552 16.3003ZM21.7552 15.4252H21.9059V15.2817H21.7624L21.7552 15.4252Z" fill="#FEFEFE"/>
</g>
<mask id="mask1_1854_5393" style="mask-type:luminance" maskUnits="userSpaceOnUse" x="2" y="-4" width="32" height="33">
<path d="M2 28.1363H34V-4H2.00717V28.1363H2Z" fill="white"/>
</mask>
<g mask="url(#mask1_1854_5393)">
<path d="M22.207 16.3003V15.5615H22.3218V15.6763C22.3376 15.6356 22.3621 15.5989 22.3935 15.5687C22.419 15.5521 22.4493 15.5445 22.4796 15.5471C22.5234 15.5503 22.5655 15.5651 22.6016 15.5902L22.5585 15.705C22.5328 15.6882 22.5031 15.6783 22.4724 15.6763C22.4468 15.6752 22.4215 15.6828 22.4007 15.6978C22.3765 15.7155 22.3589 15.7407 22.3505 15.7695C22.3362 15.816 22.329 15.8644 22.329 15.913V16.2932L22.207 16.3003Z" fill="#FEFEFE"/>
</g>
<mask id="mask2_1854_5393" style="mask-type:luminance" maskUnits="userSpaceOnUse" x="2" y="-4" width="32" height="33">
<path d="M2 28.1363H34V-4H2.00717V28.1363H2Z" fill="white"/>
</mask>
<g mask="url(#mask2_1854_5393)">
<path d="M22.9101 15.8628H23.319C23.3175 15.8109 23.3 15.7608 23.2688 15.7193C23.2517 15.6974 23.23 15.6796 23.2052 15.6672C23.1803 15.6548 23.1531 15.6481 23.1253 15.6476C23.0988 15.6468 23.0723 15.6515 23.0476 15.6613C23.0229 15.6712 23.0006 15.6861 22.9819 15.705C22.9382 15.7462 22.9125 15.8028 22.9101 15.8628ZM23.319 16.0564L23.4409 16.078C23.4255 16.1459 23.3876 16.2065 23.3334 16.2501C23.2627 16.297 23.1785 16.3189 23.0941 16.3124C23.0096 16.3059 22.9297 16.2713 22.8671 16.2143C22.8003 16.1369 22.7668 16.0364 22.7738 15.9345C22.7684 15.8294 22.8045 15.7264 22.8743 15.6476C22.9056 15.6146 22.9435 15.5886 22.9855 15.5713C23.0275 15.554 23.0727 15.5458 23.1182 15.5471C23.1625 15.5459 23.2066 15.5542 23.2475 15.5715C23.2883 15.5888 23.325 15.6148 23.3549 15.6476C23.4227 15.7271 23.4563 15.8303 23.4481 15.9345V15.9632H22.903C22.9054 16.0295 22.9308 16.0928 22.9747 16.1425C22.9924 16.1637 23.0143 16.181 23.0389 16.1933C23.0636 16.2057 23.0906 16.2128 23.1182 16.2143C23.1626 16.2149 23.2059 16.1997 23.2401 16.1712C23.2747 16.1408 23.2996 16.1009 23.3118 16.0564" fill="#FEFEFE"/>
</g>
<mask id="mask3_1854_5393" style="mask-type:luminance" maskUnits="userSpaceOnUse" x="2" y="-4" width="32" height="33">
<path d="M2 28.1363H34V-4H2.00717V28.1363H2Z" fill="white"/>
</mask>
<g mask="url(#mask3_1854_5393)">
<path d="M24.2157 16.0278L24.3376 16.0421C24.3299 16.1191 24.2941 16.1906 24.2372 16.243C24.1816 16.2912 24.1099 16.3168 24.0363 16.3147C23.9908 16.3166 23.9455 16.3085 23.9034 16.2912C23.8613 16.2739 23.8234 16.2476 23.7924 16.2143C23.7252 16.1344 23.6918 16.0315 23.6992 15.9274C23.6997 15.8582 23.7144 15.7899 23.7422 15.7265C23.7641 15.6695 23.8045 15.6215 23.857 15.5902C23.912 15.5605 23.9738 15.5457 24.0363 15.5472C24.1056 15.5435 24.174 15.5637 24.23 15.6046C24.2808 15.6489 24.3139 15.71 24.3233 15.7767L24.2013 15.7983C24.1952 15.7548 24.1751 15.7144 24.1439 15.6835C24.1137 15.6586 24.0754 15.6458 24.0363 15.6476C24.0087 15.6486 23.9816 15.6556 23.9568 15.6679C23.9321 15.6803 23.9103 15.6978 23.8929 15.7193C23.8463 15.781 23.8234 15.8574 23.8283 15.9345C23.8219 16.0108 23.8422 16.0868 23.8857 16.1497C23.9038 16.1694 23.9261 16.1848 23.9509 16.1947C23.9757 16.2046 24.0025 16.2089 24.0292 16.2071C24.0739 16.2092 24.1176 16.1937 24.1511 16.1641C24.1894 16.1257 24.2123 16.0747 24.2157 16.0206" fill="#FEFEFE"/>
</g>
<mask id="mask4_1854_5393" style="mask-type:luminance" maskUnits="userSpaceOnUse" x="2" y="-4" width="32" height="33">
<path d="M2 28.1363H34V-4H2.00717V28.1363H2Z" fill="white"/>
</mask>
<g mask="url(#mask4_1854_5393)">
<path d="M24.8538 16.1856L24.8682 16.2932C24.8376 16.3011 24.8064 16.3059 24.7749 16.3075C24.7402 16.3085 24.7057 16.3012 24.6745 16.286C24.6494 16.274 24.6291 16.2537 24.6171 16.2286C24.6047 16.1819 24.5998 16.1334 24.6027 16.0851V15.6547H24.5167V15.5615H24.6027V15.3822L24.7247 15.3104V15.5615H24.8538V15.6619H24.7247V16.0923C24.7238 16.1141 24.7262 16.1358 24.7319 16.1569C24.7366 16.1661 24.7442 16.1736 24.7534 16.1784C24.7662 16.1869 24.7811 16.1919 24.7964 16.1927C24.8157 16.1917 24.8349 16.1893 24.8538 16.1856Z" fill="#FEFEFE"/>
</g>
<mask id="mask5_1854_5393" style="mask-type:luminance" maskUnits="userSpaceOnUse" x="2" y="-4" width="32" height="33">
<path d="M2 28.1363H34V-4H2.00717V28.1363H2Z" fill="white"/>
</mask>
<g mask="url(#mask5_1854_5393)">
<path d="M25.6575 15.9274C25.6499 16.0037 25.6703 16.0802 25.7149 16.1426C25.7316 16.1648 25.7533 16.1829 25.7782 16.1954C25.8031 16.2078 25.8305 16.2143 25.8584 16.2143C25.8851 16.2137 25.9113 16.207 25.935 16.1945C25.9587 16.1821 25.9791 16.1643 25.9947 16.1426C26.0341 16.0834 26.0518 16.0124 26.0449 15.9417C26.0501 15.8656 26.0299 15.7899 25.9875 15.7265C25.9708 15.7042 25.9491 15.6862 25.9242 15.6737C25.8993 15.6613 25.8719 15.6548 25.844 15.6548C25.8179 15.6545 25.7921 15.6602 25.7684 15.6713C25.7448 15.6825 25.7241 15.6989 25.7077 15.7193C25.6673 15.7834 25.6496 15.8592 25.6575 15.9345V15.9274ZM26.0449 16.2932V16.1999C26.0246 16.2351 25.9953 16.2643 25.96 16.2845C25.9247 16.3047 25.8847 16.3151 25.844 16.3147C25.7852 16.3153 25.7276 16.2978 25.6791 16.2645C25.6311 16.23 25.5939 16.1828 25.5715 16.1282C25.5424 16.0653 25.5277 15.9967 25.5284 15.9274C25.528 15.8611 25.5402 15.7954 25.5643 15.7337C25.585 15.6783 25.6223 15.6307 25.671 15.5973C25.7198 15.5639 25.7778 15.5464 25.8369 15.5472C25.8759 15.5466 25.9146 15.5554 25.9495 15.5729C25.9845 15.5904 26.0147 15.616 26.0377 15.6476V15.2889H26.1597V16.2932H26.0449Z" fill="#FEFEFE"/>
</g>
<mask id="mask6_1854_5393" style="mask-type:luminance" maskUnits="userSpaceOnUse" x="2" y="-4" width="32" height="33">
<path d="M2 28.1363H34V-4H2.00717V28.1363H2Z" fill="white"/>
</mask>
<g mask="url(#mask6_1854_5393)">
<path d="M26.5902 15.8628H26.9919C26.9925 15.8117 26.9774 15.7616 26.9488 15.7193C26.931 15.6965 26.9081 15.6781 26.882 15.6657C26.8558 15.6532 26.8271 15.647 26.7982 15.6476C26.7716 15.6468 26.7452 15.6515 26.7205 15.6613C26.6958 15.6712 26.6734 15.6861 26.6547 15.705C26.6111 15.7462 26.5854 15.8028 26.583 15.8628M26.9919 16.0565L27.121 16.078C27.1037 16.1469 27.0632 16.2077 27.0062 16.2501C26.9363 16.2952 26.8535 16.3161 26.7706 16.3096C26.6877 16.3031 26.6092 16.2696 26.5471 16.2143C26.4804 16.137 26.4469 16.0364 26.4539 15.9345C26.4465 15.8304 26.4799 15.7275 26.5471 15.6476C26.5784 15.6146 26.6163 15.5886 26.6583 15.5713C26.7004 15.554 26.7456 15.5458 26.791 15.5472C26.8366 15.5448 26.8821 15.5526 26.9242 15.57C26.9664 15.5874 27.0042 15.6139 27.0349 15.6476C27.1028 15.7271 27.1363 15.8303 27.1282 15.9345V15.9632H26.583C26.5855 16.0295 26.6108 16.0928 26.6547 16.1425C26.6724 16.1637 26.6943 16.181 26.719 16.1933C26.7437 16.2057 26.7706 16.2128 26.7982 16.2143C26.8427 16.2149 26.8859 16.1997 26.9201 16.1712C26.9547 16.1408 26.9796 16.1009 26.9919 16.0565Z" fill="#FEFEFE"/>
</g>
<mask id="mask7_1854_5393" style="mask-type:luminance" maskUnits="userSpaceOnUse" x="2" y="-4" width="32" height="33">
<path d="M2 28.1363H34V-4H2.00717V28.1363H2Z" fill="white"/>
</mask>
<g mask="url(#mask7_1854_5393)">
<path d="M27.5296 15.9274C27.5256 15.9916 27.5379 16.0557 27.5655 16.1139C27.5796 16.1393 27.5996 16.161 27.6239 16.1769C27.6482 16.1929 27.676 16.2027 27.705 16.2055C27.7339 16.2084 27.7631 16.2041 27.7901 16.1931C27.817 16.1822 27.8409 16.1648 27.8596 16.1426C27.9062 16.0809 27.9291 16.0045 27.9241 15.9274C27.9305 15.8511 27.9103 15.7751 27.8668 15.7122C27.8497 15.6908 27.8278 15.6738 27.8028 15.6625C27.7779 15.6513 27.7506 15.6462 27.7233 15.6476C27.6967 15.6487 27.6706 15.6557 27.6471 15.6681C27.6235 15.6805 27.603 15.698 27.587 15.7193C27.5435 15.7795 27.5231 15.8534 27.5296 15.9274ZM27.5296 16.2932H27.4148V15.2889H27.5368V15.6476C27.5598 15.616 27.59 15.5904 27.625 15.5729C27.6599 15.5554 27.6986 15.5466 27.7376 15.5472C27.7823 15.5471 27.8264 15.5569 27.8668 15.5759C27.9055 15.5913 27.94 15.6159 27.9672 15.6476C27.9936 15.6844 28.013 15.7258 28.0246 15.7696C28.0388 15.8161 28.046 15.8644 28.0461 15.913C28.0539 16.0194 28.0205 16.1247 27.9528 16.2071C27.9269 16.2396 27.8942 16.266 27.8571 16.2846C27.8199 16.3031 27.7792 16.3134 27.7376 16.3147C27.6965 16.3171 27.6555 16.3084 27.6189 16.2894C27.5823 16.2705 27.5514 16.2421 27.5296 16.2071V16.2932Z" fill="#FEFEFE"/>
</g>
<mask id="mask8_1854_5393" style="mask-type:luminance" maskUnits="userSpaceOnUse" x="2" y="-4" width="32" height="33">
<path d="M2 28.1363H34V-4H2.00717V28.1363H2Z" fill="white"/>
</mask>
<g mask="url(#mask8_1854_5393)">
<path d="M28.3331 16.3003H28.4837V15.5615H28.3402L28.3331 16.3003ZM28.3331 15.4252H28.4837V15.2817H28.3402L28.3331 15.4252Z" fill="#FEFEFE"/>
</g>
<mask id="mask9_1854_5393" style="mask-type:luminance" maskUnits="userSpaceOnUse" x="2" y="-4" width="32" height="33">
<path d="M2 28.1363H34V-4H2.00717V28.1363H2Z" fill="white"/>
</mask>
<g mask="url(#mask9_1854_5393)">
<path d="M29.0575 16.1856L29.079 16.2932C29.0485 16.3011 29.0172 16.3059 28.9857 16.3075C28.9486 16.3098 28.9115 16.3023 28.8781 16.286C28.8557 16.2727 28.8381 16.2526 28.8279 16.2286C28.8155 16.1819 28.8106 16.1334 28.8136 16.0851V15.6547H28.7203V15.5615H28.8136V15.3822L28.9355 15.3104V15.5615H29.0575V15.6619H28.9355V16.0923C28.9323 16.1137 28.9323 16.1355 28.9355 16.1569C28.9421 16.1673 28.9523 16.175 28.9642 16.1784C28.977 16.1869 28.9919 16.1919 29.0072 16.1927C29.0241 16.1914 29.0409 16.189 29.0575 16.1856Z" fill="#FEFEFE"/>
</g>
<mask id="mask10_1854_5393" style="mask-type:luminance" maskUnits="userSpaceOnUse" x="2" y="-4" width="32" height="33">
<path d="M2 28.1363H34V-4H2.00717V28.1363H2Z" fill="white"/>
</mask>
<g mask="url(#mask10_1854_5393)">
<path d="M15.7512 11.6664C15.7463 11.3986 15.6502 11.1405 15.4787 10.9347C15.3912 10.856 15.2883 10.7962 15.1766 10.7591C15.0649 10.722 14.9467 10.7084 14.8295 10.7192C14.7123 10.73 14.5986 10.7649 14.4955 10.8217C14.3924 10.8786 14.3022 10.9561 14.2305 11.0495C14.1091 11.2332 14.0397 11.4464 14.0297 11.6664H15.7512ZM17.523 12.5057H14.0297C14.04 12.7312 14.1174 12.9485 14.252 13.1298C14.3318 13.2269 14.4327 13.3046 14.5471 13.3568C14.6615 13.4091 14.7863 13.4344 14.912 13.431C15.083 13.4309 15.251 13.3864 15.3998 13.3019C15.5194 13.2261 15.624 13.1288 15.7082 13.015L17.4298 13.1728C17.2109 13.5838 16.8801 13.9245 16.4757 14.1555C15.9743 14.3824 15.4257 14.4857 14.8761 14.4568C14.3869 14.4789 13.8991 14.3906 13.4486 14.1986C13.0898 14.0167 12.791 13.7352 12.5878 13.388C12.3548 12.9906 12.238 12.5358 12.2507 12.0753C12.2374 11.7545 12.2911 11.4344 12.4084 11.1355C12.5258 10.8366 12.7041 10.5654 12.9321 10.3394C13.1883 10.1093 13.4876 9.93249 13.8127 9.81919C14.1379 9.70589 14.4822 9.65838 14.8259 9.67941C15.356 9.65389 15.8846 9.75469 16.3681 9.97352C16.7375 10.1641 17.0384 10.465 17.2289 10.8343C17.4437 11.2937 17.5446 11.7981 17.523 12.3048V12.5057Z" fill="#9A1B27"/>
</g>
</svg>
