<svg width="148" height="100" viewBox="0 0 148 100" xmlns="http://www.w3.org/2000/svg"><g fill="none" fill-rule="evenodd"><path d="M148 84c0 6.6-5.55 12-12 12H12C5.55 96 0 90.6 0 84V12C0 5.4 5.55 0 12 0h124c6.45 0 12 5.4 12 12v72z" fill="#F3F4F4"></path><path d="M0 24V12C0 5.4 5.74 0 12 0h124c6.26 0 12 5.4 12 12v12" fill="#01579F"></path><path d="M148 76v12c0 8.667-5.74 12-12 12H12c-6.26 0-12-3.333-12-12V76" fill="#FAA41D"></path><path d="M55.01 65.267l4.72-29.186h7.546l-4.72 29.19H55.01M89.913 36.8c-1.49-.59-3.85-1.242-6.77-1.242-7.452 0-12.7 3.974-12.73 9.656-.063 4.19 3.756 6.52 6.613 7.918 2.92 1.428 3.913 2.36 3.913 3.633-.038 1.957-2.36 2.857-4.54 2.857-3.013 0-4.627-.465-7.08-1.552l-.995-.466-1.055 6.55c1.77.808 5.03 1.52 8.416 1.553 7.92 0 13.075-3.912 13.137-9.967.03-3.322-1.987-5.868-6.334-7.948-2.64-1.336-4.256-2.236-4.256-3.602.032-1.242 1.367-2.514 4.348-2.514 2.453-.06 4.254.53 5.62 1.12l.684.31L89.91 36.8m10.03 18.13c.62-1.675 3.013-8.165 3.013-8.165-.03.062.62-1.707.994-2.794l.525 2.518s1.428 6.987 1.74 8.446H99.94zm9.317-18.846h-5.84c-1.8 0-3.17.53-3.945 2.424L88.265 65.27h7.918s1.305-3.6 1.585-4.377h9.687c.217 1.024.9 4.377.9 4.377h6.987l-6.082-29.19zm-60.555 0l-7.39 19.904-.807-4.037c-1.37-4.653-5.653-9.714-10.435-12.23l6.77 25.52h7.98l11.86-29.153H48.7" fill="#3B5CAA"></path><path d="M34.454 36.08H22.312l-.124.59c9.47 2.423 15.744 8.26 18.32 15.277L37.87 38.534c-.436-1.863-1.77-2.39-3.416-2.453" fill="#F8A51D"></path></g></svg>
