<svg width="19" height="17" viewBox="0 0 19 17" xmlns="http://www.w3.org/2000/svg">
  <path d="M 1 0 C 0.44700697 0 -5.9211895e-016 0.4469975 0 1 C 0 1.5530025 0.44700697 2 1 2 L 2.1640625 2 L 3.8671875 11.357422 C 4.0411897 12.309422 4.868941 13 5.8359375 13 L 15 13 C 15.551998 13 16 12.553003 16 12 C 16 11.446997 15.551998 11 15 11 L 5.8339844 11 L 5.6523438 10 L 14.279297 10 C 15.141293 10 15.904784 9.4498117 16.175781 8.6328125 L 17.947266 3.3164062 C 18.049263 3.0124045 17.998541 2.6750657 17.810547 2.4140625 C 17.622543 2.1530593 17.320996 2 17 2 L 4.1972656 2 L 3.9824219 0.8203125 C 3.8964155 0.34531162 3.4830057 -2.9605947e-016 3 0 L 1 0 z M 4.5605469 4 L 15.611328 4 L 14.279297 8 L 5.2890625 8 L 4.5605469 4 z M 6.5 14 C 5.6720025 14 5 14.671993 5 15.5 C 5 16.327998 5.6720025 17 6.5 17 C 7.3279975 17 8 16.327998 8 15.5 C 8 14.671993 7.3279975 14 6.5 14 z M 13.5 14 C 12.671993 14 12 14.671993 12 15.5 C 12 16.327998 12.671993 17 13.5 17 C 14.327998 17 15 16.327998 15 15.5 C 15 14.671993 14.327998 14 13.5 14 z "/>
</svg>