<svg xmlns="http://www.w3.org/2000/svg" width="45.958" height="26.976" viewBox="0 0 45.958 26.976">
  <path id="ico-email" d="M45.962,24H14.991a4.008,4.008,0,0,0-4,4v1.5a1,1,0,1,0,2,0V28a2.507,2.507,0,0,1,.1-.6l11.189,9.591L13.092,46.579a2.507,2.507,0,0,1-.1-.6v-1.5a1,1,0,0,0-2,0v1.5a4.008,4.008,0,0,0,4,4H45.962a4.008,4.008,0,0,0,4-4V28A4.008,4.008,0,0,0,45.962,24ZM14.591,26.048a.974.974,0,0,1,.4-.05H45.962a.974.974,0,0,1,.4.05L31.125,39.086a1.05,1.05,0,0,1-1.3,0ZM45.962,47.977H14.991a.974.974,0,0,1-.4-.05L25.83,38.287l2.7,2.348a2.907,2.907,0,0,0,3.9,0l2.7-2.348,11.239,9.641A.974.974,0,0,1,45.962,47.977Zm2-2a2.507,2.507,0,0,1-.1.6L36.67,36.988,47.86,27.4a2.507,2.507,0,0,1,.1.6ZM8,34.49a1,1,0,0,1,1-1h5.994a1,1,0,0,1,0,2H9A1,1,0,0,1,8,34.49Zm6.993,5.994H6a1,1,0,0,1,0-2h8.992a1,1,0,0,1,0,2Z" transform="translate(-4.5 -23.5)"/>
</svg>
