<svg xmlns="http://www.w3.org/2000/svg" width="12" height="13" viewBox="0 0 12 13">
  <path d="M0.8205 12.641V5.4615H0V2.51283H3.42817C3.29572 2.39572 3.20406 2.25678 3.15317 2.096C3.10239 1.93533 3.077 1.76656 3.077 1.58967C3.077 1.14811 3.23156 0.772778 3.54067 0.463667C3.84978 0.154556 4.22511 0 4.66667 0C4.92222 0 5.15683 0.0600555 5.3705 0.180167C5.58417 0.300167 5.76833 0.456334 5.923 0.648667C6.07778 0.453779 6.262 0.296944 6.47567 0.178167C6.68933 0.0593889 6.92395 0 7.1795 0C7.62106 0 7.99639 0.154556 8.3055 0.463667C8.61461 0.772778 8.76917 1.14811 8.76917 1.58967C8.76917 1.76322 8.74311 1.93056 8.691 2.09167C8.63889 2.25278 8.54789 2.39317 8.418 2.51283H12V5.4615H11.1795V12.641H0.8205ZM7.1795 0.666667C6.91795 0.666667 6.69872 0.755112 6.52183 0.932001C6.34483 1.10889 6.25633 1.32811 6.25633 1.58967C6.25633 1.85122 6.34483 2.07044 6.52183 2.24733C6.69872 2.42433 6.91795 2.51283 7.1795 2.51283C7.44106 2.51283 7.66028 2.42433 7.83717 2.24733C8.01406 2.07044 8.1025 1.85122 8.1025 1.58967C8.1025 1.32811 8.01406 1.10889 7.83717 0.932001C7.66028 0.755112 7.44106 0.666667 7.1795 0.666667ZM3.74367 1.58967C3.74367 1.85122 3.83211 2.07044 4.009 2.24733C4.18589 2.42433 4.40511 2.51283 4.66667 2.51283C4.92822 2.51283 5.14744 2.42433 5.32433 2.24733C5.50122 2.07044 5.58967 1.85122 5.58967 1.58967C5.58967 1.32811 5.50122 1.10889 5.32433 0.932001C5.14744 0.755112 4.92822 0.666667 4.66667 0.666667C4.40511 0.666667 4.18589 0.755112 4.009 0.932001C3.83211 1.10889 3.74367 1.32811 3.74367 1.58967ZM0.666667 3.1795V4.79483H5.66667V3.1795H0.666667ZM5.66667 11.9743V5.4615H1.48717V11.9743H5.66667ZM6.33333 11.9743H10.5128V5.4615H6.33333V11.9743ZM11.3333 4.79483V3.1795H6.33333V4.79483H11.3333Z"/>
</svg>
