<svg width="16" height="16" viewBox="0 0 16 16" fill="none" xmlns="http://www.w3.org/2000/svg">
<mask id="mask0_4437_17268" style="mask-type:alpha" maskUnits="userSpaceOnUse" x="0" y="0" width="16" height="16">
<rect width="16" height="16" fill="#D9D9D9"/>
</mask>
<g mask="url(#mask0_4437_17268)">
<path d="M2.8205 14.0004V6.82087H2V3.87221H5.42817C5.29572 3.7551 5.20406 3.61615 5.15317 3.45537C5.10239 3.29471 5.077 3.12593 5.077 2.94904C5.077 2.50749 5.23156 2.13215 5.54067 1.82304C5.84978 1.51393 6.22511 1.35938 6.66667 1.35938C6.92222 1.35938 7.15683 1.41943 7.3705 1.53954C7.58417 1.65954 7.76833 1.81571 7.923 2.00804C8.07778 1.81315 8.262 1.65632 8.47567 1.53754C8.68933 1.41876 8.92395 1.35938 9.1795 1.35938C9.62106 1.35938 9.99639 1.51393 10.3055 1.82304C10.6146 2.13215 10.7692 2.50749 10.7692 2.94904C10.7692 3.1226 10.7431 3.28993 10.691 3.45104C10.6389 3.61215 10.5479 3.75254 10.418 3.87221H14V6.82087H13.1795V14.0004H2.8205ZM9.1795 2.02604C8.91795 2.02604 8.69872 2.11449 8.52183 2.29138C8.34483 2.46826 8.25633 2.68749 8.25633 2.94904C8.25633 3.2106 8.34483 3.42982 8.52183 3.60671C8.69872 3.78371 8.91795 3.87221 9.1795 3.87221C9.44106 3.87221 9.66028 3.78371 9.83717 3.60671C10.0141 3.42982 10.1025 3.2106 10.1025 2.94904C10.1025 2.68749 10.0141 2.46826 9.83717 2.29138C9.66028 2.11449 9.44106 2.02604 9.1795 2.02604ZM5.74367 2.94904C5.74367 3.2106 5.83211 3.42982 6.009 3.60671C6.18589 3.78371 6.40511 3.87221 6.66667 3.87221C6.92822 3.87221 7.14744 3.78371 7.32433 3.60671C7.50122 3.42982 7.58967 3.2106 7.58967 2.94904C7.58967 2.68749 7.50122 2.46826 7.32433 2.29138C7.14744 2.11449 6.92822 2.02604 6.66667 2.02604C6.40511 2.02604 6.18589 2.11449 6.009 2.29138C5.83211 2.46826 5.74367 2.68749 5.74367 2.94904ZM2.66667 4.53888V6.15421H7.66667V4.53888H2.66667ZM7.66667 13.3337V6.82087H3.48717V13.3337H7.66667ZM8.33333 13.3337H12.5128V6.82087H8.33333V13.3337ZM13.3333 6.15421V4.53888H8.33333V6.15421H13.3333Z" fill="#979797"/>
</g>
</svg>
