<svg id="ico-instagram" xmlns="http://www.w3.org/2000/svg" width="27.661" height="27.661" viewBox="0 0 27.661 27.661">
  <g id="Group_3430" data-name="Group 3430" transform="translate(21.2 5.118)">
    <g id="Group_3429" data-name="Group 3429">
      <path id="Path_2296" data-name="Path 2296" d="M393.073,94.739a.672.672,0,1,0,.672.672A.672.672,0,0,0,393.073,94.739Z" transform="translate(-392.401 -94.739)" fill="#fff"/>
    </g>
  </g>
  <g id="Group_3432" data-name="Group 3432" transform="translate(7.877 7.877)">
    <g id="Group_3431" data-name="Group 3431">
      <path id="Path_2297" data-name="Path 2297" d="M151.757,145.8a5.953,5.953,0,1,0,5.953,5.953A5.96,5.96,0,0,0,151.757,145.8Z" transform="translate(-145.804 -145.804)" fill="#fff"/>
    </g>
  </g>
  <g id="Group_3434" data-name="Group 3434">
    <g id="Group_3433" data-name="Group 3433">
      <path id="Path_2298" data-name="Path 2298" d="M20.078,0H7.583A7.591,7.591,0,0,0,0,7.583v12.5a7.591,7.591,0,0,0,7.583,7.583h12.5a7.591,7.591,0,0,0,7.583-7.583V7.583A7.591,7.591,0,0,0,20.078,0ZM13.83,21.417a7.587,7.587,0,1,1,7.587-7.587A7.6,7.6,0,0,1,13.83,21.417ZM21.871,8.095A2.305,2.305,0,1,1,24.176,5.79,2.308,2.308,0,0,1,21.871,8.095Z" fill="#fff"/>
    </g>
  </g>
</svg>
