<svg id="ico-linkedin" xmlns="http://www.w3.org/2000/svg" width="28.973" height="28.973" viewBox="0 0 28.973 28.973">
  <path id="Path_2293" data-name="Path 2293" d="M27.207,27.4h.007V16.776c0-5.2-1.119-9.2-7.2-9.2A6.309,6.309,0,0,0,14.335,10.7h-.085V8.059H8.489V27.4h6V17.824c0-2.522.478-4.96,3.6-4.96,3.077,0,3.123,2.878,3.123,5.122V27.4Z" transform="translate(1.759 1.569)" fill="#fff"/>
  <path id="Path_2294" data-name="Path 2294" d="M.4,7.977H6.4V27.32H.4Z" transform="translate(0.082 1.653)" fill="#fff"/>
  <path id="Path_2295" data-name="Path 2295" d="M3.479,0A3.5,3.5,0,1,0,6.958,3.479,3.48,3.48,0,0,0,3.479,0Z" transform="translate(0 0)" fill="#fff"/>
</svg>
