<svg xmlns="http://www.w3.org/2000/svg" viewBox="0 0 49.866 49.866"><path d="M13.201 18.265h-1.658c-.415.001-.454.042-.454.462v12.291c0 .343.059.4.397.402.542.003 1.085 0 1.629 0 .511 0 .558-.045.558-.549V20.438v-1.715c-.001-.389-.073-.457-.472-.458zM2.339 18.266a85.129 85.129 0 0 0-1.516.001c-.53.008-.823.31-.823.842v11.866c0 .349.047.396.397.396.514.004 1.029.004 1.543 0 .54-.004.811-.273.811-.81V18.695c.001-.347-.072-.426-.412-.429zM9.724 31.072c-.147-1.464-.68-2.763-1.705-3.836-1.104-1.154-2.462-1.789-3.943-1.936-.478-.009-.482-.009-.469.352.005.133.031.264.051.396.265 1.755 1.123 3.153 2.551 4.198.936.688 1.995 1.045 3.148 1.153.343.033.401.009.367-.327zM9.365 18.298c-.131.021-.267.013-.397.033-1.502.239-2.777.904-3.791 2.043-.929 1.042-1.445 2.271-1.567 3.659-.031.362-.011.363.37.412.523-.129 1.067-.208 1.567-.398 2.497-.948 3.863-2.788 4.178-5.428.04-.335-.016-.373-.36-.321zM22.763 24.496c-.038-1.457-.867-2.432-2.269-2.777-1.555-.386-3.096-.16-4.629.167-.182.038-.257.169-.253.36.008.341.002.685.002 1.028 0 .489.064.513.548.484a52.359 52.359 0 0 1 2.964-.098c.59 0 .948.333 1.046.867.031.166.019.342.019.513.002.663.001.669-.653.661-.914-.009-1.825.021-2.71.289-.914.274-1.571.815-1.769 1.789a4.336 4.336 0 0 0 .039 1.896c.212.875.742 1.471 1.608 1.729.962.283 1.915.242 2.83-.201.262-.127.511-.283.804-.446.012.091.021.137.023.184.022.43.076.484.512.484.514.001 1.028.002 1.543 0 .299-.002.405-.097.404-.388-.013-2.181-.002-4.363-.059-6.541zm-2.825 4.912c-.56.217-1.126.334-1.727.23-.374-.064-.648-.286-.68-.666a3.803 3.803 0 0 1 .06-1.044c.073-.362.339-.627.702-.673.592-.073 1.191-.089 1.787-.11.053-.002.154.127.159.201.019.294.008.59.008.885 0 .23-.018.46.005.687.03.264-.073.398-.314.49zM48.592 20.968v.075h.21v.613h.09v-.613h.21v-.075zM49.823 20.968h-.119l-.123.333c-.029.087-.055.162-.072.232h-.001c-.021-.072-.042-.148-.07-.232l-.117-.333h-.113l-.047.688h.084l.02-.296a9.67 9.67 0 0 0 .013-.304h.002c.021.081.047.17.079.267l.112.329h.067l.121-.335c.035-.095.062-.181.086-.261h.002c0 .084.006.202.013.297l.016.303h.09l-.043-.688zM39.115 25.146a7.65 7.65 0 0 0-.18-1.557c-.225-1.055-.83-1.798-1.941-1.992-1.213-.215-2.369-.043-3.41.663-.102.068-.204.13-.379.241-.008-.205-.02-.332-.022-.461-.008-.336-.066-.399-.404-.401-.537-.003-1.069-.004-1.602.001-.314.002-.408.1-.408.413v8.918c0 .349.094.445.436.447.591.002 1.182-.006 1.773.005.264.003.383-.101.378-.372-.01-.59-.003-1.18-.003-1.772 0-1.572-.003-3.144.006-4.716 0-.13.034-.325.121-.379.656-.404 1.36-.652 2.143-.522.431.071.733.324.814.769.057.308.1.621.1.933.012 1.869.006 3.736.006 5.604 0 .407.047.452.464.452.534.003 1.069.003 1.602 0 .461 0 .514-.051.514-.502 0-1.922.013-3.846-.008-5.772zM48.216 25.035a5.978 5.978 0 0 0-.06-.884c-.178-1.14-.789-1.954-1.896-2.323a5.778 5.778 0 0 0-1.446-.293c-1.164-.073-2.314.066-3.453.323-.25.058-.355.194-.354.438v.943c0 .506.07.545.562.519.98-.055 1.959-.099 2.938-.105.632-.002.986.323 1.093.948.048.28.022.571.037.854.01.188-.079.25-.259.244-.41-.006-.825-.041-1.229.008-.695.082-1.4.162-2.072.35-.891.251-1.469.874-1.615 1.812-.059.389-.049.793-.03 1.189.076 1.608 1.303 2.664 2.908 2.534.811-.063 1.575-.256 2.239-.751.045-.032.102-.05.164-.078.029.044.047.055.049.073a.87.87 0 0 1 .017.144c.022.415.049.44.475.44.496.003.99.003 1.486 0 .399 0 .448-.045.448-.438.001-1.982.003-3.965-.002-5.947zm-2.519 3.974c.007.182-.071.278-.23.349-.585.259-1.186.392-1.829.287-.463-.079-.734-.393-.726-.975.015-.989.233-1.436 1.436-1.527.359-.028.724.001 1.085-.007.203-.009.268.086.264.274-.009.276-.004.554-.004.828.002.256-.008.512.004.771zM29.692 21.877c.001-.255-.113-.364-.366-.354a3.64 3.64 0 0 0-2.018.701c-.082.06-.164.115-.287.203-.01-.137-.021-.218-.021-.3-.008-.41-.08-.486-.481-.486-.517-.002-1.029-.001-1.544-.001-.471.001-.549.077-.549.546v8.718c0 .422.093.516.494.516.542.003 1.087.003 1.63 0 .438 0 .508-.066.508-.518.001-2.113.003-4.229-.004-6.347 0-.209.061-.328.253-.419.636-.299 1.288-.523 2.003-.494.262.011.389-.088.383-.365a34.39 34.39 0 0 1-.001-1.4z"/></svg>
