<svg xmlns="http://www.w3.org/2000/svg" viewBox="0 0 558.94 628.94"><defs><style>.cls-1{fill:#f8f8f8;}.cls-2{fill:#fbfbfb;}.cls-3{fill:#f9f9f9;}.cls-4{fill:#092c74;}.cls-5{fill:#7bd0d1;}.cls-6{fill:#fafdfd;}.cls-7{fill:#f9fcfc;}.cls-8{fill:#f5fbfb;}.cls-9{fill:#7ed1d2;}.cls-10{fill:#78cfd0;}.cls-11{fill:#edf8f8;}.cls-12{fill:#f0f9f9;}.cls-13{fill:#f3fafa;}.cls-14{fill:#e7f6f6;}.cls-15{fill:#c4eaea;}.cls-16{fill:#b0e3e3;}.cls-17{fill:#eaf7f7;}.cls-18{fill:#84d3d4;}.cls-19{fill:#b7e5e6;}.cls-20{fill:#e4f5f5;}.cls-21{fill:#e1f4f4;}.cls-22{fill:#dff3f3;}.cls-23{fill:#87d4d5;}.cls-24{fill:#81d2d3;}.cls-25{fill:#d9f1f1;}.cls-26{fill:#8ad5d6;}.cls-27{fill:#c0e8e9;}.cls-28{fill:#8cd6d7;}.cls-29{fill:#ace1e2;}.cls-30{fill:#caecec;}.cls-31{fill:#dbf2f2;}.cls-32{fill:#a9e0e1;}.cls-33{fill:#d0eeee;}.cls-34{fill:#c7ebeb;}.cls-35{fill:#b3e4e4;}.cls-36{fill:#bde7e8;}.cls-37{fill:#92d8d9;}.cls-38{fill:#8fd7d8;}.cls-39{fill:#bae6e7;}.cls-40{fill:#cdeded;}.cls-41{fill:#95d9da;}.cls-42{fill:#a0ddde;}.cls-43{fill:#d5f0f0;}.cls-44{fill:#a3dedf;}.cls-45{fill:#d3efef;}.cls-46{fill:#a6dfe0;}.cls-47{fill:#9ddcdd;}.cls-48{fill:#98dadb;}.cls-49{fill:#9bdbdc;}.cls-50{fill:#76cecf;}.cls-51{fill:#f5f5f5;}.cls-52{fill:#f6f6f6;}.cls-53{fill:#fefefe;}.cls-54{fill:#f4f4f4;}.cls-55{fill:#f1f1f1;}.cls-56{fill:#eee;}.cls-57{fill:#ececec;}.cls-58{fill:#ededed;}.cls-59{fill:#eaeaea;}</style></defs><g id="Layer_2" data-name="Layer 2"><g id="Layer_1-2" data-name="Layer 1"><path class="cls-1" d="M414,628.94H335c.54-2.86,2.92-2.29,4.73-2.34,6.49-.16,13-.28,19.47,0,11.15.45,22.21-1.53,33.36-1.1a7.77,7.77,0,0,0,3.38-.73c3.32-1.74,6.87-2.14,10.61-2.25a260.57,260.57,0,0,0,49.38-5.86,37.12,37.12,0,0,0,10.24-3.88c1.58-.89,3.43-1.82,3.3-4-.11-1.88-1.77-2.79-3.29-3.43-4.45-1.85-8.83-3.88-13.6-4.9-15.49-3.29-31.22-4.22-47-5.25-18.08-1.19-36.17-1.63-54.27-2.11-8.29-.22-16.59-.6-24.89-.83-2-.06-4.59.34-4.87-2.88,2.46-3.64,6.6-2.82,10.07-3.81,3.35-.13,6.52-2.14,10-1a5.53,5.53,0,0,0,3.32.86c11.11-1,22.11,1,33.18,1.3,19.17.48,38.35,1.37,57.46,3.45,6.88.75,13.83,1.5,20.78,1.72a7.16,7.16,0,0,1,1.72.32c2.82,1.59,6,1.77,9.11,2.27,6.51,1.06,12.42,3.77,18,7,6.61,3.81,6.43,11,.08,15.12-6.58,4.24-14.05,5.89-21.53,7.38a252.49,252.49,0,0,1-47,4.4C415.84,628.44,414.8,628.19,414,628.94Z"/><path class="cls-2" d="M82.05,628.94c-.75-1.91-2.53-1.81-4.13-2.22-8.31-2.13-16.68-4.05-24.42-8-4.16-2.12-6-5.47-6.42-9.88s2.11-6.84,5.8-8.91c11.64-6.53,24.46-8.74,37.33-11C107,586,124.06,586,141,584.34c13.64-1.34,27.44-1.2,41.17-1.28,5,0,9.85-1.31,14.83-1.11,1.69.06,1.38-1,1-2,1.82-1.37,3.57-.22,5.35.11,3.19,1,6.48,1.56,9.67,2.49,1.73.51,3.63.84,4.42,2.85-.12,2.42-1.83,2.25-3.56,2.33-17.24.82-34.5.23-51.74,1.38-7.94.54-15.94.65-23.88,1.31C116.93,592.24,95.41,593,75,600.65a18.22,18.22,0,0,0-6.5,3.6c-4,3.81-3.67,7.77,1,10.65a46.22,46.22,0,0,0,14,5.23c17,3.91,34.23,6.66,51.79,6.5,1.8,0,4.18-.54,4.73,2.31Z"/><path class="cls-1" d="M397,625.94a10.33,10.33,0,0,1-4.78,1c-17.67.9-35.35,1.15-53,1-1.44,0-3-.42-4.16,1H165a4,4,0,0,0-2.29-.9c-9.48.31-18.92-.7-28.37-1a164.76,164.76,0,0,1-18.24-1.54c-9.36-1.38-18.76-2.41-27.87-5.19-4.35-1.33-8.5-3-11.93-6-4.08-3.61-4-7.54.37-10.89a33.23,33.23,0,0,1,10.15-5.21c13.25-4.31,27-5.28,40.73-6.72,13.54-1.42,27.15-1.59,40.71-2.7,10.26-.85,20.61.38,30.89-.79,9.57-1.09,19.23.88,28.77-1,3.37-.36,6.69-.51,9.27,2.31-1.06,3-3.68,3-6.12,3-6.09.14-12.18,0-18.27.06A17,17,0,0,0,207,593c-5.23.64-10.48.2-15.72.35s-10.78-.63-16.12.6a46.52,46.52,0,0,1-8,.38c-4.6.2-9.24-.54-13.8.54a17.89,17.89,0,0,1-4.25.43c-3.29.15-6.61-.41-9.85.55a17.79,17.79,0,0,1-4,.43c-2.59.09-5.2-.3-7.75.46a11.52,11.52,0,0,1-2.25.39c-2.41.2-4.87-.19-7.26.43a13.59,13.59,0,0,1-1.4.34c-1.86.3-3.78.22-5.59.88-1.62.4-3.24.8-4.88,1.16a26.54,26.54,0,0,0-4.91.84c-2.82.61-5.2,2.34-8,3.11-.79.2-1.62.23-2.4.44-2,.54-3.76,1.28-4.24,3.56-.55,2.6,1.34,3.81,3,5.15s3.9,1.61,5.92,2.23c4.93,1.77,10.09,2.63,15.18,3.71,2.11.79,4.36.6,6.54.93a12.11,12.11,0,0,1,1.45.32c2.18.69,4.43.33,6.65.44a14.29,14.29,0,0,1,3.18.41c2.51.81,5.11.32,7.66.56,7.18,1.79,14.58,1.09,21.83,1.53,9.77.58,19.58,1.07,29.37,1.45,27.77,1.07,55.56.81,83.34.92,24.25.1,48.54.64,72.75-.33,15.76-.62,31.58.2,47.3-1.6C392.89,623.37,395.83,622.65,397,625.94Z"/><path class="cls-3" d="M228,588c-3.13,2.06-7.09,1.7-10.08,1.33-10.86-1.33-21.53.58-32.28.69-7.92.09-15.86.42-23.77.69-19.06.67-38,2.25-56.89,4.58-9,1.11-18.27,3.05-26.31,8.29-5.46,3.57-5.81,6.93-.31,10.49,9.16,5.93,19.66,7.47,30.19,8.83,7.89,1,15.79,2,23.62,3.32,1.78.3,3.22-.28,4.82-.34,8.32-.31,16.52,1.77,24.85,1.1a3.09,3.09,0,0,1,3.18,2H140c-1.48-1.64-3.44-1-5.18-1-14.3.35-28.43-1.48-42.35-4.32-7.2-1.46-14.67-2.57-21.34-6.15-3.48-1.87-7.58-3.17-7.12-8.4s4.13-7.36,8.16-9a118.48,118.48,0,0,1,27.27-7.15c14-2.2,28.24-2.91,42.39-4.06,19-1.54,38.07-1.92,57.15-2.07,5.37,0,10.72-1.33,16.12,0,1.26.3,1.72-.67,1.87-1.77C221.24,583.92,225.08,584.27,228,588Z"/><path class="cls-2" d="M457.94,593h-1c-4.74-1.78-9.79-2.05-14.7-2.4-27.53-2-55.06-3.93-82.68-4.24-3.22,0-6.77-.28-9.68-2.32,1.86-4.32,6.24-3.48,9.63-4.68A2.37,2.37,0,0,1,361,580c2.33,3.11,6,2.81,9.06,2.85q26.4.31,52.73,2.2c19.78,1.41,39.65,2.39,59,7,7.49,1.78,15.18,3.17,21.69,8.12,9.32,7.07,6.57,13.17-1.54,18.56-5.11,3.38-11.24,4.59-17.1,6.34-3.68,1.1-8,.45-10.9,3.89h-26c.35-3,2.69-2.76,4.78-3,12.07-1.39,23.93-3.71,35.27-8.24a41.11,41.11,0,0,0,4.54-2c2.86-1.59,6.72-2.63,6.63-6.64-.11-4.32-4-6-7.34-7.24C480.82,597.77,469.86,593.49,457.94,593Z"/><path class="cls-2" d="M457.94,593c5.71-2.61,11.28-.25,16.33,1.54s10.62,2.28,15.56,5c2.51,1.39,5.3,2.36,7.68,4.17,4.9,3.73,4.8,8.22-.64,11.23A82.52,82.52,0,0,1,471.8,624c-6.63,1.22-13.1,3.35-20,3a4.72,4.72,0,0,0-3.88,1.93H414c4.47-2.13,9.41-1.35,14.05-1.78,15.63-1.45,31.18-3.11,46.42-7.1,3.79-1,7.05-2.89,10.38-4.7,2.27-1.24,4.7-2.57,4.16-6A9.11,9.11,0,0,0,483.7,602c-7-3.41-14.23-6.3-22.1-7C460,594.84,458.65,594.55,457.94,593Z"/><path class="cls-4" d="M234.93,197.71q43.23,0,86.46,0c10.1,0,13.76,3.71,13.79,13.9,0,8.66.23,17.34-.1,26-.15,3.94,1.19,4.71,4.79,4.57,7.16-.27,14.33-.08,21.49-.08a30.08,30.08,0,0,1,22,9.09c9.56,9.52,18.71,19.51,28.77,28.47,9.6,8.54,12.73,19,12.6,31.2-.22,19.82-.1,39.65-.25,59.48,0,3.2,0,5.39,4.06,6.4,4.73,1.19,7.38,6.13,7.11,10.88-.31,5.34-2.77,8.3-8.44,9.63-7.07,1.65-14.28.52-21.41.67-2.61.05-3.65.49-3.89,3.45a44.49,44.49,0,0,1-88.6,1.4c-.43-4.31-1.76-4.91-5.57-4.87-19.16.2-38.32.14-57.48,0-2.87,0-4.16.28-4.47,3.82a44.49,44.49,0,0,1-88.7-.38c-.24-3-1.25-3.53-3.89-3.42a34.6,34.6,0,0,1-10.91-.79c-4.8-1.32-7.36-4.29-7.67-9.22-.1-1.66-.13-3.33-.13-5q0-85,0-169.94c0-12,3.35-15.31,15.5-15.31Z"/><path class="cls-5" d="M319.18,36a49.59,49.59,0,0,1,5.47.3c8.87,1.41,8.86,1.44,12.81-6.4,4.84-9.64,9.68-19.28,15-29.89l25.67,40c-3,9-7.36,17.38-11,26.06-3.18,7.48-5.7,15.18-8.78,22.68-3.78,9.21-6,19-10.81,27.83-1.83,3.37-.06,7.41-2.53,10.49a352.25,352.25,0,0,1-37,2.08c-3.92-4.43-2.55-9.27-1.91-14.52,1.66-13.65,4.37-27.15,5.62-40.86.87-9.58,2.15-19.14,5.07-28.37a12.78,12.78,0,0,0-.1-6.86C316.21,36.61,316.55,35,319.18,36Z"/><path class="cls-6" d="M468.94,222c-4.51-8.09-9-16.17-13.52-24.27-.8-1.45-.44-2.79.49-4.18,5.58-8.36,11.36-16.59,14.91-26.13,1.15-3.08,4.19-4.58,6.67-6.53,7-5.57,14.8-9.89,22.71-14,2.91-1.51,4.7.75,5.05,2.38,1,4.61,4.75,7.22,7.34,10.35,8.83,10.71,14.64,23,20.33,35.41-17.43,6.07-34.09,14-51.35,20.5C477,217.24,473.31,220.2,468.94,222Z"/><path class="cls-7" d="M468.94,222c4.43-6.43,12-7.14,18.38-9.91,12.71-5.49,25.59-10.6,38.33-16,2.43-1,4.8-1,7.27-1.05,7.17,13.91,11.71,28.82,16.63,43.59.56,1.65.26,3.59.36,5.4-5.91,2.41-12.34,1.43-18.48,3.14-13.87,3.87-28.2,5.74-42.35,8.42-2.39.45-4.49,2.34-7.15,1.43A285.31,285.31,0,0,0,468.94,222Z"/><path class="cls-8" d="M481.93,257c7.39-4.11,15.84-4,23.78-5.94,10-2.41,20.28-3.29,30.17-6.36,4.46-1.39,9.32-1.16,14-.69,3.5,8.61,4.4,17.81,5.93,26.85,1,6,1.4,12.09,2.07,18.14-2,3.18-4.52,3.52-8.35,3.32a126.72,126.72,0,0,0-21.33.48,76.72,76.72,0,0,1-19.33,0,37.38,37.38,0,0,0-13.32.65,9.77,9.77,0,0,0-6.65,4.53c-2.25-4.41-1.09-9.32-1.7-14C486,274.89,483.64,266,481.93,257Z"/><path class="cls-9" d="M319.18,36c-.76.21-2.23.53-1.71,1.24,4,5.36.08,10.47-1.09,15.13-1.71,6.79-2,13.68-3.28,20.47-2,10.58-1.69,21.47-4.65,32-1.48,5.27-.47,11.17-2.37,16.6a4.22,4.22,0,0,0,2.15,5.14c2.17,1.21-.19,1.7-.27,2.53-6.61,2-13.49,0-21.43,2,2.61-5.28,4.73-9.59,6.87-13.89,1.4-2.81,2.84-5.61,4.24-8.42,2.49-5,2.38-5.15-3.25-5.62-1.49-.13-3-.19-4.46-.28-3.43-.79-6.92-.34-10.38-.31-2.55,0-3.59-1.16-3.9-3.45a39.34,39.34,0,0,1-.21-4.47c-.25-11.58.51-23.16-.88-34.74-.89-7.42.54-14.86.74-22.31a6.73,6.73,0,0,1,1.7-4.56C291.14,32.8,305.26,32.94,319.18,36Z"/><path class="cls-10" d="M345,127c-1.74-7.45,2.95-13.28,5.1-19.72,4.17-12.51,9.09-24.75,13.42-37.21a91,91,0,0,1,6.31-14.35c2.5-4.44,3.73-9.38,6.26-13.75a4.45,4.45,0,0,1,2.08-2c8.64,12.45,17.25,24.91,24.75,38.1-8.17,12.08-14.62,25.14-21.48,38-1.56,2.93-5.14,5-4.27,9.11-5.92,1.58-12,.76-18,1-2.64,1.05-5.49-.2-8.14.76Z"/><path class="cls-11" d="M476.94,383q4-13.49,8-27c2.11-3.68,5.4-3.41,8.73-2.45,12.9,3.72,25.95,6.81,39,9.9,5.48,1.3,11.05,2.18,16.18,4.63,1.62.77,4.19.94,3.08,3.92,0,6.38-2.39,12.25-4.1,18.23-2.21,7.72-4.31,15.51-7.9,22.76-5.42-6.32-13.18-8.88-20.43-11.77-11.73-4.67-23.43-9.36-34.75-15C482.2,385,479.41,384.4,476.94,383Z"/><path class="cls-12" d="M551.92,372c-3.08-4.16-8.19-4.86-12.43-5.73-9.69-2-19.15-4.84-28.81-6.8-6.55-1.33-12.75-3.75-19.23-5.22-2.63-.6-4.43.89-6.52,1.75.24-7.44,3-14.53,3-22,1.29-1.83-.26-4.15,1-6v-6a3.55,3.55,0,0,1,2.81-.67c19.14,2.25,38.4,3.45,57.43,6.6,3.46.57,7.5.5,8.74,5.07v1c-1.38,2.53.33,5.45-1,8A117,117,0,0,1,551.92,372Z"/><path class="cls-13" d="M557.91,333c-2.35-3.55-6.38-3.34-9.79-3.85-13-1.93-26-3.45-39.08-5.1a5.52,5.52,0,0,0-2.46,0c-6.25,2.28-11.82-.9-17.65-2V298c0-3.16-.3-4.84,4.65-5.64,6.69-1.07,13-.8,19.55-.49,11.56.54,23.11-.76,34.65-1.66.16,0,.37-.16.48-.1,3.47,1.85,6.62.89,9.65-1.1,1.31,9.87,1,19.79,1,29.7C558.94,323.51,559.11,328.31,557.91,333Z"/><path class="cls-14" d="M525.93,443a149.73,149.73,0,0,1-22,35,5.21,5.21,0,0,1-4.29-2.18c-6.22-7.2-14.55-11.95-21.46-18.43-4.73-4.44-11.42-7.16-16.41-11.8-4.07-3.78-8.81-7-10.82-12.59l15-24c4.72-.49,8.08,2.78,11.55,4.88,15.44,9.31,30.45,19.32,46.5,27.59A5.85,5.85,0,0,1,525.93,443Z"/><path class="cls-15" d="M174,571c-11.91-4.5-23.49-9.66-34-16.91-.45-3.43,1.59-6,3.23-8.57,6.59-10.32,11.57-21.45,16.93-32.39a5.42,5.42,0,0,1,1.41-2c3.85-3,5.49-7.3,7.07-11.73.79-2.22.71-5.07,3.39-6.34l24,12c4.34,1.66,4.51,4.84,2.91,8.46q-6.06,13.66-10.92,27.79c-2.61,7.51-5.75,14.82-8,22.46C179.08,566.85,177.87,570.08,174,571Z"/><path class="cls-16" d="M27,431c-6.77-12-10.94-24.94-14.82-38,4.65-2.25,10.12-1.39,14.69-4,7.85-4.5,16.81-5.87,25.17-8.87,5.58-2,11.06-4.31,16.74-6.12,3.34-1.06,4.6-5.3,8.33-6q5.55,15.48,11.08,31c-3.55,4-8.13,6.61-12.89,8.86-11.78,5.59-23.78,10.77-34.55,18.25-3.77,2.62-8.86,2.48-12.21,6C28.15,432.4,27.43,431.45,27,431Z"/><path class="cls-17" d="M525.93,443c-5.52-1.1-10-4.53-14.78-7.12-10-5.45-19.47-11.94-29.25-17.85-5.23-3.17-10.64-6-16-9,3.43-8.77,8.12-17,11-26,1.49-.95,3.05-.37,4.28.27,17.68,9.14,36.63,15.37,54.58,23.86,2.39,1.13,3.44,3.42,4.12,5.87A146.18,146.18,0,0,1,525.93,443Z"/><path class="cls-18" d="M206,43c11.95-4.29,24.4-6.22,36.93-7.77,1.86,9.15,1.68,18.53,3.31,27.72,1.37,7.68,2.56,15.41,4.17,23,1.16,5.46.76,10.94,1.36,16.38a2.84,2.84,0,0,1-.76,1.81l-24.91,4.92c-3,1.42-3.76-.68-4.52-2.81-3.12-8.73-5.6-17.67-8.19-26.56-2.95-10.16-6.08-20.29-8.64-30.56C204.21,46.89,203.37,44.6,206,43Z"/><path class="cls-19" d="M100.11,421.84l14,20c.75,1.43,1.84,2.67.13,4.37-8.2,8.12-15.82,16.76-25,23.89-4.19,3.24-8.47,6.81-11.77,11.23-2.41,3.23-6.14,5-9.23,7.48-1.77,1.42-4.13.35-6-.86C54.7,478.83,47.63,469.42,42,459c3.23-4.56,8.49-6.15,13.05-8.63,7.44-4.05,14.18-9.11,21-14.06,5.89-4.29,12.24-7.85,18.08-12.2C95.86,422.8,98.89,424.69,100.11,421.84Z"/><path class="cls-20" d="M451,433c8,8.34,15.49,17.29,26.6,21.8,2.89,1.18,3.47,4.41,5.78,6.06A179.5,179.5,0,0,1,503.94,478c-3.79,7-9.44,12.5-14.29,18.65-2.62,3.33-5.8,6.21-8.73,9.3-3.78-1.24-5.25-5-7.93-7.39-7.15-6.48-13.7-13.55-20.24-20.63-5-5.37-10.22-10.46-15.51-15.51-1.87-1.79-4.22-3.4-4.31-6.44Z"/><path class="cls-21" d="M432.93,456c7.68,7.85,15.7,15.4,23,23.62,8,9.1,17.67,16.64,25,26.35-7.57,9.18-17.07,16.27-26,24a10.46,10.46,0,0,1-6.51-5.79c-2.87-6.78-8.8-11.16-12.66-17.12s-9.82-10.62-12.62-17.62c-1.66-4.18-5.84-6.7-8.93-9.92-1.22-1.27-3.09-2.21-2.24-4.51Z"/><path class="cls-22" d="M412,475c1.77,3,4.66,4.9,6.92,7.41,1.55,1.73,3.72,3.11,4.68,5.1,5.62,11.66,15.22,20.28,22.67,30.52,2.89,4,5.06,8.47,8.69,11.93-8.29,6.54-16.46,13.25-26,18-4.48.66-7.92-.62-9.2-4.59a39.07,39.07,0,0,0-8.63-14.26c-1.47-1.64-1.88-3.86-2.61-5.88a18.23,18.23,0,0,0-4.23-6.67c-1.41-1.41-3.14-2.81-3.41-4.8-1.06-7.83-6.06-13.44-10.46-19.42A3,3,0,0,1,390,491Z"/><path class="cls-23" d="M206,43c-2.07,4.51.95,8.31,2,12.26q6.72,25.76,15.08,51c.52,1.53.71,3.29,3,2.8l-24.09,8c-4.13,1.05-6-2-7-4.78-3-8.14-7.75-15.41-10.77-23.46-3.79-10.1-9.32-19.39-13.18-29.44-.53-1.38-1.59-2.57-1-4.19C181.68,50,193.5,45.46,206,43Z"/><path class="cls-24" d="M251,104.18c-1.36-10.44-2-21-4.27-31.26a212.2,212.2,0,0,1-3.9-28.28c-.24-3-1.58-6.31.09-9.41a183.78,183.78,0,0,1,34-2.16c-.34,8.22-1.42,16.48-.84,24.63,1,13.56.73,27.1.79,40.66,0,2.8,1,3.71,3.78,3.77,3.06.07,6.27-1,9.2.78C277,102.9,264,102.68,251,104.18Z"/><path class="cls-25" d="M361,580l-1-.05c1.82-5.25-.36-10.1-1.88-14.85-2.69-8.38-4.18-17.05-6.73-25.47-2.73-9-7.13-17.46-9.4-26.64l30-12c1.29,3.54-1.46,3.58-3.23,4.51a46.15,46.15,0,0,1,13.59,24.43c.82,3.93,3.39,7.13,4.82,10.64,3.53,8.64,8.2,17.37,5.81,27.39A303.28,303.28,0,0,1,361,580Z"/><path class="cls-26" d="M170.07,55.2c6.49,12.63,12,25.72,17.88,38.64,2.66,5.84,5.56,11.55,7.86,17.56,1.05,2.72,2.9,5.16,6.23,5.67l-25,12c-2.65,1.25-3.61-.83-4.51-2.51-7.2-13.45-17.14-25.2-23.92-38.93A59.16,59.16,0,0,0,141.33,77c-2.78-3.41-2.4-5.47.71-7.83A179.71,179.71,0,0,1,170.07,55.2Z"/><path class="cls-27" d="M172,493c-2.08,5.51-2.53,11.95-6.82,16.19-4.56,4.5-6.78,10.28-9.26,15.63-4.7,10.12-11.07,19.25-16,29.22A143,143,0,0,1,111,535c1.68-5.59,5.42-9.76,9.48-13.7,2.62-2.54,5.21-5,5.86-8.94.49-3,3.34-4.46,5.27-6.41,5.85-5.92,7.47-14.35,12.67-20.63,2.11-2.55,4-5.3,6.73-7.22Z"/><path class="cls-28" d="M142,69.12c-.64.78,1.43,2.8-1.45,2.7-1.65-.06-.9,1.17-.28,2a155.26,155.26,0,0,1,17.09,27.48c1.76,3.76,5,6.78,7.35,10.38,3.15,4.85,6.09,9.8,9,14.8.79,1.37,1.54,2.57,3.3,2.58l-21.93,14.12c-5.7-3.06-9.55-7.92-12.75-13.35a27.52,27.52,0,0,0-4.23-5.49,223.76,223.76,0,0,1-20.23-23.79,41.58,41.58,0,0,0-5.16-5.37c-1.43-1.32-3.11-2.6-2.63-5A205.38,205.38,0,0,1,142,69.12Z"/><path class="cls-29" d="M77.06,368c-3.28,5.76-9,7.9-14.81,9.81-7.22,2.35-14.28,5.34-21.65,7-5.25,1.18-9.67,3.89-14.44,5.86a32,32,0,0,1-14,2.34,190.23,190.23,0,0,1-8-34c9.78,1.87,18.57-2.5,27.72-4.47,13.47-2.89,26.63-7.1,40.21-9.6Z"/><path class="cls-30" d="M228,588c-3.41-2-7.34-2-11-3-4.62-1.51-9.58-1.83-14-4,6.43-10.19,7.93-22,11-33.29,2.14-7.82,3.14-16,6.69-23.41,1.68-3.49-1.07-6.89.29-10.26l27,6c2.09,2.63,1.55,5.68,1.19,8.61-.79,6.39-1.48,12.78-2.53,19.16-2.12,12.87-4.64,25.74-5,38.86a6.12,6.12,0,0,1-.49,2.42A3,3,0,0,1,237,589C233.94,589.26,231.11,587.32,228,588Z"/><path class="cls-31" d="M393,567.93c0-6.48-2-12.54-3.85-18.64-2.61-8.84-9.05-16.28-10.32-25.43-1-7.3-6.51-11.12-10-16.46-1.16-1.74-1.27-2.41.63-3.16,1.48-.59,2.58-1.51,2.58-3.28l18-10c4.92,5.28,10.56,10.08,11.19,18a4.35,4.35,0,0,0,.95,2.78c7.36,6,7.63,16.91,15.48,22.55,1.46,1,1.17,2.6,1.47,4,1.24,5.9,4,8.55,9.93,9.62-1.92,2.72-5.08,3.68-7.74,5.24C412.07,558.61,402.89,564,393,567.93Z"/><path class="cls-32" d="M72.08,345c-3,3.65-7.66,2.72-11.5,3.88-9.56,2.88-19.3,5.28-29.08,7.32C24,357.72,16.79,361,8.92,361.05a5.46,5.46,0,0,1-4.77-2c-2.56-14.88-4.34-29.83-4-45,3.24,1.21,1.92,4.08,2.22,6.31.24,1.8-.68,4.37,2.86,3.17a2.1,2.1,0,0,1,1.82.67c6.19,5.41,12.08,3.26,17.82-.77a4.19,4.19,0,0,1,4.65-.36c5.09,2.46,10.4,2,15.59.73a87.25,87.25,0,0,1,13.77-2.08c6.3-.55,8.25-2.46,8.81-8.86.21-2.38-1.18-5.44,2.23-6.81C69.53,319.09,71,332,72.08,345Z"/><path class="cls-33" d="M273,522l22-.06c2.11-1.1,3.49-.17,4.5,1.66a12.94,12.94,0,0,1,1.9,6.66,106.62,106.62,0,0,0,1.34,21.39c1.82,10.85.74,21.93,3.21,32.67.57,2.51.62,5-1.51,7a5.36,5.36,0,0,1-1.71.8c-11.73,2-23.56,1.12-35.35,1.19-1.75,0-3.79.18-4.54-2.15,6.86-1.72,6.69-6.81,6.8-12.54.25-13.59,2.84-27.08,1.89-40.74-.23-3.32.08-6.66-.36-10C270.84,525.62,271.06,523.55,273,522Z"/><path class="cls-34" d="M221,514a16.22,16.22,0,0,1-.3,13.61c-3.12,7.27-3.5,15.66-5.85,23.33-2.94,9.62-3.79,19.94-9.31,28.71A3,3,0,0,1,203,581l-5-1c-7.93-3.17-16.4-4.92-24-9,5-4.15,5.6-10.62,7.64-16.1q5-13.53,9.92-27.14c1.74-4.85,3.9-9.47,6-14.14,1.38-3.06,2-6.28-1.58-8.59,6.58,2.59,13.4,4.54,19.76,7.71C217.35,513.48,219.26,513.58,221,514Z"/><path class="cls-35" d="M100.11,421.84c-.33,3.8-.35,3.87-3.53,2.71-1.55-.57-2,.7-2.91,1.31-11.48,8-22.68,16.49-34.58,23.83A177.37,177.37,0,0,1,42,459c-6.2-8.69-10.88-18.2-15-28,3.22,1.94,2.35-2.64,4.55-2.8,5.14-.36,9-3.75,13.2-6.25a300.67,300.67,0,0,1,32.49-16.32c3.83-1.68,7-5,11-6.7Z"/><path class="cls-36" d="M151,478.08c-.47,3.45-3.58,5.1-5.49,7.43-5.17,6.29-7.26,14.23-12.33,20.67-7.49,9.51-14.71,19.26-22.19,28.8C105,531.44,100,526.5,94.69,522c-2.64-2.21-5-4.72-7.56-7.1,2.87-6,7.09-11,11.25-16.13,6.33-7.88,14.41-14.14,20-22.68,2.15-3.3,4.76-6.47,8.28-8.45,2.46-1.39,3.15-4.23,5.41-5.67Z"/><path class="cls-37" d="M64.82,134A141.3,141.3,0,0,1,86,111c10.29,7.89,19,17.45,28.16,26.52,4.91,4.85,11.09,8.41,15.49,13.93.72.9,1.78,1.56,2.42,2.51,1.48,2.17,3,4.13,6.05,3.12L119,177c-2.31,1.43-3.89-.32-5.21-1.57C99.58,162,82.4,152.34,67,140.31c-.38-.29-.65-.83-1.17-.82-5.13,0-2.45-2.23-1.24-4.09A1.73,1.73,0,0,0,64.82,134Z"/><path class="cls-38" d="M138.15,157.08c-2.61,1.28-4.26.59-6.42-1.62-5.28-5.4-10.36-10.94-16.61-15.54a66.42,66.42,0,0,1-12.07-12.24c-3.82-4.81-9.1-8.49-13.88-12.5-1.42-1.2-3-2.06-3.13-4.18,7.22-7.85,15.5-14.49,24-20.81,6.86,6.4,12.42,14,18.24,21.22s13.4,12.81,17.43,21.27c2.13,4.49,7.15,6.18,9.33,10.49Z"/><path class="cls-39" d="M132,462c-.8,1.38-.18,3.29-1.87,4.37-10,6.45-15.61,17.16-23.86,25.38-6.48,6.44-13.54,13-17.3,21.85a2,2,0,0,1-1.87,1.33c-9.46-7.93-17.09-17.57-25-27,6.28,1.38,10.22-3.2,13.67-6.69,5.86-5.9,12.51-10.89,18.29-16.69s13-10.53,17.27-17.92c.92-1.59,4.2-1.79,2.71-4.81Q123.07,451.94,132,462Z"/><path class="cls-40" d="M273,522a40.26,40.26,0,0,0-.41,5.73c-.1,13.32,2,26.67-1.15,40-1.16,4.88-.37,10.23-.43,15.36-.11,9.06,1,7.72-8,7.88-2,1.85-4.42,1.32-6.75,1.4-3.41-.21-6.89.33-10.23-.82-1.88-.44-4.07-.3-5-2.59-1.81-6.39-.44-13,.44-19.1.92-6.44,2-13,3.23-19.44,1.91-10,3.44-20.16,3.32-30.44C256.34,520.53,264.59,522.16,273,522Z"/><path class="cls-41" d="M64.82,134c3.56,2.45-1.92,2.61-.74,4.6,2.63-2.52,3.24.8,4.83,1.93,7.29,5.17,14.47,10.5,22,15.36a189.27,189.27,0,0,1,22.37,17.6c1.74,1.54,3.4,3.13,5.8,3.57l-14.12,19c-2.06,1.35-3.38-.38-4.89-1.21-10.14-5.54-19.5-12.4-29.88-17.59-5-2.49-9.23-6.33-14.44-8.59-1.94-.85-3.69-2.06-5.84-2.57-2.64-.62-5.09-1.71-4.89-5.15A146.69,146.69,0,0,1,64.82,134Z"/><path class="cls-42" d="M4,267.94A114.62,114.62,0,0,1,10,240c2.74-2.24,5.92-2.13,9-1.25,14.5,4.14,29.42,6.4,44,10C68,250,73.78,248.94,78,253q-2.53,11.49-5.09,23c-5.24,1.26-10.52.64-15.73-.06-14.15-1.91-28.36-3.12-42.56-4.42-3-.27-5.93-.76-8.9-1.08C4.24,270.29,3.05,269.83,4,267.94Z"/><path class="cls-43" d="M342,513c2.48,1,3.33,3.32,3.64,5.56,1.15,8.22,6.36,15,8.05,23a46.62,46.62,0,0,1,1.37,5.74c.79,8.7,4.38,16.76,6.54,25.11,1,3.86.24,5.31-1.59,7.57-3.25,1.28-6.46,2.71-10,3.05-2.46,3.06-5.49,3.6-9,2l-9,1.93c-4.26-2.06-4.75-3.4-1.73-6.88a6,6,0,0,0,1.33-6.29c-1.49-5.42-2.27-11-3.59-16.45-2.43-9.94-3.61-20.07-5.55-30.07a7.21,7.21,0,0,0-2.77-4.54c-1.23-1-3.1-1.54-2.67-3.72Z"/><path class="cls-44" d="M4,267.94c2.21,1.7,5.11,1.91,7.46,1.9,12.93,0,25.58,2.69,38.42,3.56,7.6.52,15.45.85,23,2.61q-1.43,10.5-2.84,21a24.39,24.39,0,0,1-12.77,3.49c-16.72-.2-33.44.43-50.16-.36a11.36,11.36,0,0,0-2.47.06C.33,301,.33,301,1,295.93A106.35,106.35,0,0,1,4,267.94Z"/><path class="cls-45" d="M317,519c9,3.66,7.38,12.53,8.74,19.39,2.47,12.37,4.41,24.84,7.87,37,.55,1.94.86,3.56-1.71,4.88-3.69,1.89-3.19,4.48.08,6.68l-10,2c-5.76,2.82-11.69,4.14-18,2,1.19-2,1.67-4.34.68-6.19-2.11-3.93-1.73-8-1.64-12.13.23-10.09-2.47-19.87-2.88-29.88-.16-4.14.19-8.31-.25-12.41-.35-3.34,0-7.5-4.92-8.36,3.36-2.22,7.29-.46,10.93-1.62C309.38,519.21,313.27,519.37,317,519Z"/><path class="cls-46" d="M1,295.93v4.63c1.74-1.46,2.85-2.7,4.87-2.47,18.14,2.05,36.35.43,54.52.88a9.42,9.42,0,0,0,6-2c1.36-1,2.44-.58,3.65,0l-.15,9c-1.7,2.05-.81,4.48-.85,6.72C69,320.73,67,323,59.32,323s-15.1,3.43-23,3.09c-5.07-.22-10.29-4-15.36,1.49-1.7,1.85-6.3,1.08-9.59,1.4-1.29.12-2.61.2-3.3-1.48-1.94-4.77-4.06-3.75-6.15.62-2.08-5,.56-9.83-1.76-14.05C.43,308-.82,301.89,1,295.93Z"/><path class="cls-47" d="M78,253c-4.87-.93-9.78-1.69-14.61-2.81-15-3.5-30.31-6-45.16-10.27-2.87-.83-5.53.3-8.29,0a119.12,119.12,0,0,1,9-28c2.64-1.73,5.35-1.3,8.11-.35,17.68,6.1,35.5,11.8,53.16,18,1.9.66,3.94.53,5.74,1.43Z"/><path class="cls-48" d="M45,160.92c1.66,3.83,6.08,3,8.42,4.79,3.84,3,9,3.34,12.24,7.07,3.52,4,9.16,4.39,13.25,7.51,8.1,6.18,17.45,10.34,26,15.74l-9.86,16c-2.48-.77-4.94-3.76-7.45.21-.59.93-2.22.33-3.31-.06a228.38,228.38,0,0,1-27.41-11.61,47.53,47.53,0,0,0-6.34-2.77c-5.3-1.78-11-3.16-12.38-10.21-2.71,2-4.67,5-7.74,2.72-2.32-1.73.9-3.47.61-5.33A128.56,128.56,0,0,1,45,160.92Z"/><path class="cls-49" d="M31,185a5.7,5.7,0,0,1,.39,1.89c-.13,1.05-2.37,2.24.13,3,1.46.45,3.16.28,3.75-1.52,1.71-5.2,4-2.52,4.53.12,1.24,6.09,6.53,6.79,10.62,7.89,4.93,1.32,8.69,4.53,13.33,6.18,7.19,2.56,14.18,5.7,21.27,8.56,1.36.55,1.92,1.2,2.71-1.41,1.17-3.87,4.06-.22,6.16.36.52.14.76,1.28,1.13,2q-4.52,9.5-9,19c-4.36,2.43-8-.86-11.56-2-16.44-5.26-32.68-11.14-49-16.63-2-.66-4.26-.28-6.41-.38A131.77,131.77,0,0,1,31,185Z"/><path class="cls-50" d="M377.15,125.14c-3.59-.55-1-3.93-.93-4,4.36-3.68,5.71-9.22,8.48-13.82,5.14-8.57,9.67-17.5,14.36-26.33.88-1.66,2.45-2.11,3.84-2.93,9.63,13.25,18.27,27.16,27.38,40.77,2.34,3.51.26,3.89-2.37,4-10.93.46-21.86.85-32.79,1.26-3,1.12-6.13-.22-9.1.78Z"/><path class="cls-10" d="M386,124.89c2.91-1.7,6.07-.5,9.1-.78C392.19,125.56,389.07,124.83,386,124.89Z"/><path class="cls-13" d="M556.91,342c.44-2.66-1-5.54,1-8C557.48,336.66,558.91,339.55,556.91,342Z"/><path class="cls-5" d="M351,126.89c2.58-1.67,5.42-.52,8.14-.76C356.57,127.56,353.77,126.85,351,126.89Z"/><path class="cls-13" d="M488.93,328c-.32,2,.81,4.24-1,6C488.25,332,487.12,329.76,488.93,328Z"/><path class="cls-51" d="M304,590.92c6.09.17,12-1.6,18-2,.36,2.47,2.3,2,3.87,2,16.6-.36,33.18.8,49.75,1.28,18,.52,36,1.39,53.89,3.4,7.89.89,15.68,2.19,23.49,3.43,5.74.92,11,3.49,16.14,6.11,3.94,2,3.81,5.06,0,7.66a39.27,39.27,0,0,1-15.66,6c-16.52,2.93-33.13,5.23-50,5.11-2.49,0-4.48,1-6.56,2-4.78-2.11-9.82-1.11-14.65-.69-3.12.26-6.24.58-9.39.7-28.92,1-57.86,1.06-86.79,1-24.4-.05-48.81.56-73.17-.26-11.29-.38-22.59-.09-33.85-.84-12.9-.85-25.79-1.59-38.71-2a36.72,36.72,0,0,1-5.36-.95c-2.19-1.35-4.81.3-7-1h-3c-2.19-1.35-4.8.3-7-1s-4.8.3-7-1c-5.49-.67-11.08-1-16-4-1.3-1-3-1.24-4.39-2.15-4.86-3.18-4.82-6.76.24-9.66a16.09,16.09,0,0,0,2.15-1.19c2.65-1,4.89-3.17,8-3,1.49-1.18,3.51.23,5-1a8.19,8.19,0,0,1,5-1c1.91-.92,4.17.32,6-1,2.54-1.33,5.47.38,8-1h2c2.54-1.34,5.46.38,8-1h4c3.22-1.38,6.77.42,10-1h4c4.59-1.38,9.41.43,14-1h8c5.26-1.43,10.73.48,16-1h16c6.75-1.07,13.55-.33,20.33-.45A147,147,0,0,0,246,590c3.2,1.72,6.67.64,10,1,.34,1.87-1,2.46-2.33,3a10.45,10.45,0,0,1-2.61.29q-17.37.09-34.73.07a13.92,13.92,0,0,0-4.39.67c-3.63.55-7.28.24-10.92.35-6.92.27-13.88-.66-20.78.58a39.18,39.18,0,0,1-7.18.41c-4.94.22-9.91-.59-14.81.56-9.58.74-19.21.83-28.71,2.38-2.13.09-4.29-.22-6.35.62-4.76,1.33-9.7,1.88-14.48,3.15-1.64.27-3.38,0-5,.73a20.14,20.14,0,0,1-2.58,1.09c-2.52.46-4.46,1.93-4.46,4.45,0,2.87,2.85,3.12,4.93,3.92a108.86,108.86,0,0,0,14.2,3.79,18.13,18.13,0,0,0,5.13.68,12.84,12.84,0,0,1,2.22.36c2.18.78,4.46.47,6.69.63a13.14,13.14,0,0,1,2.26.36,15,15,0,0,0,5.33.53,26.92,26.92,0,0,1,5.67.39c3.26,1,6.62.43,9.93.57a31.13,31.13,0,0,1,6,.38c4.27,1.19,8.63.39,12.95.61a38.77,38.77,0,0,1,7.14.38c6.29,1.3,12.66.31,19,.6,5,.18,10.08-.35,15.1.38,2.08.76,4.26.61,6.41.61H336.35c2.16,0,4.34.15,6.42-.62a42.23,42.23,0,0,1,8.92-.34c19.19.39,38.3-1.41,57.46-2.09,2.31-.09,4.51-1.12,6.86-.91,2.82-.13,5.68.36,8.46-.46a13.1,13.1,0,0,1,2.4-.41c2.31-.18,4.66.2,6.9-.66a30.22,30.22,0,0,1,5.94-1.34,16.19,16.19,0,0,0,5-.59c2.33-.51,4.4-1.8,6.75-2.24a19.4,19.4,0,0,0,2.93-.55c2-.74,4.55-1.17,4.84-3.66s-1.88-3.65-3.89-4.6c-.42-.19-.82-.4-1.22-.62-1.86-1.17-4-1.25-6.06-1.3-5.12-.66-9.88-2.93-15.07-3.25a15.78,15.78,0,0,0-5.55-.56c-4.86.38-9.57-.76-14.33-1.33-3-1.06-6.15-.56-9.24-.66A40.76,40.76,0,0,1,397,597c-4.18-1.22-8.46-.43-12.69-.65a41.08,41.08,0,0,1-6.56-.32,11.18,11.18,0,0,0-6.12-.36,5.85,5.85,0,0,1-1.62-.12c-4.79-.45-9.58-.12-14.37-.18-3.89-.13-7.8.25-11.68-.35-9.56-1.42-19.17-.31-28.75-.63A17,17,0,0,0,311,595a12.45,12.45,0,0,1-5-.22c-1.53-.86-4.15-.88-3-3.84Z"/><path class="cls-2" d="M341,585a26.77,26.77,0,0,0,9-2c2.82,2.26,6.59,2.61,9.59,2.44,13.57-.79,27,.82,40.49,1.33,8.26.32,16.53.23,24.75,1.23,9.48,1.15,19.13.52,28.5,2.85,1.5.37,2.94.51,3.63,2.13-7.44.66-14.8-.8-22.14-1.46-4.72-.42-9.58-.88-14.27-1.22-7.07-.51-14.22-.83-21.28-1.44-15-1.29-30.14.48-45.05-2.52-2.95-.6-6.21.46-9.33.6C343.32,587,341.36,587.47,341,585Z"/><path class="cls-52" d="M246,590c-1.08,2.33-3.2,2-5.17,2H207c4.07-2.14,8.43-.68,12.64-1s8.31-.06,12.46,0a6,6,0,0,0,4.88-2h4A8.71,8.71,0,0,0,246,590Z"/><path class="cls-52" d="M93.05,602.94c-.76,3-6.44,3-4.63,7.28,1.19,2.8,5.11,3,6.63,5.72-1.3-.16-2.83.06-3.87-.56-2.86-1.7-6.8-2.88-6.05-7.39S89.34,603,93.05,602.94Z"/><path class="cls-52" d="M191,592c-5.22,2.11-10.68.46-16,1C180.25,590.83,185.7,592.49,191,592Z"/><path class="cls-52" d="M167,593c-4.54,2.11-9.34.5-14,1C157.57,591.84,162.37,593.45,167,593Z"/><path class="cls-52" d="M149,594c-3.16,2-6.67.54-10,1C142.2,592.91,145.71,594.4,149,594Z"/><path class="cls-52" d="M125,596c-2.46,2-5.34.56-8,1C119.5,595,122.39,596.39,125,596Z"/><path class="cls-52" d="M135,595c-2.46,2-5.35.56-8,1C129.5,594,132.38,595.39,135,595Z"/><path class="cls-52" d="M117,597c-1.74,1.85-3.87,1.43-6,1C112.8,596.13,115,597.27,117,597Z"/><path class="cls-52" d="M128,621.94c2.32.39,4.89-.92,7,1C132.71,622.55,130.15,623.86,128,621.94Z"/><path class="cls-52" d="M111,619.94c2.33.39,4.9-.92,7,1C115.72,620.55,113.15,621.86,111,619.94Z"/><path class="cls-52" d="M118,620.94c2.33.39,4.89-.92,7,1C122.72,621.55,120.15,622.86,118,620.94Z"/><path class="cls-52" d="M106.05,599c-1.4,1.66-3.32.75-5,1C102.45,598.28,104.36,599.19,106.05,599Z"/><path class="cls-53" d="M368.09,309c-9.48,0-19-.14-28.44.07-3.32.07-4.63-.6-4.56-4.29.24-12.13.17-24.28,0-36.43,0-2.94.67-4.14,3.86-4.05,7.14.21,14.3.11,21.45.05a10.48,10.48,0,0,1,8,3.4c10.06,10.17,20.22,20.24,30.35,30.34a10.6,10.6,0,0,1,3.11,4.43c1.46,5,.37,6.47-4.82,6.48Z"/><path class="cls-53" d="M201.53,420.16a22.17,22.17,0,1,1,22.25-22.27A22.38,22.38,0,0,1,201.53,420.16Z"/><path class="cls-53" d="M357.32,420.15c-12.15-.09-22.33-10.39-22.13-22.39a22.35,22.35,0,1,1,22.13,22.39Z"/><path class="cls-54" d="M303,591c-.17,2.17,2.32,1.66,3,3-.27,2.48-2.27,2-3.77,2A123.57,123.57,0,0,1,280,594.72c-5.87-.92-11.5,1.25-17.29.67-2.89-.9-6.79,1.8-8.75-2.44l2-2,7,0c1.49,1.59,3.44.94,5.19.95C279.79,592,291.41,592.22,303,591Z"/><path class="cls-55" d="M263,594c3.82.36,7.55-1,11.27-.88,6.8.16,13.57,1.12,20.36,1.59,3.8.26,7.63.37,11.36-.71h5c3,.16,6,0,9,0,17.6-.3,35.18.84,52.75,1.43,21,.7,42.1,1.45,62.91,5.09a49.9,49.9,0,0,1,12.8,4.08c3.89,1.84,4.29,4.77,1.4,8-2,2.25-4.77,3-7.53,3.59a269.79,269.79,0,0,1-40,4.94c-18.58,1-37.2,1.22-55.76,2.14-26.79,1.35-53.54.28-80.31.74-12.65.22-25.31.24-38,0-21.58-.41-43.18-1-64.73-2.15-16-.86-32.14-1.51-47.9-5.22a37,37,0,0,1-7.07-2.4c-2.32-1.08-4.61-2.38-4.23-5.47s2.54-4.63,5.21-5.47A130.93,130.93,0,0,1,129,599c12.14-1.84,24.48-1.39,36.61-3.23a2.71,2.71,0,0,1,1.82,0c15.68-.48,31.36-.61,47-1.61,10.74-.68,21.55-.11,32.32-.14C252.18,594,257.6,595.34,263,594Z"/><path class="cls-54" d="M166,596a22,22,0,0,1-9,2c-13.12,0-26,1.91-38.93,4-3.09.49-5.52,2.67-8.88,2.77-1.77,0-3.87,2.08-4,4.57s2.07,2.8,3.69,3.48c9.11,3.84,18.86,5.27,28.52,6,24.12,1.89,48.32,2.52,72.51,3.38,43.25,1.53,86.49.59,129.73.56,17.54,0,35.14-1,52.67-2s35-1.9,52-6.67a8.71,8.71,0,0,0,3.93-1.88c3.82-3.53,3.54-4.94-1.24-6.76-10.78-4.1-22-5.72-33.43-6.6-22.49-1.73-45-2.51-67.54-3.18-10.11-.3-20.23-.29-30.34-.73-1.6-.07-3.38.55-4.68-1l3-1c7.21,1.12,14.46.19,21.68.53,2.77.13,5.59-.52,8.32.47h12c4.93,1.44,10.07-.39,15,1h1a5.84,5.84,0,0,1,5,0h7c4.25,1.46,8.75-.41,13,1h7c2.88,1.37,6.1-.31,9,1,5-.19,9.94,1.63,15,1,1.49,1.23,3.5-.18,5,1,5.65-.71,10.52,2.75,16,3,2,.8,4.15.9,6,2,1,.83,2.35,1.21,3.25,2.13,2.14,2.16,1.77,4.9-.94,6.55-1.64,1-3.57,1.47-5.31,2.32-2.48.13-4.36,2.41-7,2-1.5,1.18-3.52-.23-5,1l-6,1c-2.2,1.3-4.81-.35-7,1h-2c-2.54,1.33-5.46-.38-8,1a722,722,0,0,1-74,3c-1.22.78-2.59.47-3.9.47q-61.08,0-122.17,0c-1.31,0-2.68.31-3.9-.47H198c-4.53-1.13-9.13-.2-13.68-.53-1.77-.12-3.61.46-5.32-.47h-7c-4.25-1.46-8.75.41-13-1h-6c-3.22-1.42-6.77.37-10-1h-6c-1.49-1.23-3.51.18-5-1h-2c-2.19-1.35-4.8.3-7-1h-2c-1.48-1.23-3.5.18-5-1a36.33,36.33,0,0,1-15-4c-6.14-4-6.14-6,0-10l2-1c1.49-1.18,3.51.24,5-1l15-3c1.85-1.26,4.16.3,6-1a199.49,199.49,0,0,1,29-2A13.88,13.88,0,0,1,166,596Z"/><path class="cls-54" d="M213,623.94H343c-1.48,1.63-3.43,1-5.17,1q-59.82.06-119.63,0C216.44,624.91,214.49,625.57,213,623.94Z"/><path class="cls-54" d="M263,594c-5,2.15-10.45,1.52-15.48,1.42-12.06-.23-24.1-1.08-36.13.49a9.24,9.24,0,0,1-1.49.08c-12.59-.43-25.14.49-37.71,1-1.73.06-3.69.67-5.16-1,1.84-1.25,4.16.3,6-1h7c5-1.05,10.14-.19,15.2-.5,1.93-.12,3.94.52,5.8-.5h11c9.39-1.09,18.81-.17,28.2-.5,3.93-.13,7.89.41,11.79-.5h2C256.82,595,260,593.5,263,594Z"/><path class="cls-54" d="M252,593c-1.47,1.63-3.41,1-5.16,1-11.61.05-23.22,0-34.83,0,.83-1.09,2-1,3.18-1Z"/><path class="cls-54" d="M344,594c-8.45,0-16.9,0-25.34,0-1.59,0-3.36.55-4.66-1,8.45,0,16.9,0,25.34,0C340.91,593,342.68,592.42,344,594Z"/><path class="cls-54" d="M451.94,614.94a11.52,11.52,0,0,1,1.52-1.21c6.64-3.73,6.73-4.25,1.48-9.79,3.55.53,6.46,2.65,5.71,6.08C459.79,614,455.57,614.52,451.94,614.94Z"/><path class="cls-54" d="M101.05,603.94q-6.18,5,0,10c-3-.17-5.94-1.15-5.76-4.54C95.45,606.39,97.23,603.75,101.05,603.94Z"/><path class="cls-54" d="M201,594c-4.89,2.2-10,.49-15.05,1-2,.18-4,0-5.95,0,4.9-2.2,10-.49,15-1C197,593.79,199,594,201,594Z"/><path class="cls-54" d="M179,622.94c6.32.57,12.76-1.18,19,1C191.7,623.37,185.26,625.12,179,622.94Z"/><path class="cls-54" d="M173,595c-1.76,1.81-4,.67-6,1h-9C162.9,593.75,168,595.52,173,595Z"/><path class="cls-54" d="M371,595c-5-.57-10.12,1.2-15-1C361,594.52,366.09,592.75,371,595Z"/><path class="cls-54" d="M397,596c-4.31-.57-8.81,1.19-13-1C388.28,595.51,392.77,593.75,397,596Z"/><path class="cls-54" d="M159,621.94c4.31.57,8.81-1.19,13,1C167.71,622.37,163.22,624.13,159,621.94Z"/><path class="cls-54" d="M143,620.94c3.32.46,6.83-1,10,1C149.71,621.48,146.2,623,143,620.94Z"/><path class="cls-54" d="M413,597c-3-.45-6.18,1-9-1C406.94,596.39,410.14,594.94,413,597Z"/><path class="cls-54" d="M417,620.94c2.46-2,5.35-.56,8-1C422.49,621.94,419.61,620.5,417,620.94Z"/><path class="cls-54" d="M454.94,603.94a9.45,9.45,0,0,1-6-2C451.19,601.86,453.37,602,454.94,603.94Z"/><path class="cls-54" d="M123,618.94c2.33.39,4.89-.92,7,1C127.71,619.55,125.15,620.86,123,618.94Z"/><path class="cls-54" d="M427,619.94c2.11-1.92,4.67-.61,7-1C431.84,620.86,429.28,619.55,427,619.94Z"/><path class="cls-54" d="M129,598c-1.75,1.81-4,.67-6,1C124.79,597.13,127,598.27,129,598Z"/><path class="cls-54" d="M132,619.94c1.68.24,3.6-.67,5,1C135.35,620.7,133.44,621.61,132,619.94Z"/><path class="cls-54" d="M116,617.94c1.69.24,3.6-.67,5,1C119.36,618.7,117.44,619.61,116,617.94Z"/><path class="cls-54" d="M377,595h-5A3.36,3.36,0,0,1,377,595Z"/><path class="cls-54" d="M108.05,602c-1.4,1.66-3.32.75-5,1C104.45,601.28,106.36,602.19,108.05,602Z"/><path class="cls-54" d="M433,599c-1.69-.25-3.6.66-5-1C429.63,598.19,431.55,597.28,433,599Z"/><path class="cls-54" d="M440,617.94c1.4-1.67,3.31-.76,5-1C443.55,618.61,441.63,617.7,440,617.94Z"/><path class="cls-56" d="M366.57,619.18c-21.26,1.6-42.58.11-63.83,1-7.87.32-15.86.47-23.61.38-25.85-.29-51.72-.11-77.56-.77-11.9-.3-23.85-.91-35.71-2-13-1.18-26.14-1-38.79-4.82a17.78,17.78,0,0,1-3.26-1.17c-1.32-.72-2.68-1.66-2.58-3.38s1.7-1.94,2.86-2.44a20.14,20.14,0,0,1,5.64-1.92c9.5-.93,19-2.28,28.5-3s19.33-1.8,29.07-2.18c20.44-.81,40.88-1,61.33-1,33.06.05,66.13-.5,99.17.28,12.8.31,25.68.33,38.51,1.57,13.4,1.29,26.86,1.94,40.13,4.31,3.16.56,7.63,1.13,8.05,4.8.47,4.14-4.43,3-6.85,4-7.25,3-15.19,3.13-22.87,3.87C392.08,618,379.31,618.42,366.57,619.18Z"/><path class="cls-57" d="M381,602.94h2a70,70,0,0,1,14.11,1.39c2.95.62,6,.09,8.85,1.17,1.73.66,3.61,1.33,3.43,3.65-.14,2-1.8,2.75-3.44,3.11-3.55.79-7.19,1.1-10.78,1.67-8,1.26-16.11,1.31-24.16,2h-1c-5.37,1.09-10.8.16-16.19.5-1.94.12-3.95-.52-5.81.5h-3c-9.72,1.08-19.48.15-29.21.5-5.26.19-10.55-.61-15.78.5H255c-10.37-1.1-20.78-.26-31.16-.55-4.28-.12-8.58.59-12.83-.45h-4c-5.87-1.12-11.79-.19-17.68-.53-2.1-.12-4.27.51-6.32-.47-5-1.14-10.14-1-15.17-1.29s-10.14-1.18-15.2-1.77c-2.49-.29-5.65-.61-5.86-3.54-.24-3.46,3.24-3.86,5.75-4.19,9.67-1.27,19.29-3.19,29.12-2.7A3.14,3.14,0,0,0,184,602h2c6-1.07,12.13-.18,18.18-.51,1.94-.1,4,.52,5.82-.49h1c10.38-1.09,20.8-.15,31.19-.52,3.93-.14,7.91.66,11.8-.48h42a7.71,7.71,0,0,0,6,0h1c5.56,1.16,11.18.28,16.77.49,8.73.34,17.49-.56,26.21.51h1c6.86,1.18,13.77.17,20.64.55A3.79,3.79,0,0,1,370,602h2C374.85,603.31,378.07,601.64,381,602.94Z"/><path class="cls-58" d="M184,602c-5.51,2.11-11.42.5-17.06,1.92s-11.35,2.12-17,3.27c-1,.21-2.53.56-2.43,2.06s1.49,1.56,2.6,1.91c7.77,2.4,15.79,2.94,23.86,3.42,3,.18,6.24-.39,9,1.41a251.46,251.46,0,0,1-38-3.1c-3-.45-8.15-1.67-8-3.62.22-3.32,4.92-3.7,8-4.17C158,603.09,170.92,601.49,184,602Z"/><path class="cls-58" d="M371,615.94c5.65-2.21,11.71-.4,17.5-1.89s11.65-2.11,17.5-3.09c1.18-.2,2.46-.45,2.56-1.86.12-1.78-1.44-2.06-2.71-2.31q-7.76-1.49-15.53-2.82c-2.43-.42-4.88-.69-7.33-1,3.51-2.18,7,.16,10.51.19A67.93,67.93,0,0,1,416.8,607c1.05.39,2.54.56,2.64,1.91.14,1.81-1.61,1.73-2.78,2.22-6.53,2.72-13.58,3-20.41,3.58C387.87,615.48,379.44,616.62,371,615.94Z"/><path class="cls-58" d="M211,616.94c12.94,0,25.87,0,38.81,0,1.75,0,3.7-.67,5.18,1-12.94,0-25.88,0-38.82,0C214.43,617.9,212.48,618.57,211,616.94Z"/><path class="cls-58" d="M300,617.94c1.47-1.63,3.42-1,5.16-1,13.28-.05,26.55,0,39.83,0-1.47,1.63-3.42,1-5.17,1C326.54,618,313.26,617.94,300,617.94Z"/><path class="cls-58" d="M254,600c-1.47,1.63-3.42,1-5.16,1-12.61.05-25.22,0-37.83,0,1.47-1.64,3.42-1,5.17-1C228.78,599.92,241.39,600,254,600Z"/><path class="cls-58" d="M346,601c-12.6,0-25.21,0-37.82,0-1.74,0-3.69.66-5.16-1,12.61,0,25.21,0,37.82,0C342.56,600,344.51,599.31,346,601Z"/><path class="cls-58" d="M183,615.94c6.45,0,12.9,0,19.35,0,1.58,0,3.35-.54,4.65,1-6.45,0-12.9,0-19.35,0C186.08,616.91,184.32,617.46,183,615.94Z"/><path class="cls-58" d="M370,602c-7.67-.29-15.4,1-23-1,6.12,0,12.24,0,18.35,0C366.91,601,368.67,600.42,370,602Z"/><path class="cls-58" d="M210,601c-4.06,2.13-8.4.66-12.59.94-3.79.26-7.6.06-11.41.06,4-2.14,8.39-.67,12.59-1C202.4,600.74,206.21,601,210,601Z"/><path class="cls-58" d="M348,616.94c4.73-2.14,9.72-.54,14.57-1,2.46-.21,4.95,0,7.43,0-4.73,2.14-9.71.55-14.56,1C353,617.12,350.45,616.94,348,616.94Z"/><path class="cls-58" d="M381,602.94c-3-.44-6.18,1-9-1C375,602.39,378.15,600.94,381,602.94Z"/><path class="cls-58" d="M302,600a4.54,4.54,0,0,1-6,0Z"/><path class="cls-59" d="M174.38,608.37a79.66,79.66,0,0,1,20.7-3.36c12.6-.58,25.26-.56,37.83-1.28,27.45-1.58,54.9-.92,82.31-.49,15.55.24,31.21,0,46.7,1.82,6.54.78,13.36.74,19.58,4a72,72,0,0,1-19.66,3.84c-13.27.56-26.59.53-39.82,1.27-27.46,1.55-54.9.86-82.32.51-15.21-.19-30.51-.46-45.71-1.77-5.59-.48-11.16-1.32-16.72-2.1A3.07,3.07,0,0,1,174.38,608.37Z"/></g></g></svg>
