<svg width="16" height="16" viewBox="0 0 16 16" fill="none" xmlns="http://www.w3.org/2000/svg">
<mask id="mask0_4282_9555" style="mask-type:alpha" maskUnits="userSpaceOnUse" x="0" y="0" width="16" height="16">
<rect width="16" height="16" fill="#D9D9D9"/>
</mask>
<g mask="url(#mask0_4282_9555)">
<path d="M7.40643 14.6654L1.32568 8.5782L8.24235 1.66797H14.3231V7.74872L7.40643 14.6654ZM11.8384 4.87692C12.0401 4.87692 12.2133 4.80335 12.3577 4.6562C12.5021 4.50906 12.5744 4.33673 12.5744 4.13922C12.5744 3.93957 12.5024 3.76753 12.3585 3.62309C12.2145 3.47865 12.0417 3.40644 11.8399 3.40644C11.6381 3.40644 11.465 3.4784 11.3205 3.62234C11.1761 3.76628 11.1039 3.93807 11.1039 4.13772C11.1039 4.33736 11.1758 4.51047 11.3198 4.65705C11.4637 4.80363 11.6366 4.87692 11.8384 4.87692ZM7.39903 13.5782L13.5667 7.40874V2.42437H8.5745L2.41285 8.59487L7.39903 13.5782Z" fill="#979797"/>
</g>
</svg>
