<svg xmlns="http://www.w3.org/2000/svg" width="13" height="13" viewBox="0 0 13 13">
  <path d="M6.08075 12.9974L0 6.91023L6.91667 0H12.9974V6.08075L6.08075 12.9974ZM10.5127 3.20895C10.7145 3.20895 10.8876 3.13538 11.032 2.98823C11.1765 2.84109 11.2487 2.66876 11.2487 2.47125C11.2487 2.27161 11.1767 2.09956 11.0328 1.95512C10.8888 1.81068 10.716 1.73847 10.5142 1.73847C10.3124 1.73847 10.1393 1.81043 9.99485 1.95437C9.85041 2.09831 9.77818 2.27011 9.77818 2.46975C9.77818 2.66939 9.85015 2.84251 9.9941 2.98908C10.138 3.13566 10.3109 3.20895 10.5127 3.20895ZM6.07335 11.9102L12.241 5.74077V0.756401H7.24882L1.08717 6.9269L6.07335 11.9102Z"/>
</svg>
