<svg id="ico-search" xmlns="http://www.w3.org/2000/svg" width="20.006" height="20.468" viewBox="0 0 20.006 20.468">
  <g id="magnifying-glass-search">
    <path id="Path_2195" data-name="Path 2195" d="M14.475,12.834l-.074-.079A8.107,8.107,0,0,0,13.714,2.33a7.6,7.6,0,0,0-10.955,0,8.1,8.1,0,0,0,0,11.247,7.6,7.6,0,0,0,10.311.588l.032.035c.369.392,5.548,6.632,5.93,6.252l1.447-1.437C20.86,18.636,14.845,13.227,14.475,12.834Zm-2.464-1a5.248,5.248,0,0,1-7.551,0,5.593,5.593,0,0,1,0-7.753,5.247,5.247,0,0,1,7.551,0A5.592,5.592,0,0,1,12.012,11.83Z" transform="translate(-0.49 -0.001)" fill="#53bceb"/>
  </g>
</svg>
