<svg xmlns="http://www.w3.org/2000/svg" width="29.14" height="23.713" viewBox="0 0 29.14 23.713">
  <path id="ico-twitter" d="M39.04,20.3a12.255,12.255,0,0,1-3.424.947,5.827,5.827,0,0,0,2.623-3.315,12.58,12.58,0,0,1-3.788,1.457,5.979,5.979,0,0,0-10.345,4.08,5.462,5.462,0,0,0,.146,1.348,16.815,16.815,0,0,1-12.275-6.229A6,6,0,0,0,13.8,26.57a5.736,5.736,0,0,1-2.7-.729,6.037,6.037,0,0,0,4.772,5.937,6.556,6.556,0,0,1-2.7.109,6,6,0,0,0,5.573,4.152A12.035,12.035,0,0,1,9.9,38.517a16.851,16.851,0,0,0,9.179,2.7c11,0,16.974-9.106,16.974-16.974a5.38,5.38,0,0,0-.036-.765A11.857,11.857,0,0,0,39.04,20.3Z" transform="translate(-9.9 -17.5)" fill="#fff"/>
</svg>
