<svg
   width="100"
   height="100"
   viewBox="0 0 100 100"
   xmlns="http://www.w3.org/2000/svg">
    <path
       style="fill:#c13119;stroke-width:5;stroke-linecap:round;stroke-linejoin:round;fill-opacity:1"
       id="path234"
       d="m -36.880874,72.085345 -6.230283,-0.520099 1.31747,6.111563 -5.924774,-1.99599 -0.183406,6.249263 -5.27494,-3.355881 -1.673623,6.023779 -4.318545,-4.520741 -3.066575,5.448214 -3.111171,-5.422872 -4.28131,4.55602 -1.722988,-6.009845 -5.247229,3.399046 -0.234671,-6.247548 -5.908199,2.044531 1.267284,-6.122166 -6.225806,0.571197 2.695589,-5.640987 -6.181592,-0.935334 3.967237,-4.831972 -5.778125,-2.387507 5.008322,-3.742143 -5.038856,-3.700926 5.758344,-2.434832 -4.006747,-4.799262 6.17371,-0.986019 -2.741779,-5.61868 6.230283,0.520098 -1.31747,-6.111562 5.924774,1.995989 0.183406,-6.249263 5.27494,3.355882 1.673623,-6.023779 4.318545,4.520741 3.066575,-5.448215 3.111171,5.422872 4.28131,-4.55602 1.722988,6.009845 5.247229,-3.399045 0.234671,6.247548 5.908199,-2.044532 -1.267284,6.122166 6.225806,-0.571196 -2.695589,5.640986 6.181591,0.935334 -3.967236,4.831973 5.778125,2.387507 -5.008322,3.742142 5.038856,3.700926 -5.758344,2.434833 4.006747,4.799261 -6.17371,0.986019 z"
       transform="matrix(1.6194487,0,0,1.6194487,150.99239,-38.504086)" />
    <path
       id="path3194"
       style="font-style:italic;font-weight:bold;font-size:13.2831px;line-height:0.8;font-family:Roboto;-inkscape-font-specification:'Roboto Bold Italic';text-align:center;text-anchor:middle;fill:#ffffff;stroke-width:5.53464;stroke-linecap:round;stroke-linejoin:round"
       d="M 23.167969 39.90625 L 21.527344 49.349609 L 27.435547 49.349609 L 27.707031 47.787109 L 23.699219 47.787109 L 25.068359 39.90625 L 23.167969 39.90625 z M 30.328125 39.90625 L 28.693359 49.349609 L 30.59375 49.349609 L 32.228516 39.90625 L 30.328125 39.90625 z M 34.03125 39.90625 L 32.390625 49.349609 L 34.291016 49.349609 L 34.964844 45.490234 L 38.583984 45.490234 L 38.863281 43.921875 L 35.232422 43.921875 L 35.660156 41.482422 L 39.732422 41.482422 L 40.011719 39.90625 L 34.03125 39.90625 z M 41.152344 39.90625 L 39.511719 49.349609 L 45.667969 49.349609 L 45.939453 47.787109 L 41.685547 47.787109 L 42.126953 45.257812 L 45.746094 45.257812 L 46.017578 43.732422 L 42.384766 43.732422 L 42.78125 41.482422 L 47.015625 41.482422 L 47.294922 39.90625 L 41.152344 39.90625 z M 48.027344 39.90625 L 47.75 41.482422 L 50.519531 41.482422 L 49.15625 49.349609 L 51.056641 49.349609 L 52.419922 41.482422 L 55.220703 41.482422 L 55.5 39.90625 L 48.027344 39.90625 z M 56.746094 39.90625 L 55.111328 49.349609 L 57.011719 49.349609 L 58.646484 39.90625 L 56.746094 39.90625 z M 60.449219 39.90625 L 58.808594 49.349609 L 60.708984 49.349609 L 61.142578 46.865234 L 61.751953 42.214844 L 63.017578 49.349609 L 64.320312 49.349609 L 67.939453 42.455078 L 67.019531 46.658203 L 66.552734 49.349609 L 68.458984 49.349609 L 70.099609 39.90625 L 67.570312 39.90625 L 64.048828 46.736328 L 62.886719 39.90625 L 60.449219 39.90625 z M 71.798828 39.90625 L 70.158203 49.349609 L 76.3125 49.349609 L 76.585938 47.787109 L 72.330078 47.787109 L 72.771484 45.257812 L 76.390625 45.257812 L 76.664062 43.732422 L 73.03125 43.732422 L 73.427734 41.482422 L 77.662109 41.482422 L 77.941406 39.90625 L 71.798828 39.90625 z M 13.556641 50.533203 L 14.113281 59.976562 L 16.027344 59.976562 L 18.498047 53.685547 L 18.998047 59.976562 L 20.910156 59.976562 L 24.419922 50.533203 L 22.480469 50.533203 L 20.203125 57.232422 L 19.755859 50.533203 L 18.140625 50.533203 L 15.599609 57.201172 L 15.410156 50.533203 L 13.556641 50.533203 z M 27.876953 50.533203 L 22.830078 59.976562 L 24.925781 59.976562 L 25.898438 58.03125 L 29.193359 58.03125 L 29.492188 59.976562 L 31.431641 59.976562 L 29.634766 50.533203 L 27.876953 50.533203 z M 34.019531 50.533203 L 32.376953 59.976562 L 34.277344 59.976562 L 34.880859 56.519531 L 36.425781 56.519531 L 37.541016 59.976562 L 39.564453 59.976562 L 39.564453 59.873047 L 38.234375 56.039062 C 39.527228 55.533164 40.219744 54.633114 40.310547 53.335938 C 40.375405 52.458182 40.125027 51.772224 39.558594 51.279297 C 38.996484 50.786369 38.19092 50.539062 37.144531 50.539062 L 34.019531 50.533203 z M 42.308594 50.533203 L 40.666016 59.976562 L 42.566406 59.976562 L 43.169922 56.519531 L 44.714844 56.519531 L 45.830078 59.976562 L 47.853516 59.976562 L 47.853516 59.873047 L 46.523438 56.039062 C 47.81629 55.533164 48.508807 54.633114 48.599609 53.335938 C 48.664468 52.458182 48.412137 51.772224 47.845703 51.279297 C 47.283593 50.786369 46.479983 50.539062 45.433594 50.539062 L 42.308594 50.533203 z M 53.191406 50.533203 L 48.144531 59.976562 L 50.240234 59.976562 L 51.212891 58.03125 L 54.507812 58.03125 L 54.806641 59.976562 L 56.746094 59.976562 L 54.949219 50.533203 L 53.191406 50.533203 z M 59.333984 50.533203 L 57.691406 59.976562 L 59.591797 59.976562 L 60.689453 53.679688 L 63.316406 59.976562 L 65.158203 59.976562 L 66.791016 50.533203 L 64.898438 50.533203 L 63.802734 56.84375 L 61.167969 50.533203 L 59.333984 50.533203 z M 67.746094 50.533203 L 67.466797 52.109375 L 70.236328 52.109375 L 68.873047 59.976562 L 70.773438 59.976562 L 72.136719 52.109375 L 74.9375 52.109375 L 75.216797 50.533203 L 67.746094 50.533203 z M 77.675781 50.533203 L 75.671875 50.539062 L 77.628906 56.441406 L 77.013672 59.976562 L 78.947266 59.976562 L 79.517578 56.65625 L 83.642578 50.533203 L 81.462891 50.533203 L 78.824219 54.775391 L 77.675781 50.533203 z M 84.492188 50.533203 L 83.570312 57.078125 L 85.095703 57.078125 L 86.443359 50.533203 L 84.492188 50.533203 z M 35.646484 52.109375 L 37.267578 52.115234 C 37.691322 52.13253 38.000736 52.260231 38.195312 52.498047 C 38.389888 52.735863 38.457018 53.064955 38.396484 53.484375 C 38.331625 53.934063 38.135258 54.290928 37.806641 54.554688 C 37.482346 54.814124 37.069934 54.948385 36.568359 54.957031 L 35.154297 54.943359 L 35.646484 52.109375 z M 43.935547 52.109375 L 45.556641 52.115234 C 45.980385 52.13253 46.289799 52.260231 46.484375 52.498047 C 46.67895 52.735863 46.74608 53.064955 46.685547 53.484375 C 46.620688 53.934063 46.424321 54.290928 46.095703 54.554688 C 45.771409 54.814124 45.358997 54.948385 44.857422 54.957031 L 43.443359 54.943359 L 43.935547 52.109375 z M 28.421875 52.939453 L 28.953125 56.455078 L 26.675781 56.455078 L 28.421875 52.939453 z M 53.736328 52.939453 L 54.267578 56.455078 L 51.990234 56.455078 L 53.736328 52.939453 z M 83.966797 58.095703 C 83.67277 58.10435 83.430487 58.20735 83.240234 58.40625 C 83.049983 58.600826 82.95815 58.841574 82.966797 59.126953 C 82.966797 59.390712 83.063654 59.618341 83.253906 59.808594 C 83.448483 59.998846 83.697326 60.09375 84 60.09375 C 84.298351 60.085103 84.542169 59.98015 84.732422 59.78125 C 84.922673 59.58235 85.012553 59.340067 85.003906 59.054688 C 84.995258 58.764985 84.890724 58.53275 84.6875 58.355469 C 84.484276 58.173866 84.243528 58.087056 83.966797 58.095703 z " />
</svg>
