<svg xmlns="http://www.w3.org/2000/svg" viewBox="0 0 49 32">
  <defs/>
  <path d="M1.5 26v-4.5H-.1v-1.4h5v1.4H3.4V26H1.5zM5.9 26v-5.9h2l1.6.1.8.3.6.6.1.9c0 .5-.1.8-.4 1.1a2 2 0 01-1.2.6l1.9 2.4H9.2l-1.6-2.3V26H5.9zm1.7-3.1H8l.9-.2c.2-.1.3-.3.3-.6s-.1-.5-.3-.6a2 2 0 00-.9-.2h-.4v1.6zM11.3 26l2.4-5.9H16l2.4 5.9h-1.9l-.3-1h-2.7l-.4 1h-1.8zm2.6-2.2h1.9l-.7-1.9-.1-.3-.1-.5-.1.4-.1.4-.8 1.9zM19.1 26v-5.9h1.8l2.6 3 .2.4.4.7-.1-.7v-3.4h1.8V26H24l-2.6-3-.3-.4-.4-.7.1.7V26h-1.7zM27.7 24.1l.8.6.8.2.6-.2c.2-.1.2-.3.2-.4l-.2-.5a3 3 0 00-1-.3c-.7-.2-1.2-.4-1.4-.6-.3-.2-.4-.6-.4-1 0-.6.2-1 .7-1.4.4-.4 1-.5 1.7-.5l1.1.1 1 .4-.6 1.2-.7-.4-.7-.1-.6.1-.2.4.2.4.7.3h.1c.8.2 1.3.4 1.5.6l.4.5.1.7c0 .6-.2 1.1-.7 1.5-.5.4-1.1.6-1.9.6l-1.3-.2c-.4-.1-.8-.4-1.1-.7l.9-1.3zM33 26v-5.9h4.2v1.3h-2.4v1h2.3v1.3h-2.3V26H33zM38.3 26v-5.9h4.2v1.3h-2.4v1h2.3v1.3h-2.3v1h2.4V26h-4.2zM43.8 26v-5.9h2l1.6.1.8.3.6.6.2.8c0 .5-.1.8-.4 1.1a2 2 0 01-1.2.6l1.9 2.4h-2.1l-1.6-2.3V26h-1.8zm1.7-3.1h.4l.9-.2c.2-.1.3-.3.3-.6s-.1-.5-.3-.6a2 2 0 00-.9-.2h-.4v1.6z"/>
  <g>
    <path d="M21.6 10.5l1.3 4 .2.6.2.7.2-.7.1-.5 1.2-4h2.8l-2.8 8.5h-2.5l-1.2-3.6-.2-.8-.1-.4-.1.3-.2.8-1.5 3.7h-2.5l-2.8-8.5h2.8l1.1 4.1.2.6.1.6.1-.5.2-.8 1.3-4.1h2.1zM28.5 19.1v-8.5h2.8v8.5h-2.8zM33.4 19.1v-8.5h2.9l2.3.1 1.1.4c.4.2.6.5.8.9l.3 1.2c0 .7-.2 1.2-.6 1.6-.4.4-.9.7-1.7.8l2.7 3.4h-3.1L36 15.7V19l-2.6.1zm2.6-4.5h.5c.6 0 1-.1 1.3-.3.3-.2.4-.4.4-.8s-.1-.7-.4-.9c-.3-.2-.7-.3-1.3-.3H36v2.3zM42.4 19.1v-8.5h6.1v1.9H45V14h3.3v1.8H45v1.4h3.5v1.9h-6.1z"/>
  </g>
  <path d="M0 10.5h12.5v1.7H0zM0 13.8h12.5v1.7H0zM0 17.3h12.5V19H0z"/>
</svg>
